  0
SECTION
  2
HEADER
  9
$ACADVER
  1
AC1009
  9
$DWGCODEPAGE
  3
ansi_1252
  9
$INSBASE
 10
0.0
 20
0.0
 30
0.0
  9
$EXTMIN
 10
-5.002785529249653
 20
-0.000000000000001
 30
0.0
  9
$EXTMAX
 10
149.9998878737247
 20
128.4877702388811
 30
0.0
  9
$LIMMIN
 10
0.0
 20
0.0
  9
$LIMMAX
 10
12.0
 20
9.0
  9
$ORTHOMODE
 70
     0
  9
$REGENMODE
 70
     1
  9
$FILLMODE
 70
     1
  9
$QTEXTMODE
 70
     0
  9
$MIRRTEXT
 70
     0
  9
$DRAGMODE
 70
     2
  9
$LTSCALE
 40
1.0
  9
$OSMODE
 70
    37
  9
$ATTMODE
 70
     1
  9
$TEXTSIZE
 40
0.2
  9
$TRACEWID
 40
0.05
  9
$TEXTSTYLE
  7
STANDARD
  9
$CLAYER
  8
0
  9
$CELTYPE
  6
BYLAYER
  9
$CECOLOR
 62
   256
  9
$DIMSCALE
 40
1.0
  9
$DIMASZ
 40
2.5
  9
$DIMEXO
 40
0.625
  9
$DIMDLI
 40
5.0
  9
$DIMRND
 40
0.0
  9
$DIMDLE
 40
0.0
  9
$DIMEXE
 40
1.25
  9
$DIMTP
 40
0.0
  9
$DIMTM
 40
0.0
  9
$DIMTXT
 40
2.5
  9
$DIMCEN
 40
0.09
  9
$DIMTSZ
 40
0.0
  9
$DIMTOL
 70
     0
  9
$DIMLIM
 70
     0
  9
$DIMTIH
 70
     0
  9
$DIMTOH
 70
     1
  9
$DIMSE1
 70
     0
  9
$DIMSE2
 70
     0
  9
$DIMTAD
 70
     1
  9
$DIMZIN
 70
     8
  9
$DIMBLK
  1

  9
$DIMASO
 70
     1
  9
$DIMSHO
 70
     1
  9
$DIMPOST
  1

  9
$DIMAPOST
  1

  9
$DIMALT
 70
     0
  9
$DIMALTD
 70
     2
  9
$DIMALTF
 40
25.4
  9
$DIMLFAC
 40
1.0
  9
$DIMTOFL
 70
     0
  9
$DIMTVP
 40
0.0
  9
$DIMTIX
 70
     0
  9
$DIMSOXD
 70
     0
  9
$DIMSAH
 70
     0
  9
$DIMBLK1
  1

  9
$DIMBLK2
  1

  9
$DIMSTYLE
  2
STANDARD
  9
$DIMCLRD
 70
     0
  9
$DIMCLRE
 70
     0
  9
$DIMCLRT
 70
   256
  9
$DIMTFAC
 40
1.0
  9
$DIMGAP
 40
0.625
  9
$LUNITS
 70
     2
  9
$LUPREC
 70
     4
  9
$SKETCHINC
 40
0.1
  9
$FILLETRAD
 40
0.0
  9
$AUNITS
 70
     0
  9
$AUPREC
 70
     0
  9
$MENU
  1
.
  9
$ELEVATION
 40
0.0
  9
$PELEVATION
 40
0.0
  9
$THICKNESS
 40
0.0
  9
$LIMCHECK
 70
     0
  9
$CHAMFERA
 40
0.0
  9
$CHAMFERB
 40
0.0
  9
$SKPOLY
 70
     0
  9
$TDCREATE
 40
2461300.472200671
  9
$TDUPDATE
 40
2461300.472200799
  9
$TDINDWG
 40
0.0000000116
  9
$TDUSRTIMER
 40
0.0000000116
  9
$USRTIMER
 70
     1
  9
$ANGBASE
 50
0.0
  9
$ANGDIR
 70
     0
  9
$PDMODE
 70
     0
  9
$PDSIZE
 40
0.0
  9
$PLINEWID
 40
0.0
  9
$COORDS
 70
     1
  9
$SPLFRAME
 70
     0
  9
$SPLINETYPE
 70
     6
  9
$SPLINESEGS
 70
     8
  9
$ATTDIA
 70
     0
  9
$ATTREQ
 70
     1
  9
$HANDLING
 70
     1
  9
$HANDSEED
  5
1A7
  9
$SURFTAB1
 70
     6
  9
$SURFTAB2
 70
     6
  9
$SURFTYPE
 70
     6
  9
$SURFU
 70
     6
  9
$SURFV
 70
     6
  9
$UCSNAME
  2

  9
$UCSORG
 10
0.0
 20
0.0
 30
0.0
  9
$UCSXDIR
 10
1.0
 20
0.0
 30
0.0
  9
$UCSYDIR
 10
0.0
 20
1.0
 30
0.0
  9
$PUCSNAME
  2

  9
$PUCSORG
 10
0.0
 20
0.0
 30
0.0
  9
$PUCSXDIR
 10
1.0
 20
0.0
 30
0.0
  9
$PUCSYDIR
 10
0.0
 20
1.0
 30
0.0
  9
$USERI1
 70
     0
  9
$USERI2
 70
     0
  9
$USERI3
 70
     0
  9
$USERI4
 70
     0
  9
$USERI5
 70
     0
  9
$USERR1
 40
0.0
  9
$USERR2
 40
0.0
  9
$USERR3
 40
0.0
  9
$USERR4
 40
0.0
  9
$USERR5
 40
0.0
  9
$WORLDVIEW
 70
     1
  9
$SHADEDGE
 70
     3
  9
$SHADEDIF
 70
    70
  9
$TILEMODE
 70
     1
  9
$MAXACTVP
 70
    64
  9
$PLIMCHECK
 70
     0
  9
$PEXTMIN
 10
0.0
 20
0.0
 30
0.0
  9
$PEXTMAX
 10
0.0
 20
0.0
 30
0.0
  9
$PLIMMIN
 10
-20.0
 20
-7.5
  9
$PLIMMAX
 10
277.0
 20
202.5
  9
$UNITMODE
 70
     0
  9
$VISRETAIN
 70
     1
  9
$PLINEGEN
 70
     0
  9
$PSLTSCALE
 70
     1
  0
ENDSEC
  0
SECTION
  2
TABLES
  0
TABLE
  2
VPORT
 70
     1
  0
VPORT
  2
*ACTIVE
 70
     0
 10
0.0
 20
0.0
 11
1.0
 21
1.0
 12
10.42990654205607
 22
4.5
 13
0.0
 23
0.0
 14
0.5
 24
0.5
 15
0.5
 25
0.5
 16
0.0
 26
0.0
 36
1.0
 17
0.0
 27
0.0
 37
0.0
 40
9.0
 41
1.972972972850329
 42
50.0
 43
0.0
 44
0.0
 50
0.0
 51
0.0
 71
     0
 72
   100
 73
     1
 74
     3
 75
     0
 76
     0
 77
     0
 78
     0
  0
ENDTAB
  0
TABLE
  2
LTYPE
 70
    51
  0
LTYPE
  2
CONTINUOUS
 70
     0
  3
Solid line
 72
    65
 73
     0
 40
0.0
  0
LTYPE
  2
ACAD_ISO10W100
 70
     0
  3
ISO dash dot __ . __ . __ . __ . __ . __ . __ . 
 72
    65
 73
     4
 40
18.0
 49
12.0
 49
-3.0
 49
0.0
 49
-3.0
  0
LTYPE
  2
ACAD_ISO13W100
 70
     0
  3
ISO double-dash double-dot __ __ . . __ __ . . _
 72
    65
 73
     8
 40
36.0
 49
12.0
 49
-3.0
 49
12.0
 49
-3.0
 49
0.0
 49
-3.0
 49
0.0
 49
-3.0
  0
LTYPE
  2
ACAD_ISO08W100
 70
     0
  3
ISO long-dash short-dash ____ __ ____ __ ____ _
 72
    65
 73
     4
 40
36.0
 49
24.0
 49
-3.0
 49
6.0
 49
-3.0
  0
LTYPE
  2
CENTER2
 70
     0
  3
Center (.5x) ___ _ ___ _ ___ _ ___ _ ___ _ ___
 72
    65
 73
     4
 40
28.575
 49
19.05
 49
-3.175
 49
3.175
 49
-3.175
  0
LTYPE
  2
CENTERX2
 70
     0
  3
Center (2x) ________  __  ________  __  _____
 72
    65
 73
     4
 40
101.6
 49
63.5
 49
-12.7
 49
12.7
 49
-12.7
  0
LTYPE
  2
DASHED2
 70
     0
  3
Dashed (.5x) _ _ _ _ _ _ _ _ _ _ _ _ _ _ _ _ _ 
 72
    65
 73
     2
 40
9.524999999999999
 49
6.35
 49
-3.175
  0
LTYPE
  2
ACAD_ISO07W100
 70
     0
  3
ISO dot . . . . . . . . . . . . . . . . . . . . 
 72
    65
 73
     2
 40
3.0
 49
0.0
 49
-3.0
  0
LTYPE
  2
DASHEDX2
 70
     0
  3
Dashed (2x) ____  ____  ____  ____  ____  ___
 72
    65
 73
     2
 40
38.09999999999999
 49
25.4
 49
-12.7
  0
LTYPE
  2
HIDDEN2
 70
     0
  3
Hidden (.5x) _ _ _ _ _ _ _ _ _ _ _ _ _ _ _ _ _ 
 72
    65
 73
     2
 40
4.762499999999999
 49
3.175
 49
-1.5875
  0
LTYPE
  2
BORDER2
 70
     0
  3
Border (.5x) __.__.__.__.__.__.__.__.__.__.__.
 72
    65
 73
     6
 40
22.225
 49
6.35
 49
-3.175
 49
6.35
 49
-3.175
 49
0.0
 49
-3.175
  0
LTYPE
  2
DASHDOT
 70
     0
  3
Dash dot __ . __ . __ . __ . __ . __ . __ . __
 72
    65
 73
     4
 40
25.4
 49
12.7
 49
-6.35
 49
0.0
 49
-6.35
  0
LTYPE
  2
HOT_WATER_SUPPLY
 70
     0
  3
Hot water supply ---- HW ---- HW ---- HW ----
 72
    65
 73
     3
 40
22.86
 49
12.7
 49
-5.08
 49
-5.08
  0
LTYPE
  2
ACAD_ISO14W100
 70
     0
  3
ISO dash triple-dot __ . . . __ . . . __ . . . _
 72
    65
 73
     8
 40
24.0
 49
12.0
 49
-3.0
 49
0.0
 49
-3.0
 49
0.0
 49
-3.0
 49
0.0
 49
-3.0
  0
LTYPE
  2
HIDDENX2
 70
     0
  3
Hidden (2x) ____ ____ ____ ____ ____ ____ ____ 
 72
    65
 73
     2
 40
19.05
 49
12.7
 49
-6.35
  0
LTYPE
  2
DIVIDEX2
 70
     0
  3
Divide (2x) ________  .  .  ________  .  .  _
 72
    65
 73
     6
 40
63.5
 49
25.4
 49
-12.7
 49
0.0
 49
-12.7
 49
0.0
 49
-12.7
  0
LTYPE
  2
ACAD_ISO12W100
 70
     0
  3
ISO dash double-dot __ . . __ . . __ . . __ . . 
 72
    65
 73
     6
 40
21.0
 49
12.0
 49
-3.0
 49
0.0
 49
-3.0
 49
0.0
 49
-3.0
  0
LTYPE
  2
ACAD_ISO02W100
 70
     0
  3
ISO dash __ __ __ __ __ __ __ __ __ __ __ __ __
 72
    65
 73
     2
 40
15.0
 49
12.0
 49
-3.0
  0
LTYPE
  2
DASHED
 70
     0
  3
Dashed __ __ __ __ __ __ __ __ __ __ __ __ __ _
 72
    65
 73
     2
 40
19.05
 49
12.7
 49
-6.35
  0
LTYPE
  2
BORDERX2
 70
     0
  3
Border (2x) ____  ____  .  ____  ____  .  ___
 72
    65
 73
     6
 40
88.89999999999999
 49
25.4
 49
-12.7
 49
25.4
 49
-12.7
 49
0.0
 49
-12.7
  0
LTYPE
  2
HIDDEN
 70
     0
  3
Hidden __ __ __ __ __ __ __ __ __ __ __ __ __ __
 72
    65
 73
     2
 40
9.524999999999999
 49
6.35
 49
-3.175
  0
LTYPE
  2
GAS_LINE
 70
     0
  3
Gas line ----GAS----GAS----GAS----GAS----GAS----GAS--
 72
    65
 73
     3
 40
24.13
 49
12.7
 49
-5.08
 49
-6.35
  0
LTYPE
  2
DIVIDE
 70
     0
  3
Divide ____ . . ____ . . ____ . . ____ . . ____
 72
    65
 73
     6
 40
31.75
 49
12.7
 49
-6.35
 49
0.0
 49
-6.35
 49
0.0
 49
-6.35
  0
LTYPE
  2
ACAD_ISO03W100
 70
     0
  3
ISO dash space __    __    __    __    __    __
 72
    65
 73
     2
 40
30.0
 49
12.0
 49
-18.0
  0
LTYPE
  2
ACAD_ISO15W100
 70
     0
  3
ISO double-dash triple-dot __ __ . . . __ __ . .
 72
    65
 73
    10
 40
39.0
 49
12.0
 49
-3.0
 49
12.0
 49
-3.0
 49
0.0
 49
-3.0
 49
0.0
 49
-3.0
 49
0.0
 49
-3.0
  0
LTYPE
  2
FENCELINE2
 70
     0
  3
Fenceline square ----[]-----[]----[]-----[]----[]---
 72
    65
 73
     4
 40
36.83
 49
6.35
 49
-2.54
 49
-2.54
 49
25.4
  0
LTYPE
  2
ACAD_ISO05W100
 70
     0
  3
ISO long-dash double-dot ____ .. ____ .. ____ . 
 72
    65
 73
     6
 40
33.0
 49
24.0
 49
-3.0
 49
0.0
 49
-3.0
 49
0.0
 49
-3.0
  0
LTYPE
  2
POINT1
 70
     0
  3
----/\-----/\---
 72
    65
 73
     2
 40
31.26232
 49
25.4
 49
-5.86232
  0
LTYPE
  2
DIVIDE2
 70
     0
  3
Divide (.5x) __..__..__..__..__..__..__..__.._
 72
    65
 73
     6
 40
15.875
 49
6.35
 49
-3.175
 49
0.0
 49
-3.175
 49
0.0
 49
-3.175
  0
LTYPE
  2
BATTING
 70
     0
  3
Batting SSSSSSSSSSSSSSSSSSSSSSSSSSSSSSSSSSSSSSSSSSSSSSS
 72
    65
 73
     4
 40
10.16254
 49
0.00254
 49
-2.54
 49
-5.08
 49
-2.54
  0
LTYPE
  2
DRAINAGE
 70
     0
  3
Drainage ---->---->---->----
 72
    65
 73
     2
 40
10.16
 49
5.08
 49
5.08
  0
LTYPE
  2
PHANTOM2
 70
     0
  3
Phantom (.5x) ___ _ _ ___ _ _ ___ _ _ ___ _ _
 72
    65
 73
     6
 40
31.75
 49
15.875
 49
-3.175
 49
3.175
 49
-3.175
 49
3.175
 49
-3.175
  0
LTYPE
  2
CENTER
 70
     0
  3
Center ____ _ ____ _ ____ _ ____ _ ____ _ ____
 72
    65
 73
     4
 40
50.8
 49
31.75
 49
-6.35
 49
6.35
 49
-6.35
  0
LTYPE
  2
FENCELINE1
 70
     0
  3
Fenceline circle ----0-----0----0-----0----0-----0--
 72
    65
 73
     4
 40
36.83
 49
6.35
 49
-2.54
 49
-2.54
 49
25.4
  0
LTYPE
  2
DOT2
 70
     0
  3
Dot (.5x) ........................................
 72
    65
 73
     2
 40
3.175
 49
0.0
 49
-3.175
  0
LTYPE
  2
TRACKS
 70
     0
  3
Tracks -|-|-|-|-|-|-|-|-|-|-|-|-|-|-|-|-|-|-|-|-|-|-|-|-
 72
    65
 73
     2
 40
7.62
 49
3.81
 49
3.81
  0
LTYPE
  2
BORDER
 70
     0
  3
Border __ __ . __ __ . __ __ . __ __ . __ __ .
 72
    65
 73
     6
 40
44.45
 49
12.7
 49
-6.35
 49
12.7
 49
-6.35
 49
0.0
 49
-6.35
  0
LTYPE
  2
DOT
 70
     0
  3
Dot . . . . . . . . . . . . . . . . . . . . . . . .
 72
    65
 73
     2
 40
6.35
 49
0.0
 49
-6.35
  0
LTYPE
  2
DRAINAGE2
 70
     0
  3
Drainage reversed----<----<----<----
 72
    65
 73
     2
 40
10.16
 49
5.08
 49
5.08
  0
LTYPE
  2
DOTX2
 70
     0
  3
Dot (2x) .  .  .  .  .  .  .  .  .  .  .  .  .  .
 72
    65
 73
     2
 40
12.7
 49
0.0
 49
-12.7
  0
LTYPE
  2
PLANT
 70
     0
  3
_/^ \_\^ \_
 72
    65
 73
     7
 40
21.94
 49
0.01
 49
-3.0
 49
-3.15
 49
-4.23
 49
-4.63
 49
-2.5
 49
-4.42
  0
LTYPE
  2
DASHDOTX2
 70
     0
  3
Dash dot (2x) ____  .  ____  .  ____  .  ___
 72
    65
 73
     4
 40
50.8
 49
25.4
 49
-12.7
 49
0.0
 49
-12.7
  0
LTYPE
  2
ACAD_ISO09W100
 70
     0
  3
ISO long-dash double-short-dash ____ __ __ ____
 72
    65
 73
     6
 40
45.0
 49
24.0
 49
-3.0
 49
6.0
 49
-3.0
 49
6.0
 49
-3.0
  0
LTYPE
  2
ZIGZAG
 70
     0
  3
Zig zag /\/\/\/\/\/\/\/\/\/\/\/\/\/\/\/\/\/\/\/\/\/\/\/
 72
    65
 73
     4
 40
20.32254
 49
0.00254
 49
-5.08
 49
-10.16
 49
-5.08
  0
LTYPE
  2
DASHDOT2
 70
     0
  3
Dash dot (.5x) _._._._._._._._._._._._._._._.
 72
    65
 73
     4
 40
12.7
 49
6.35
 49
-3.175
 49
0.0
 49
-3.175
  0
LTYPE
  2
ACAD_ISO04W100
 70
     0
  3
ISO long-dash dot ____ . ____ . ____ . ____ . _
 72
    65
 73
     4
 40
30.0
 49
24.0
 49
-3.0
 49
0.0
 49
-3.0
  0
LTYPE
  2
PHANTOM
 70
     0
  3
Phantom ______  __  __  ______  __  __  ______ 
 72
    65
 73
     6
 40
63.50000000000001
 49
31.75
 49
-6.35
 49
6.35
 49
-6.35
 49
6.35
 49
-6.35
  0
LTYPE
  2
ACAD_ISO06W100
 70
     0
  3
ISO long-dash triple-dot ____ ... ____ ... ____
 72
    65
 73
     8
 40
36.0
 49
24.0
 49
-3.0
 49
0.0
 49
-3.0
 49
0.0
 49
-3.0
 49
0.0
 49
-3.0
  0
LTYPE
  2
ACAD_ISO11W100
 70
     0
  3
ISO double-dash dot __ __ . __ __ . __ __ . __ _
 72
    65
 73
     6
 40
33.0
 49
12.0
 49
-3.0
 49
12.0
 49
-3.0
 49
0.0
 49
-3.0
  0
LTYPE
  2
POINT2
 70
     0
  3
----\/-----\/---
 72
    65
 73
     2
 40
31.26232
 49
25.4
 49
-5.86232
  0
LTYPE
  2
PHANTOMX2
 70
     0
  3
Phantom (2x) ____________    ____    ____   _
 72
    65
 73
     6
 40
127.0
 49
63.5
 49
-12.7
 49
12.7
 49
-12.7
 49
12.7
 49
-12.7
  0
ENDTAB
  0
TABLE
  2
LAYER
 70
     2
  0
LAYER
  2
0
 70
     0
 62
     7
  6
CONTINUOUS
  0
LAYER
  2
LAYER0
 70
     0
 62
     7
  6
CONTINUOUS
  0
ENDTAB
  0
TABLE
  2
STYLE
 70
     5
  0
STYLE
  2
STANDARD
 70
     0
 40
0.0
 41
1.0
 50
0.0
 71
     0
 42
0.2
  3
txt
  4

  0
STYLE
  2
QCADDIMTEXTSTYLE
 70
     0
 40
0.0
 41
1.0
 50
0.0
 71
     0
 42
0.2
  3
Academy Engraved LET Fonts.ttf
  4

  0
STYLE
  2
TEXTSTYLE0
 70
     0
 40
0.0
 41
1.0
 50
0.0
 71
     0
 42
0.2
  3
STANDARD
  4

  0
STYLE
  2
TEXTSTYLE1
 70
     0
 40
0.0
 41
1.0
 50
0.0
 71
     0
 42
0.2
  3
ltypeshp.shx
  4

  0
STYLE
  2
TEXTSTYLE2
 70
     0
 40
0.0
 41
1.0
 50
0.0
 71
     0
 42
0.2
  3
qcadshp.shx
  4

  0
ENDTAB
  0
TABLE
  2
VIEW
 70
     0
  0
ENDTAB
  0
TABLE
  2
UCS
 70
     0
  0
ENDTAB
  0
TABLE
  2
APPID
 70
     2
  0
APPID
  2
ACAD
 70
     0
  0
APPID
  2
QCAD
 70
     0
  0
ENDTAB
  0
TABLE
  2
DIMSTYLE
 70
     2
  0
DIMSTYLE
  2
STANDARD
 70
     0
  3

  4

  5

  6

  7

 40
1.0
 41
0.18
 42
0.0625
 43
0.38
 44
0.18
 45
0.0
 46
0.0
 47
0.0
 48
0.0
140
0.18
141
0.09
142
0.0
143
25.4
144
1.0
145
0.0
146
1.0
147
0.09
 71
     0
 72
     0
 73
     1
 74
     1
 75
     0
 76
     0
 77
     0
 78
     0
170
     0
171
     2
172
     0
173
     0
174
     0
175
     0
176
     0
177
     0
178
     0
  0
DIMSTYLE
  2
QCADDIMSTYLE
 70
     0
  3

  4

  5

  6

  7

 40
1.0
 41
2.5
 42
0.625
 43
5.0
 44
1.25
 45
0.0
 46
0.0
 47
0.0
 48
0.0
140
2.5
141
0.09
142
0.0
143
25.4
144
1.0
145
0.0
146
1.0
147
0.625
 71
     0
 72
     0
 73
     0
 74
     1
 75
     0
 76
     0
 77
     1
 78
     8
170
     0
171
     2
172
     0
173
     0
174
     0
175
     0
176
     0
177
     0
178
   256
  0
ENDTAB
  0
ENDSEC
  0
SECTION
  2
BLOCKS
  0
BLOCK
  8
0
  2
$MODEL_SPACE
 70
     0
 10
0.0
 20
0.0
 30
0.0
  3
$MODEL_SPACE
  1

  0
ENDBLK
  5
75
  8
0
  0
BLOCK
 67
     1
  8
0
  2
$PAPER_SPACE
 70
     0
 10
0.0
 20
0.0
 30
0.0
  3
$PAPER_SPACE
  1

  0
ENDBLK
  5
71
 67
     1
  8
0
  0
ENDSEC
  0
SECTION
  2
ENTITIES
  0
POLYLINE
  5
3D
  8
LAYER0
 66
     1
 10
0.0
 20
0.0
 30
0.0
 70
     1
  0
VERTEX
  5
128
  8
LAYER0
 10
-5.002785529249653
 20
128.4842965997805
 30
0.0
  0
VERTEX
  5
129
  8
LAYER0
 10
-5.00011204843182
 20
4.99988794780301
 30
0.0
 42
0.4102423598524818
  0
VERTEX
  5
12A
  8
LAYER0
 10
0.0000000000003642
 20
0.0
 30
0.0
  0
VERTEX
  5
12B
  8
LAYER0
 10
144.9999999271773
 20
0.0032494773048697
 30
0.0
 42
0.4057764962258873
  0
VERTEX
  5
12C
  8
LAYER0
 10
149.9998878737246
 20
5.003361526990972
 30
0.0
  0
VERTEX
  5
12D
  8
LAYER0
 10
149.9998878737247
 20
128.4877702388811
 30
0.0
  0
SEQEND
  5
18E
  8
LAYER0
  0
POLYLINE
  5
3E
  8
LAYER0
 66
     1
 10
0.0
 20
0.0
 30
0.0
 70
     1
  0
VERTEX
  5
12E
  8
LAYER0
 10
13.99721447060134
 20
112.971035616067
 30
0.0
 42
0.4142135623730951
  0
VERTEX
  5
12F
  8
LAYER0
 10
11.89721447060131
 20
110.8710356160671
 30
0.0
 42
0.4142135623730951
  0
VERTEX
  5
130
  8
LAYER0
 10
13.99721447060134
 20
108.7710356160669
 30
0.0
 42
0.4142135623730951
  0
VERTEX
  5
131
  8
LAYER0
 10
16.09721447060135
 20
110.8710356160671
 30
0.0
 42
0.4142135623730951
  0
SEQEND
  5
18F
  8
LAYER0
  0
POLYLINE
  5
3F
  8
LAYER0
 66
     1
 10
0.0
 20
0.0
 30
0.0
 70
     1
  0
VERTEX
  5
132
  8
LAYER0
 10
39.99721447017058
 20
112.9710356157791
 30
0.0
 42
0.4142135623730951
  0
VERTEX
  5
133
  8
LAYER0
 10
37.89721447017055
 20
110.8710356157792
 30
0.0
 42
0.4142135623730951
  0
VERTEX
  5
134
  8
LAYER0
 10
39.99721447017058
 20
108.7710356157793
 30
0.0
 42
0.4142135623730951
  0
VERTEX
  5
135
  8
LAYER0
 10
42.09721447017053
 20
110.8710356157792
 30
0.0
 42
0.4142135623730951
  0
SEQEND
  5
190
  8
LAYER0
  0
POLYLINE
  5
40
  8
LAYER0
 66
     1
 10
0.0
 20
0.0
 30
0.0
 70
     1
  0
VERTEX
  5
136
  8
LAYER0
 10
104.9972144713165
 20
52.9710356164762
 30
0.0
 42
0.4142135623730951
  0
VERTEX
  5
137
  8
LAYER0
 10
102.8972144713165
 20
50.87103561647629
 30
0.0
 42
0.4142135623730951
  0
VERTEX
  5
138
  8
LAYER0
 10
104.9972144713165
 20
48.77103561647615
 30
0.0
 42
0.4142135623730951
  0
VERTEX
  5
139
  8
LAYER0
 10
107.0972144713165
 20
50.87103561647629
 30
0.0
 42
0.4142135623730951
  0
SEQEND
  5
191
  8
LAYER0
  0
POLYLINE
  5
41
  8
LAYER0
 66
     1
 10
0.0
 20
0.0
 30
0.0
 70
     1
  0
VERTEX
  5
13A
  8
LAYER0
 10
130.9972144701333
 20
52.97103561587568
 30
0.0
 42
0.4142135623730951
  0
VERTEX
  5
13B
  8
LAYER0
 10
128.8972144701333
 20
50.87103561587551
 30
0.0
 42
0.4142135623730951
  0
VERTEX
  5
13C
  8
LAYER0
 10
130.9972144701333
 20
48.77103561587563
 30
0.0
 42
0.4142135623730951
  0
VERTEX
  5
13D
  8
LAYER0
 10
133.0972144701334
 20
50.87103561587551
 30
0.0
 42
0.4142135623730951
  0
SEQEND
  5
192
  8
LAYER0
  0
POLYLINE
  5
42
  8
LAYER0
 66
     1
 10
0.0
 20
0.0
 30
0.0
 70
     1
  0
VERTEX
  5
13E
  8
LAYER0
 10
104.9972144704052
 20
26.97103561601212
 30
0.0
 42
0.4142135623730951
  0
VERTEX
  5
13F
  8
LAYER0
 10
102.8972144704051
 20
24.87103561601221
 30
0.0
 42
0.4142135623730951
  0
VERTEX
  5
140
  8
LAYER0
 10
104.9972144704052
 20
22.77103561601207
 30
0.0
 42
0.4142135623730951
  0
VERTEX
  5
141
  8
LAYER0
 10
107.0972144704052
 20
24.87103561601221
 30
0.0
 42
0.4142135623730951
  0
SEQEND
  5
193
  8
LAYER0
  0
POLYLINE
  5
43
  8
LAYER0
 66
     1
 10
0.0
 20
0.0
 30
0.0
 70
     1
  0
VERTEX
  5
142
  8
LAYER0
 10
39.99721447057351
 20
52.97103561607648
 30
0.0
 42
0.4142135623730951
  0
VERTEX
  5
143
  8
LAYER0
 10
37.89721447057354
 20
50.87103561607634
 30
0.0
 42
0.4142135623730951
  0
VERTEX
  5
144
  8
LAYER0
 10
39.99721447057351
 20
48.7710356160762
 30
0.0
 42
0.4142135623730951
  0
VERTEX
  5
145
  8
LAYER0
 10
42.09721447057365
 20
50.87103561607634
 30
0.0
 42
0.4142135623730951
  0
SEQEND
  5
194
  8
LAYER0
  0
POLYLINE
  5
44
  8
LAYER0
 66
     1
 10
0.0
 20
0.0
 30
0.0
 70
     1
  0
VERTEX
  5
146
  8
LAYER0
 10
13.99721447038974
 20
52.97103561595824
 30
0.0
 42
0.4142135623730951
  0
VERTEX
  5
147
  8
LAYER0
 10
11.89721447038971
 20
50.87103561595811
 30
0.0
 42
0.4142135623730951
  0
VERTEX
  5
148
  8
LAYER0
 10
13.99721447038974
 20
48.77103561595797
 30
0.0
 42
0.4142135623730951
  0
VERTEX
  5
149
  8
LAYER0
 10
16.09721447038969
 20
50.87103561595811
 30
0.0
 42
0.4142135623730951
  0
SEQEND
  5
195
  8
LAYER0
  0
POLYLINE
  5
45
  8
LAYER0
 66
     1
 10
0.0
 20
0.0
 30
0.0
 70
     1
  0
VERTEX
  5
14A
  8
LAYER0
 10
39.9972144708036
 20
26.97103561619813
 30
0.0
 42
0.4142135623730951
  0
VERTEX
  5
14B
  8
LAYER0
 10
37.89721447080365
 20
24.87103561619799
 30
0.0
 42
0.4142135623730951
  0
VERTEX
  5
14C
  8
LAYER0
 10
39.9972144708036
 20
22.77103561619808
 30
0.0
 42
0.4142135623730951
  0
VERTEX
  5
14D
  8
LAYER0
 10
42.09721447080375
 20
24.87103561619799
 30
0.0
 42
0.4142135623730951
  0
SEQEND
  5
196
  8
LAYER0
  0
POLYLINE
  5
46
  8
LAYER0
 66
     1
 10
0.0
 20
0.0
 30
0.0
 70
     1
  0
VERTEX
  5
14E
  8
LAYER0
 10
39.99721447080252
 20
86.97103561620791
 30
0.0
 42
0.4142135623730951
  0
VERTEX
  5
14F
  8
LAYER0
 10
37.89721447080251
 20
84.87103561620782
 30
0.0
 42
0.4142135623730951
  0
VERTEX
  5
150
  8
LAYER0
 10
39.99721447080252
 20
82.77103561620788
 30
0.0
 42
0.4142135623730951
  0
VERTEX
  5
151
  8
LAYER0
 10
42.09721447080256
 20
84.87103561620782
 30
0.0
 42
0.4142135623730951
  0
SEQEND
  5
197
  8
LAYER0
  0
POLYLINE
  5
47
  8
LAYER0
 66
     1
 10
0.0
 20
0.0
 30
0.0
 70
     1
  0
VERTEX
  5
152
  8
LAYER0
 10
104.9972224012816
 20
112.9707262487408
 30
0.0
 42
0.4142135623730951
  0
VERTEX
  5
153
  8
LAYER0
 10
102.8972224012816
 20
110.8707262487407
 30
0.0
 42
0.4142135623730951
  0
VERTEX
  5
154
  8
LAYER0
 10
104.9972224012816
 20
108.7707262487408
 30
0.0
 42
0.4142135623730951
  0
VERTEX
  5
155
  8
LAYER0
 10
107.0972224012815
 20
110.8707262487407
 30
0.0
 42
0.4142135623730951
  0
SEQEND
  5
198
  8
LAYER0
  0
POLYLINE
  5
48
  8
LAYER0
 66
     1
 10
0.0
 20
0.0
 30
0.0
 70
     1
  0
VERTEX
  5
156
  8
LAYER0
 10
130.9972224008507
 20
112.970726248453
 30
0.0
 42
0.4142135623730951
  0
VERTEX
  5
157
  8
LAYER0
 10
128.8972224008508
 20
110.870726248453
 30
0.0
 42
0.4142135623730951
  0
VERTEX
  5
158
  8
LAYER0
 10
130.9972224008507
 20
108.7707262484529
 30
0.0
 42
0.4142135623730951
  0
VERTEX
  5
159
  8
LAYER0
 10
133.0972224008509
 20
110.870726248453
 30
0.0
 42
0.4142135623730951
  0
SEQEND
  5
199
  8
LAYER0
  0
POLYLINE
  5
49
  8
LAYER0
 66
     1
 10
0.0
 20
0.0
 30
0.0
 70
     1
  0
VERTEX
  5
15A
  8
LAYER0
 10
104.9972224022678
 20
86.97072624941481
 30
0.0
 42
0.4142135623730951
  0
VERTEX
  5
15B
  8
LAYER0
 10
102.8972224022678
 20
84.87072624941462
 30
0.0
 42
0.4142135623730951
  0
VERTEX
  5
15C
  8
LAYER0
 10
104.9972224022678
 20
82.77072624941474
 30
0.0
 42
0.4142135623730951
  0
VERTEX
  5
15D
  8
LAYER0
 10
107.0972224022679
 20
84.87072624941462
 30
0.0
 42
0.4142135623730951
  0
SEQEND
  5
19A
  8
LAYER0
  0
POLYLINE
  5
4A
  8
LAYER0
 66
     1
 10
0.0
 20
0.0
 30
0.0
 70
     1
  0
VERTEX
  5
15E
  8
LAYER0
 10
62.49721447139505
 20
13.00162268720284
 30
0.0
 42
0.4142135623730951
  0
VERTEX
  5
15F
  8
LAYER0
 10
59.49721447139504
 20
10.00162268720285
 30
0.0
 42
0.4142135623730951
  0
VERTEX
  5
160
  8
LAYER0
 10
62.49721447139505
 20
7.001622687202861
 30
0.0
 42
0.4142135623730951
  0
VERTEX
  5
161
  8
LAYER0
 10
65.49721447139507
 20
10.00162268720285
 30
0.0
 42
0.4142135623730951
  0
SEQEND
  5
19B
  8
LAYER0
  0
POLYLINE
  5
4B
  8
LAYER0
 66
     1
 10
0.0
 20
0.0
 30
0.0
 70
     1
  0
VERTEX
  5
162
  8
LAYER0
 10
82.49721447071498
 20
13.00162268687619
 30
0.0
 42
0.4142135623730951
  0
VERTEX
  5
163
  8
LAYER0
 10
79.49721447071497
 20
10.0016226868762
 30
0.0
 42
0.4142135623730951
  0
VERTEX
  5
164
  8
LAYER0
 10
82.49721447071498
 20
7.00162268687621
 30
0.0
 42
0.4142135623730951
  0
VERTEX
  5
165
  8
LAYER0
 10
85.497214470715
 20
10.0016226868762
 30
0.0
 42
0.4142135623730951
  0
SEQEND
  5
19C
  8
LAYER0
  0
POLYLINE
  5
4C
  8
LAYER0
 66
     1
 10
0.0
 20
0.0
 30
0.0
 70
     1
  0
VERTEX
  5
166
  8
LAYER0
 10
145.4946577107207
 20
18.16763799041425
 30
0.0
 42
0.4142135623730951
  0
VERTEX
  5
167
  8
LAYER0
 10
142.9946577107207
 20
15.66763799041428
 30
0.0
 42
0.4142135623730951
  0
VERTEX
  5
168
  8
LAYER0
 10
145.4946577107207
 20
13.1676379904143
 30
0.0
 42
0.4142135623730951
  0
VERTEX
  5
169
  8
LAYER0
 10
147.9946577107207
 20
15.66763799041428
 30
0.0
 42
0.4142135623730951
  0
SEQEND
  5
19D
  8
LAYER0
  0
POLYLINE
  5
4D
  8
LAYER0
 66
     1
 10
0.0
 20
0.0
 30
0.0
 70
     1
  0
VERTEX
  5
16A
  8
LAYER0
 10
145.4958790651752
 20
72.66763797788172
 30
0.0
 42
0.4142135623730951
  0
VERTEX
  5
16B
  8
LAYER0
 10
142.9958790651753
 20
70.16763797788175
 30
0.0
 42
0.4142135623730951
  0
VERTEX
  5
16C
  8
LAYER0
 10
145.4958790651752
 20
67.66763797788175
 30
0.0
 42
0.4142135623730951
  0
VERTEX
  5
16D
  8
LAYER0
 10
147.9958790651752
 20
70.16763797788175
 30
0.0
 42
0.4142135623730951
  0
SEQEND
  5
19E
  8
LAYER0
  0
POLYLINE
  5
4E
  8
LAYER0
 66
     1
 10
0.0
 20
0.0
 30
0.0
 70
     1
  0
VERTEX
  5
16E
  8
LAYER0
 10
-0.5041208615724955
 20
72.67090986637254
 30
0.0
 42
0.4142135623730951
  0
VERTEX
  5
16F
  8
LAYER0
 10
-3.004120861572495
 20
70.17090986637257
 30
0.0
 42
0.4142135623730951
  0
VERTEX
  5
170
  8
LAYER0
 10
-0.5041208615724955
 20
67.67090986637257
 30
0.0
 42
0.4142135623730951
  0
VERTEX
  5
171
  8
LAYER0
 10
1.995879138427483
 20
70.17090986637257
 30
0.0
 42
0.4142135623730951
  0
SEQEND
  5
19F
  8
LAYER0
  0
POLYLINE
  5
4F
  8
LAYER0
 66
     1
 10
0.0
 20
0.0
 30
0.0
 70
     1
  0
VERTEX
  5
172
  8
LAYER0
 10
-0.5053422165509662
 20
18.17090987942612
 30
0.0
 42
0.4142135623730951
  0
VERTEX
  5
173
  8
LAYER0
 10
-3.005342216550966
 20
15.67090987942614
 30
0.0
 42
0.4142135623730951
  0
VERTEX
  5
174
  8
LAYER0
 10
-0.5053422165509662
 20
13.17090987942617
 30
0.0
 42
0.4142135623730951
  0
VERTEX
  5
175
  8
LAYER0
 10
1.994657783449014
 20
15.67090987942614
 30
0.0
 42
0.4142135623730951
  0
SEQEND
  5
1A0
  8
LAYER0
  0
POLYLINE
  5
50
  8
LAYER0
 66
     1
 10
0.0
 20
0.0
 30
0.0
 70
     1
  0
VERTEX
  5
176
  8
LAYER0
 10
145.502670558121
 20
122.1878673876557
 30
0.0
 42
0.4142135623730951
  0
VERTEX
  5
177
  8
LAYER0
 10
143.002670558121
 20
119.6878673876557
 30
0.0
 42
0.4142135623730951
  0
VERTEX
  5
178
  8
LAYER0
 10
145.502670558121
 20
117.1878673876557
 30
0.0
 42
0.4142135623730951
  0
VERTEX
  5
179
  8
LAYER0
 10
148.002670558121
 20
119.6878673876557
 30
0.0
 42
0.4142135623730951
  0
SEQEND
  5
1A1
  8
LAYER0
  0
POLYLINE
  5
51
  8
LAYER0
 66
     1
 10
0.0
 20
0.0
 30
0.0
 70
     1
  0
VERTEX
  5
17A
  8
LAYER0
 10
-0.4973293677972261
 20
122.1911392731938
 30
0.0
 42
0.4142135623730951
  0
VERTEX
  5
17B
  8
LAYER0
 10
-2.997329367797226
 20
119.6911392731938
 30
0.0
 42
0.4142135623730951
  0
VERTEX
  5
17C
  8
LAYER0
 10
-0.4973293677972261
 20
117.1911392731938
 30
0.0
 42
0.4142135623730951
  0
VERTEX
  5
17D
  8
LAYER0
 10
2.002670632202776
 20
119.6911392731938
 30
0.0
 42
0.4142135623730951
  0
SEQEND
  5
1A2
  8
LAYER0
  0
POLYLINE
  5
52
  8
LAYER0
 66
     1
 10
0.0
 20
0.0
 30
0.0
 70
     1
  0
VERTEX
  5
17E
  8
LAYER0
 10
19.00175424357797
 20
81.08588062971086
 30
0.0
 42
0.4142135623730951
  0
VERTEX
  5
17F
  8
LAYER0
 10
14.50175424357797
 20
76.58588062971086
 30
0.0
 42
0.4142135623730951
  0
VERTEX
  5
180
  8
LAYER0
 10
19.00175424357797
 20
72.08588062971086
 30
0.0
 42
0.4142135623730951
  0
VERTEX
  5
181
  8
LAYER0
 10
23.50175424357797
 20
76.58588062971086
 30
0.0
 42
0.4142135623730951
  0
SEQEND
  5
1A3
  8
LAYER0
  0
POLYLINE
  5
53
  8
LAYER0
 66
     1
 10
0.0
 20
0.0
 30
0.0
 70
     1
  0
VERTEX
  5
182
  8
LAYER0
 10
126.0017541928433
 20
81.0834827333433
 30
0.0
 42
0.4142135623730951
  0
VERTEX
  5
183
  8
LAYER0
 10
121.5017541928433
 20
76.5834827333433
 30
0.0
 42
0.4142135623730951
  0
VERTEX
  5
184
  8
LAYER0
 10
126.0017541928433
 20
72.0834827333433
 30
0.0
 42
0.4142135623730951
  0
VERTEX
  5
185
  8
LAYER0
 10
130.5017541928433
 20
76.5834827333433
 30
0.0
 42
0.4142135623730951
  0
SEQEND
  5
1A4
  8
LAYER0
  0
POLYLINE
  5
54
  8
LAYER0
 66
     1
 10
0.0
 20
0.0
 30
0.0
 70
     1
  0
VERTEX
  5
186
  8
LAYER0
 10
126.0004095819206
 20
21.08348274901777
 30
0.0
 42
0.4142135623730951
  0
VERTEX
  5
187
  8
LAYER0
 10
121.5004095819206
 20
16.58348274901778
 30
0.0
 42
0.4142135623730951
  0
VERTEX
  5
188
  8
LAYER0
 10
126.0004095819206
 20
12.08348274901779
 30
0.0
 42
0.4142135623730951
  0
VERTEX
  5
189
  8
LAYER0
 10
130.5004095819206
 20
16.58348274901778
 30
0.0
 42
0.4142135623730951
  0
SEQEND
  5
1A5
  8
LAYER0
  0
POLYLINE
  5
55
  8
LAYER0
 66
     1
 10
0.0
 20
0.0
 30
0.0
 70
     1
  0
VERTEX
  5
18A
  8
LAYER0
 10
19.00040963448228
 20
21.08588063999228
 30
0.0
 42
0.4142135623730951
  0
VERTEX
  5
18B
  8
LAYER0
 10
14.50040963448227
 20
16.58588063999229
 30
0.0
 42
0.4142135623730951
  0
VERTEX
  5
18C
  8
LAYER0
 10
19.00040963448228
 20
12.08588063999229
 30
0.0
 42
0.4142135623730951
  0
VERTEX
  5
18D
  8
LAYER0
 10
23.50040963448228
 20
16.58588063999229
 30
0.0
 42
0.4142135623730951
  0
SEQEND
  5
1A6
  8
LAYER0
  0
VIEWPORT
  5
11F
 67
     1
  8
0
 10
128.5
 20
97.5
 30
0.0
 40
314.226
 41
222.18
 68
     1
 69
     1
1001
ACAD
1000
MVIEW
1002
{
1070
    16
1010
0.0
1020
0.0
1030
0.0
1010
0.0
1020
0.0
1030
1.0
1040
0.0
1040
222.18
1040
128.5
1040
97.5
1040
50.0
1040
0.0
1040
0.0
1070
     0
1070
   100
1070
     0
1070
     3
1070
     0
1070
     0
1070
     0
1070
     0
1040
0.0
1040
0.0
1040
0.0
1040
10.0
1040
10.0
1040
10.0
1040
10.0
1070
     0
1002
{
1002
}
1002
}
  0
ENDSEC
  0
EOF
