  0
SECTION
  2
HEADER
  9
$ACADVER
  1
AC1009
  9
$DWGCODEPAGE
  3
ansi_1252
  9
$INSBASE
 10
0.0
 20
0.0
 30
0.0
  9
$EXTMIN
 10
-67.0322749724329
 20
-0.0081308107425855
 30
0.0
  9
$EXTMAX
 10
205.6372098725973
 20
325.4018323896392
 30
0.0
  9
$LIMMIN
 10
0.0
 20
0.0
  9
$LIMMAX
 10
12.0
 20
9.0
  9
$ORTHOMODE
 70
     0
  9
$REGENMODE
 70
     1
  9
$FILLMODE
 70
     1
  9
$QTEXTMODE
 70
     0
  9
$MIRRTEXT
 70
     0
  9
$DRAGMODE
 70
     2
  9
$LTSCALE
 40
1.0
  9
$OSMODE
 70
    37
  9
$ATTMODE
 70
     1
  9
$TEXTSIZE
 40
0.2
  9
$TRACEWID
 40
0.05
  9
$TEXTSTYLE
  7
STANDARD
  9
$CLAYER
  8
0
  9
$CELTYPE
  6
BYLAYER
  9
$CECOLOR
 62
   256
  9
$DIMSCALE
 40
1.0
  9
$DIMASZ
 40
2.5
  9
$DIMEXO
 40
0.625
  9
$DIMDLI
 40
5.0
  9
$DIMRND
 40
0.0
  9
$DIMDLE
 40
0.0
  9
$DIMEXE
 40
1.25
  9
$DIMTP
 40
0.0
  9
$DIMTM
 40
0.0
  9
$DIMTXT
 40
2.5
  9
$DIMCEN
 40
0.09
  9
$DIMTSZ
 40
0.0
  9
$DIMTOL
 70
     0
  9
$DIMLIM
 70
     0
  9
$DIMTIH
 70
     0
  9
$DIMTOH
 70
     1
  9
$DIMSE1
 70
     0
  9
$DIMSE2
 70
     0
  9
$DIMTAD
 70
     1
  9
$DIMZIN
 70
     8
  9
$DIMBLK
  1

  9
$DIMASO
 70
     1
  9
$DIMSHO
 70
     1
  9
$DIMPOST
  1

  9
$DIMAPOST
  1

  9
$DIMALT
 70
     0
  9
$DIMALTD
 70
     2
  9
$DIMALTF
 40
25.4
  9
$DIMLFAC
 40
1.0
  9
$DIMTOFL
 70
     0
  9
$DIMTVP
 40
0.0
  9
$DIMTIX
 70
     0
  9
$DIMSOXD
 70
     0
  9
$DIMSAH
 70
     0
  9
$DIMBLK1
  1

  9
$DIMBLK2
  1

  9
$DIMSTYLE
  2
STANDARD
  9
$DIMCLRD
 70
     0
  9
$DIMCLRE
 70
     0
  9
$DIMCLRT
 70
   256
  9
$DIMTFAC
 40
1.0
  9
$DIMGAP
 40
0.625
  9
$LUNITS
 70
     2
  9
$LUPREC
 70
     4
  9
$SKETCHINC
 40
0.1
  9
$FILLETRAD
 40
0.0
  9
$AUNITS
 70
     0
  9
$AUPREC
 70
     0
  9
$MENU
  1
.
  9
$ELEVATION
 40
0.0
  9
$PELEVATION
 40
0.0
  9
$THICKNESS
 40
0.0
  9
$LIMCHECK
 70
     0
  9
$CHAMFERA
 40
0.0
  9
$CHAMFERB
 40
0.0
  9
$SKPOLY
 70
     0
  9
$TDCREATE
 40
2461300.44019309
  9
$TDUPDATE
 40
2461300.440193206
  9
$TDINDWG
 40
0.0000000116
  9
$TDUSRTIMER
 40
0.0000000116
  9
$USRTIMER
 70
     1
  9
$ANGBASE
 50
0.0
  9
$ANGDIR
 70
     0
  9
$PDMODE
 70
     0
  9
$PDSIZE
 40
0.0
  9
$PLINEWID
 40
0.0
  9
$COORDS
 70
     1
  9
$SPLFRAME
 70
     0
  9
$SPLINETYPE
 70
     6
  9
$SPLINESEGS
 70
     8
  9
$ATTDIA
 70
     0
  9
$ATTREQ
 70
     1
  9
$HANDLING
 70
     1
  9
$HANDSEED
  5
232
  9
$SURFTAB1
 70
     6
  9
$SURFTAB2
 70
     6
  9
$SURFTYPE
 70
     6
  9
$SURFU
 70
     6
  9
$SURFV
 70
     6
  9
$UCSNAME
  2

  9
$UCSORG
 10
0.0
 20
0.0
 30
0.0
  9
$UCSXDIR
 10
1.0
 20
0.0
 30
0.0
  9
$UCSYDIR
 10
0.0
 20
1.0
 30
0.0
  9
$PUCSNAME
  2

  9
$PUCSORG
 10
0.0
 20
0.0
 30
0.0
  9
$PUCSXDIR
 10
1.0
 20
0.0
 30
0.0
  9
$PUCSYDIR
 10
0.0
 20
1.0
 30
0.0
  9
$USERI1
 70
     0
  9
$USERI2
 70
     0
  9
$USERI3
 70
     0
  9
$USERI4
 70
     0
  9
$USERI5
 70
     0
  9
$USERR1
 40
0.0
  9
$USERR2
 40
0.0
  9
$USERR3
 40
0.0
  9
$USERR4
 40
0.0
  9
$USERR5
 40
0.0
  9
$WORLDVIEW
 70
     1
  9
$SHADEDGE
 70
     3
  9
$SHADEDIF
 70
    70
  9
$TILEMODE
 70
     1
  9
$MAXACTVP
 70
    64
  9
$PLIMCHECK
 70
     0
  9
$PEXTMIN
 10
0.0
 20
0.0
 30
0.0
  9
$PEXTMAX
 10
0.0
 20
0.0
 30
0.0
  9
$PLIMMIN
 10
-20.0
 20
-7.5
  9
$PLIMMAX
 10
277.0
 20
202.5
  9
$UNITMODE
 70
     0
  9
$VISRETAIN
 70
     1
  9
$PLINEGEN
 70
     0
  9
$PSLTSCALE
 70
     1
  0
ENDSEC
  0
SECTION
  2
TABLES
  0
TABLE
  2
VPORT
 70
     1
  0
VPORT
  2
*ACTIVE
 70
     0
 10
0.0
 20
0.0
 11
1.0
 21
1.0
 12
10.42990654205607
 22
4.5
 13
0.0
 23
0.0
 14
0.5
 24
0.5
 15
0.5
 25
0.5
 16
0.0
 26
0.0
 36
1.0
 17
0.0
 27
0.0
 37
0.0
 40
9.0
 41
1.972972972850329
 42
50.0
 43
0.0
 44
0.0
 50
0.0
 51
0.0
 71
     0
 72
   100
 73
     1
 74
     3
 75
     0
 76
     0
 77
     0
 78
     0
  0
ENDTAB
  0
TABLE
  2
LTYPE
 70
    51
  0
LTYPE
  2
CONTINUOUS
 70
     0
  3
Solid line
 72
    65
 73
     0
 40
0.0
  0
LTYPE
  2
ACAD_ISO10W100
 70
     0
  3
ISO dash dot __ . __ . __ . __ . __ . __ . __ . 
 72
    65
 73
     4
 40
18.0
 49
12.0
 49
-3.0
 49
0.0
 49
-3.0
  0
LTYPE
  2
ACAD_ISO13W100
 70
     0
  3
ISO double-dash double-dot __ __ . . __ __ . . _
 72
    65
 73
     8
 40
36.0
 49
12.0
 49
-3.0
 49
12.0
 49
-3.0
 49
0.0
 49
-3.0
 49
0.0
 49
-3.0
  0
LTYPE
  2
ACAD_ISO08W100
 70
     0
  3
ISO long-dash short-dash ____ __ ____ __ ____ _
 72
    65
 73
     4
 40
36.0
 49
24.0
 49
-3.0
 49
6.0
 49
-3.0
  0
LTYPE
  2
CENTER2
 70
     0
  3
Center (.5x) ___ _ ___ _ ___ _ ___ _ ___ _ ___
 72
    65
 73
     4
 40
28.575
 49
19.05
 49
-3.175
 49
3.175
 49
-3.175
  0
LTYPE
  2
CENTERX2
 70
     0
  3
Center (2x) ________  __  ________  __  _____
 72
    65
 73
     4
 40
101.6
 49
63.5
 49
-12.7
 49
12.7
 49
-12.7
  0
LTYPE
  2
DASHED2
 70
     0
  3
Dashed (.5x) _ _ _ _ _ _ _ _ _ _ _ _ _ _ _ _ _ 
 72
    65
 73
     2
 40
9.524999999999999
 49
6.35
 49
-3.175
  0
LTYPE
  2
ACAD_ISO07W100
 70
     0
  3
ISO dot . . . . . . . . . . . . . . . . . . . . 
 72
    65
 73
     2
 40
3.0
 49
0.0
 49
-3.0
  0
LTYPE
  2
DASHEDX2
 70
     0
  3
Dashed (2x) ____  ____  ____  ____  ____  ___
 72
    65
 73
     2
 40
38.09999999999999
 49
25.4
 49
-12.7
  0
LTYPE
  2
HIDDEN2
 70
     0
  3
Hidden (.5x) _ _ _ _ _ _ _ _ _ _ _ _ _ _ _ _ _ 
 72
    65
 73
     2
 40
4.762499999999999
 49
3.175
 49
-1.5875
  0
LTYPE
  2
BORDER2
 70
     0
  3
Border (.5x) __.__.__.__.__.__.__.__.__.__.__.
 72
    65
 73
     6
 40
22.225
 49
6.35
 49
-3.175
 49
6.35
 49
-3.175
 49
0.0
 49
-3.175
  0
LTYPE
  2
DASHDOT
 70
     0
  3
Dash dot __ . __ . __ . __ . __ . __ . __ . __
 72
    65
 73
     4
 40
25.4
 49
12.7
 49
-6.35
 49
0.0
 49
-6.35
  0
LTYPE
  2
HOT_WATER_SUPPLY
 70
     0
  3
Hot water supply ---- HW ---- HW ---- HW ----
 72
    65
 73
     3
 40
22.86
 49
12.7
 49
-5.08
 49
-5.08
  0
LTYPE
  2
ACAD_ISO14W100
 70
     0
  3
ISO dash triple-dot __ . . . __ . . . __ . . . _
 72
    65
 73
     8
 40
24.0
 49
12.0
 49
-3.0
 49
0.0
 49
-3.0
 49
0.0
 49
-3.0
 49
0.0
 49
-3.0
  0
LTYPE
  2
HIDDENX2
 70
     0
  3
Hidden (2x) ____ ____ ____ ____ ____ ____ ____ 
 72
    65
 73
     2
 40
19.05
 49
12.7
 49
-6.35
  0
LTYPE
  2
DIVIDEX2
 70
     0
  3
Divide (2x) ________  .  .  ________  .  .  _
 72
    65
 73
     6
 40
63.5
 49
25.4
 49
-12.7
 49
0.0
 49
-12.7
 49
0.0
 49
-12.7
  0
LTYPE
  2
ACAD_ISO12W100
 70
     0
  3
ISO dash double-dot __ . . __ . . __ . . __ . . 
 72
    65
 73
     6
 40
21.0
 49
12.0
 49
-3.0
 49
0.0
 49
-3.0
 49
0.0
 49
-3.0
  0
LTYPE
  2
ACAD_ISO02W100
 70
     0
  3
ISO dash __ __ __ __ __ __ __ __ __ __ __ __ __
 72
    65
 73
     2
 40
15.0
 49
12.0
 49
-3.0
  0
LTYPE
  2
DASHED
 70
     0
  3
Dashed __ __ __ __ __ __ __ __ __ __ __ __ __ _
 72
    65
 73
     2
 40
19.05
 49
12.7
 49
-6.35
  0
LTYPE
  2
BORDERX2
 70
     0
  3
Border (2x) ____  ____  .  ____  ____  .  ___
 72
    65
 73
     6
 40
88.89999999999999
 49
25.4
 49
-12.7
 49
25.4
 49
-12.7
 49
0.0
 49
-12.7
  0
LTYPE
  2
HIDDEN
 70
     0
  3
Hidden __ __ __ __ __ __ __ __ __ __ __ __ __ __
 72
    65
 73
     2
 40
9.524999999999999
 49
6.35
 49
-3.175
  0
LTYPE
  2
GAS_LINE
 70
     0
  3
Gas line ----GAS----GAS----GAS----GAS----GAS----GAS--
 72
    65
 73
     3
 40
24.13
 49
12.7
 49
-5.08
 49
-6.35
  0
LTYPE
  2
DIVIDE
 70
     0
  3
Divide ____ . . ____ . . ____ . . ____ . . ____
 72
    65
 73
     6
 40
31.75
 49
12.7
 49
-6.35
 49
0.0
 49
-6.35
 49
0.0
 49
-6.35
  0
LTYPE
  2
ACAD_ISO03W100
 70
     0
  3
ISO dash space __    __    __    __    __    __
 72
    65
 73
     2
 40
30.0
 49
12.0
 49
-18.0
  0
LTYPE
  2
ACAD_ISO15W100
 70
     0
  3
ISO double-dash triple-dot __ __ . . . __ __ . .
 72
    65
 73
    10
 40
39.0
 49
12.0
 49
-3.0
 49
12.0
 49
-3.0
 49
0.0
 49
-3.0
 49
0.0
 49
-3.0
 49
0.0
 49
-3.0
  0
LTYPE
  2
FENCELINE2
 70
     0
  3
Fenceline square ----[]-----[]----[]-----[]----[]---
 72
    65
 73
     4
 40
36.83
 49
6.35
 49
-2.54
 49
-2.54
 49
25.4
  0
LTYPE
  2
ACAD_ISO05W100
 70
     0
  3
ISO long-dash double-dot ____ .. ____ .. ____ . 
 72
    65
 73
     6
 40
33.0
 49
24.0
 49
-3.0
 49
0.0
 49
-3.0
 49
0.0
 49
-3.0
  0
LTYPE
  2
POINT1
 70
     0
  3
----/\-----/\---
 72
    65
 73
     2
 40
31.26232
 49
25.4
 49
-5.86232
  0
LTYPE
  2
DIVIDE2
 70
     0
  3
Divide (.5x) __..__..__..__..__..__..__..__.._
 72
    65
 73
     6
 40
15.875
 49
6.35
 49
-3.175
 49
0.0
 49
-3.175
 49
0.0
 49
-3.175
  0
LTYPE
  2
BATTING
 70
     0
  3
Batting SSSSSSSSSSSSSSSSSSSSSSSSSSSSSSSSSSSSSSSSSSSSSSS
 72
    65
 73
     4
 40
10.16254
 49
0.00254
 49
-2.54
 49
-5.08
 49
-2.54
  0
LTYPE
  2
DRAINAGE
 70
     0
  3
Drainage ---->---->---->----
 72
    65
 73
     2
 40
10.16
 49
5.08
 49
5.08
  0
LTYPE
  2
PHANTOM2
 70
     0
  3
Phantom (.5x) ___ _ _ ___ _ _ ___ _ _ ___ _ _
 72
    65
 73
     6
 40
31.75
 49
15.875
 49
-3.175
 49
3.175
 49
-3.175
 49
3.175
 49
-3.175
  0
LTYPE
  2
CENTER
 70
     0
  3
Center ____ _ ____ _ ____ _ ____ _ ____ _ ____
 72
    65
 73
     4
 40
50.8
 49
31.75
 49
-6.35
 49
6.35
 49
-6.35
  0
LTYPE
  2
FENCELINE1
 70
     0
  3
Fenceline circle ----0-----0----0-----0----0-----0--
 72
    65
 73
     4
 40
36.83
 49
6.35
 49
-2.54
 49
-2.54
 49
25.4
  0
LTYPE
  2
DOT2
 70
     0
  3
Dot (.5x) ........................................
 72
    65
 73
     2
 40
3.175
 49
0.0
 49
-3.175
  0
LTYPE
  2
TRACKS
 70
     0
  3
Tracks -|-|-|-|-|-|-|-|-|-|-|-|-|-|-|-|-|-|-|-|-|-|-|-|-
 72
    65
 73
     2
 40
7.62
 49
3.81
 49
3.81
  0
LTYPE
  2
BORDER
 70
     0
  3
Border __ __ . __ __ . __ __ . __ __ . __ __ .
 72
    65
 73
     6
 40
44.45
 49
12.7
 49
-6.35
 49
12.7
 49
-6.35
 49
0.0
 49
-6.35
  0
LTYPE
  2
DOT
 70
     0
  3
Dot . . . . . . . . . . . . . . . . . . . . . . . .
 72
    65
 73
     2
 40
6.35
 49
0.0
 49
-6.35
  0
LTYPE
  2
DRAINAGE2
 70
     0
  3
Drainage reversed----<----<----<----
 72
    65
 73
     2
 40
10.16
 49
5.08
 49
5.08
  0
LTYPE
  2
DOTX2
 70
     0
  3
Dot (2x) .  .  .  .  .  .  .  .  .  .  .  .  .  .
 72
    65
 73
     2
 40
12.7
 49
0.0
 49
-12.7
  0
LTYPE
  2
PLANT
 70
     0
  3
_/^ \_\^ \_
 72
    65
 73
     7
 40
21.94
 49
0.01
 49
-3.0
 49
-3.15
 49
-4.23
 49
-4.63
 49
-2.5
 49
-4.42
  0
LTYPE
  2
DASHDOTX2
 70
     0
  3
Dash dot (2x) ____  .  ____  .  ____  .  ___
 72
    65
 73
     4
 40
50.8
 49
25.4
 49
-12.7
 49
0.0
 49
-12.7
  0
LTYPE
  2
ACAD_ISO09W100
 70
     0
  3
ISO long-dash double-short-dash ____ __ __ ____
 72
    65
 73
     6
 40
45.0
 49
24.0
 49
-3.0
 49
6.0
 49
-3.0
 49
6.0
 49
-3.0
  0
LTYPE
  2
ZIGZAG
 70
     0
  3
Zig zag /\/\/\/\/\/\/\/\/\/\/\/\/\/\/\/\/\/\/\/\/\/\/\/
 72
    65
 73
     4
 40
20.32254
 49
0.00254
 49
-5.08
 49
-10.16
 49
-5.08
  0
LTYPE
  2
DASHDOT2
 70
     0
  3
Dash dot (.5x) _._._._._._._._._._._._._._._.
 72
    65
 73
     4
 40
12.7
 49
6.35
 49
-3.175
 49
0.0
 49
-3.175
  0
LTYPE
  2
ACAD_ISO04W100
 70
     0
  3
ISO long-dash dot ____ . ____ . ____ . ____ . _
 72
    65
 73
     4
 40
30.0
 49
24.0
 49
-3.0
 49
0.0
 49
-3.0
  0
LTYPE
  2
PHANTOM
 70
     0
  3
Phantom ______  __  __  ______  __  __  ______ 
 72
    65
 73
     6
 40
63.50000000000001
 49
31.75
 49
-6.35
 49
6.35
 49
-6.35
 49
6.35
 49
-6.35
  0
LTYPE
  2
ACAD_ISO06W100
 70
     0
  3
ISO long-dash triple-dot ____ ... ____ ... ____
 72
    65
 73
     8
 40
36.0
 49
24.0
 49
-3.0
 49
0.0
 49
-3.0
 49
0.0
 49
-3.0
 49
0.0
 49
-3.0
  0
LTYPE
  2
ACAD_ISO11W100
 70
     0
  3
ISO double-dash dot __ __ . __ __ . __ __ . __ _
 72
    65
 73
     6
 40
33.0
 49
12.0
 49
-3.0
 49
12.0
 49
-3.0
 49
0.0
 49
-3.0
  0
LTYPE
  2
POINT2
 70
     0
  3
----\/-----\/---
 72
    65
 73
     2
 40
31.26232
 49
25.4
 49
-5.86232
  0
LTYPE
  2
PHANTOMX2
 70
     0
  3
Phantom (2x) ____________    ____    ____   _
 72
    65
 73
     6
 40
127.0
 49
63.5
 49
-12.7
 49
12.7
 49
-12.7
 49
12.7
 49
-12.7
  0
ENDTAB
  0
TABLE
  2
LAYER
 70
     2
  0
LAYER
  2
0
 70
     0
 62
     7
  6
CONTINUOUS
  0
LAYER
  2
LAYER0
 70
     0
 62
     7
  6
CONTINUOUS
  0
ENDTAB
  0
TABLE
  2
STYLE
 70
     5
  0
STYLE
  2
STANDARD
 70
     0
 40
0.0
 41
1.0
 50
0.0
 71
     0
 42
0.2
  3
txt
  4

  0
STYLE
  2
QCADDIMTEXTSTYLE
 70
     0
 40
0.0
 41
1.0
 50
0.0
 71
     0
 42
0.2
  3
Academy Engraved LET Fonts.ttf
  4

  0
STYLE
  2
TEXTSTYLE0
 70
     0
 40
0.0
 41
1.0
 50
0.0
 71
     0
 42
0.2
  3
STANDARD
  4

  0
STYLE
  2
TEXTSTYLE1
 70
     0
 40
0.0
 41
1.0
 50
0.0
 71
     0
 42
0.2
  3
ltypeshp.shx
  4

  0
STYLE
  2
TEXTSTYLE2
 70
     0
 40
0.0
 41
1.0
 50
0.0
 71
     0
 42
0.2
  3
qcadshp.shx
  4

  0
ENDTAB
  0
TABLE
  2
VIEW
 70
     0
  0
ENDTAB
  0
TABLE
  2
UCS
 70
     0
  0
ENDTAB
  0
TABLE
  2
APPID
 70
     2
  0
APPID
  2
ACAD
 70
     0
  0
APPID
  2
QCAD
 70
     0
  0
ENDTAB
  0
TABLE
  2
DIMSTYLE
 70
     2
  0
DIMSTYLE
  2
STANDARD
 70
     0
  3

  4

  5

  6

  7

 40
1.0
 41
0.18
 42
0.0625
 43
0.38
 44
0.18
 45
0.0
 46
0.0
 47
0.0
 48
0.0
140
0.18
141
0.09
142
0.0
143
25.4
144
1.0
145
0.0
146
1.0
147
0.09
 71
     0
 72
     0
 73
     1
 74
     1
 75
     0
 76
     0
 77
     0
 78
     0
170
     0
171
     2
172
     0
173
     0
174
     0
175
     0
176
     0
177
     0
178
     0
  0
DIMSTYLE
  2
QCADDIMSTYLE
 70
     0
  3

  4

  5

  6

  7

 40
1.0
 41
2.5
 42
0.625
 43
5.0
 44
1.25
 45
0.0
 46
0.0
 47
0.0
 48
0.0
140
2.5
141
0.09
142
0.0
143
25.4
144
1.0
145
0.0
146
1.0
147
0.625
 71
     0
 72
     0
 73
     0
 74
     1
 75
     0
 76
     0
 77
     1
 78
     8
170
     0
171
     2
172
     0
173
     0
174
     0
175
     0
176
     0
177
     0
178
   256
  0
ENDTAB
  0
ENDSEC
  0
SECTION
  2
BLOCKS
  0
BLOCK
  8
0
  2
$MODEL_SPACE
 70
     0
 10
0.0
 20
0.0
 30
0.0
  3
$MODEL_SPACE
  1

  0
ENDBLK
  5
8A
  8
0
  0
BLOCK
 67
     1
  8
0
  2
$PAPER_SPACE
 70
     0
 10
0.0
 20
0.0
 30
0.0
  3
$PAPER_SPACE
  1

  0
ENDBLK
  5
86
 67
     1
  8
0
  0
ENDSEC
  0
SECTION
  2
ENTITIES
  0
POLYLINE
  5
3D
  8
LAYER0
 66
     1
 10
0.0
 20
0.0
 30
0.0
 70
     1
  0
VERTEX
  5
13D
  8
LAYER0
 10
80.3492985076843
 20
76.0012829552901
 30
0.0
  0
VERTEX
  5
13E
  8
LAYER0
 10
80.3492985076843
 20
88.00087826065226
 30
0.0
 42
-1.0
  0
VERTEX
  5
13F
  8
LAYER0
 10
121.3493521992861
 20
88.00108233637309
 30
0.0
  0
VERTEX
  5
140
  8
LAYER0
 10
121.3494119287927
 20
76.0012829552901
 30
0.0
 42
-0.99137673081205
  0
SEQEND
  5
204
  8
LAYER0
  0
POLYLINE
  5
3E
  8
LAYER0
 66
     1
 10
0.0
 20
0.0
 30
0.0
 70
     1
  0
VERTEX
  5
141
  8
LAYER0
 10
188.6318349603371
 20
48.69789387605204
 30
0.0
 42
0.4142135623730951
  0
VERTEX
  5
142
  8
LAYER0
 10
186.5318349603372
 20
46.59789387605202
 30
0.0
 42
0.4142135623730951
  0
VERTEX
  5
143
  8
LAYER0
 10
188.6318349603371
 20
44.49789387605199
 30
0.0
 42
0.4142135623730951
  0
VERTEX
  5
144
  8
LAYER0
 10
190.731834960337
 20
46.59789387605202
 30
0.0
 42
0.4142135623730951
  0
SEQEND
  5
205
  8
LAYER0
  0
POLYLINE
  5
3F
  8
LAYER0
 66
     1
 10
0.0
 20
0.0
 30
0.0
 70
     1
  0
VERTEX
  5
145
  8
LAYER0
 10
-9.9420359078768
 20
321.9993813311358
 30
0.0
 42
0.4142135623730951
  0
VERTEX
  5
146
  8
LAYER0
 10
-12.54203590787671
 20
319.3993813311354
 30
0.0
 42
0.4142135623730951
  0
VERTEX
  5
147
  8
LAYER0
 10
-9.9420359078768
 20
316.7993813311355
 30
0.0
 42
0.4142135623730951
  0
VERTEX
  5
148
  8
LAYER0
 10
-7.342035907876379
 20
319.3993813311354
 30
0.0
 42
0.4142135623730951
  0
SEQEND
  5
206
  8
LAYER0
  0
POLYLINE
  5
40
  8
LAYER0
 66
     1
 10
0.0
 20
0.0
 30
0.0
 70
     1
  0
VERTEX
  5
149
  8
LAYER0
 10
195.6290640682942
 20
0.000015736215687
 30
0.0
  0
VERTEX
  5
14A
  8
LAYER0
 10
-0.0000000000251248
 20
0.0
 30
0.0
 42
-0.4237912823571131
  0
VERTEX
  5
14B
  8
LAYER0
 10
-9.99999973376049
 20
9.999998894969396
 30
0.0
  0
VERTEX
  5
14C
  8
LAYER0
 10
-9.999999733692277
 20
117.4018414179227
 30
0.0
 42
0.205093006811939
  0
VERTEX
  5
14D
  8
LAYER0
 10
-67.03227494844361
 20
247.0695138826466
 30
0.0
  0
VERTEX
  5
14E
  8
LAYER0
 10
-67.0322749724329
 20
306.0344177586117
 30
0.0
 42
-0.3625483275397829
  0
VERTEX
  5
14F
  8
LAYER0
 10
-62.71043261149089
 20
310.3562601195531
 30
0.0
  0
VERTEX
  5
150
  8
LAYER0
 10
-62.05518648086002
 20
310.3992072199503
 30
0.0
  0
VERTEX
  5
151
  8
LAYER0
 10
-37.12875790431423
 20
310.3992072199522
 30
0.0
 42
0.2867420875125852
  0
VERTEX
  5
152
  8
LAYER0
 10
-14.94209562996599
 20
325.3992072199503
 30
0.0
  0
VERTEX
  5
153
  8
LAYER0
 10
90.62020170351377
 20
325.4018323896392
 30
0.0
  0
VERTEX
  5
154
  8
LAYER0
 10
90.89614967560641
 20
325.3855728035399
 30
0.0
 42
-0.3239903345929231
  0
VERTEX
  5
155
  8
LAYER0
 10
95.26094175574087
 20
321.4431119705999
 30
0.0
 42
0.1761181912307752
  0
VERTEX
  5
156
  8
LAYER0
 10
205.629053957741
 20
125.4240250033795
 30
0.0
  0
VERTEX
  5
157
  8
LAYER0
 10
205.6290632619177
 20
10.00001654032178
 30
0.0
 42
-0.438543219305245
  0
SEQEND
  5
207
  8
LAYER0
  0
POLYLINE
  5
41
  8
LAYER0
 66
     1
 10
0.0
 20
0.0
 30
0.0
 70
     1
  0
VERTEX
  5
158
  8
LAYER0
 10
33.1198507640342
 20
220.5610551076984
 30
0.0
 42
-0.4142135623730951
  0
VERTEX
  5
159
  8
LAYER0
 10
28.11980098970878
 20
225.5610053328774
 30
0.0
  0
VERTEX
  5
15A
  8
LAYER0
 10
28.1195421619272
 20
251.5610053315884
 30
0.0
 42
-0.4142135623730951
  0
VERTEX
  5
15B
  8
LAYER0
 10
33.11949238710571
 20
256.561055105914
 30
0.0
  0
VERTEX
  5
15C
  8
LAYER0
 10
56.1194923859652
 20
256.5612840689514
 30
0.0
 42
-0.4142135623730951
  0
VERTEX
  5
15D
  8
LAYER0
 10
61.11954216029102
 20
251.5613338437722
 30
0.0
  0
VERTEX
  5
15E
  8
LAYER0
 10
61.11980098807271
 20
225.5613338450612
 30
0.0
 42
-0.4142135623730951
  0
VERTEX
  5
15F
  8
LAYER0
 10
56.11985076289369
 20
220.5612840707356
 30
0.0
  0
SEQEND
  5
208
  8
LAYER0
  0
POLYLINE
  5
42
  8
LAYER0
 66
     1
 10
0.0
 20
0.0
 30
0.0
 70
     1
  0
VERTEX
  5
160
  8
LAYER0
 10
60.63057728613012
 20
177.0007571798647
 30
0.0
 42
0.4142135623730951
  0
VERTEX
  5
161
  8
LAYER0
 10
55.63057728613012
 20
172.0007571798647
 30
0.0
 42
0.4142135623730951
  0
VERTEX
  5
162
  8
LAYER0
 10
60.63057728613012
 20
167.0007571798647
 30
0.0
 42
0.4142135623730951
  0
VERTEX
  5
163
  8
LAYER0
 10
65.63057728613012
 20
172.0007571798647
 30
0.0
 42
0.4142135623730951
  0
SEQEND
  5
209
  8
LAYER0
  0
POLYLINE
  5
43
  8
LAYER0
 66
     1
 10
0.0
 20
0.0
 30
0.0
 70
     1
  0
VERTEX
  5
164
  8
LAYER0
 10
36.63057729007858
 20
174.1005163317805
 30
0.0
 42
0.4142135623730951
  0
VERTEX
  5
165
  8
LAYER0
 10
34.53057729007872
 20
172.0005163317803
 30
0.0
 42
0.4142135623730951
  0
VERTEX
  5
166
  8
LAYER0
 10
36.63057729007858
 20
169.9005163317802
 30
0.0
 42
0.4142135623730951
  0
VERTEX
  5
167
  8
LAYER0
 10
38.73057729007849
 20
172.0005163317803
 30
0.0
 42
0.4142135623730951
  0
SEQEND
  5
20A
  8
LAYER0
  0
POLYLINE
  5
44
  8
LAYER0
 66
     1
 10
0.0
 20
0.0
 30
0.0
 70
     1
  0
VERTEX
  5
168
  8
LAYER0
 10
-8.380810633487329
 20
289.6000644276212
 30
0.0
 42
0.4142135623730951
  0
VERTEX
  5
169
  8
LAYER0
 10
-10.98081063348718
 20
287.0000644276211
 30
0.0
 42
0.4142135623730951
  0
VERTEX
  5
16A
  8
LAYER0
 10
-8.380810633487329
 20
284.4000644276212
 30
0.0
 42
0.4142135623730951
  0
VERTEX
  5
16B
  8
LAYER0
 10
-5.780810633487022
 20
287.0000644276211
 30
0.0
 42
0.4142135623730951
  0
SEQEND
  5
20B
  8
LAYER0
  0
POLYLINE
  5
45
  8
LAYER0
 66
     1
 10
0.0
 20
0.0
 30
0.0
 70
     1
  0
VERTEX
  5
16C
  8
LAYER0
 10
-28.38081063338501
 20
289.5998637193991
 30
0.0
 42
0.4142135623730951
  0
VERTEX
  5
16D
  8
LAYER0
 10
-30.98081063338492
 20
286.999863719399
 30
0.0
 42
0.4142135623730951
  0
VERTEX
  5
16E
  8
LAYER0
 10
-28.38081063338501
 20
284.3998637193991
 30
0.0
 42
0.4142135623730951
  0
VERTEX
  5
16F
  8
LAYER0
 10
-25.78081063338459
 20
286.999863719399
 30
0.0
 42
0.4142135623730951
  0
SEQEND
  5
20C
  8
LAYER0
  0
POLYLINE
  5
46
  8
LAYER0
 66
     1
 10
0.0
 20
0.0
 30
0.0
 70
     1
  0
VERTEX
  5
170
  8
LAYER0
 10
-60.91712343133128
 20
255.8890939188466
 30
0.0
 42
0.4142135623730951
  0
VERTEX
  5
171
  8
LAYER0
 10
-63.51712343133119
 20
253.2890939188465
 30
0.0
 42
0.4142135623730951
  0
VERTEX
  5
172
  8
LAYER0
 10
-60.91712343133128
 20
250.6890939188463
 30
0.0
 42
0.4142135623730951
  0
VERTEX
  5
173
  8
LAYER0
 10
-58.31712343133091
 20
253.2890939188465
 30
0.0
 42
0.4142135623730951
  0
SEQEND
  5
20D
  8
LAYER0
  0
POLYLINE
  5
47
  8
LAYER0
 66
     1
 10
0.0
 20
0.0
 30
0.0
 70
     1
  0
VERTEX
  5
174
  8
LAYER0
 10
89.73951065114392
 20
322.0028525796629
 30
0.0
 42
0.4142135623730951
  0
VERTEX
  5
175
  8
LAYER0
 10
87.13951065114401
 20
319.4028525796625
 30
0.0
 42
0.4142135623730951
  0
VERTEX
  5
176
  8
LAYER0
 10
89.73951065114392
 20
316.8028525796626
 30
0.0
 42
0.4142135623730951
  0
VERTEX
  5
177
  8
LAYER0
 10
92.33951065114428
 20
319.4028525796625
 30
0.0
 42
0.4142135623730951
  0
SEQEND
  5
20E
  8
LAYER0
  0
POLYLINE
  5
48
  8
LAYER0
 66
     1
 10
0.0
 20
0.0
 30
0.0
 70
     1
  0
VERTEX
  5
178
  8
LAYER0
 10
118.1633269774351
 20
228.0037109398948
 30
0.0
 42
0.4142135623730951
  0
VERTEX
  5
179
  8
LAYER0
 10
115.5633269774348
 20
225.4037109398946
 30
0.0
 42
0.4142135623730951
  0
VERTEX
  5
17A
  8
LAYER0
 10
118.1633269774351
 20
222.8037109398945
 30
0.0
 42
0.4142135623730951
  0
VERTEX
  5
17B
  8
LAYER0
 10
120.763326977435
 20
225.4037109398946
 30
0.0
 42
0.4142135623730951
  0
SEQEND
  5
20F
  8
LAYER0
  0
POLYLINE
  5
49
  8
LAYER0
 66
     1
 10
0.0
 20
0.0
 30
0.0
 70
     1
  0
VERTEX
  5
17C
  8
LAYER0
 10
199.6321628773319
 20
12.60211979727183
 30
0.0
 42
0.4142135623730951
  0
VERTEX
  5
17D
  8
LAYER0
 10
197.0321628773322
 20
10.00211979727169
 30
0.0
 42
0.4142135623730951
  0
VERTEX
  5
17E
  8
LAYER0
 10
199.6321628773319
 20
7.402119797271776
 30
0.0
 42
0.4142135623730951
  0
VERTEX
  5
17F
  8
LAYER0
 10
202.2321628773318
 20
10.00211979727169
 30
0.0
 42
0.4142135623730951
  0
SEQEND
  5
210
  8
LAYER0
  0
POLYLINE
  5
4A
  8
LAYER0
 66
     1
 10
0.0
 20
0.0
 30
0.0
 70
     1
  0
VERTEX
  5
180
  8
LAYER0
 10
147.1372224035585
 20
162.4809628479641
 30
0.0
 42
0.4142135623730951
  0
VERTEX
  5
181
  8
LAYER0
 10
144.5372224035581
 20
159.880962847964
 30
0.0
 42
0.4142135623730951
  0
VERTEX
  5
182
  8
LAYER0
 10
147.1372224035585
 20
157.2809628479638
 30
0.0
 42
0.4142135623730951
  0
VERTEX
  5
183
  8
LAYER0
 10
149.7372224035584
 20
159.880962847964
 30
0.0
 42
0.4142135623730951
  0
SEQEND
  5
211
  8
LAYER0
  0
POLYLINE
  5
4B
  8
LAYER0
 66
     1
 10
0.0
 20
0.0
 30
0.0
 70
     1
  0
VERTEX
  5
184
  8
LAYER0
 10
199.6310465711947
 20
123.8386301378294
 30
0.0
 42
0.4142135623730951
  0
VERTEX
  5
185
  8
LAYER0
 10
197.0310465711946
 20
121.2386301378292
 30
0.0
 42
0.4142135623730951
  0
VERTEX
  5
186
  8
LAYER0
 10
199.6310465711947
 20
118.6386301378293
 30
0.0
 42
0.4142135623730951
  0
VERTEX
  5
187
  8
LAYER0
 10
202.2310465711946
 20
121.2386301378292
 30
0.0
 42
0.4142135623730951
  0
SEQEND
  5
212
  8
LAYER0
  0
POLYLINE
  5
4C
  8
LAYER0
 66
     1
 10
0.0
 20
0.0
 30
0.0
 70
     1
  0
VERTEX
  5
188
  8
LAYER0
 10
-60.91759326795733
 20
303.0854686583262
 30
0.0
 42
0.4142135623730951
  0
VERTEX
  5
189
  8
LAYER0
 10
-63.51759326795718
 20
300.4854686583258
 30
0.0
 42
0.4142135623730951
  0
VERTEX
  5
18A
  8
LAYER0
 10
-60.91759326795733
 20
297.8854686583257
 30
0.0
 42
0.4142135623730951
  0
VERTEX
  5
18B
  8
LAYER0
 10
-58.31759326795702
 20
300.4854686583258
 30
0.0
 42
0.4142135623730951
  0
SEQEND
  5
213
  8
LAYER0
  0
POLYLINE
  5
4D
  8
LAYER0
 66
     1
 10
0.0
 20
0.0
 30
0.0
 70
     1
  0
VERTEX
  5
18C
  8
LAYER0
 10
-3.739093217967024
 20
154.3466284307235
 30
0.0
 42
0.4142135623730951
  0
VERTEX
  5
18D
  8
LAYER0
 10
-6.339093217966877
 20
151.7466284307234
 30
0.0
 42
0.4142135623730951
  0
VERTEX
  5
18E
  8
LAYER0
 10
-3.739093217967024
 20
149.1466284307233
 30
0.0
 42
0.4142135623730951
  0
VERTEX
  5
18F
  8
LAYER0
 10
-1.139093217966604
 20
151.7466284307234
 30
0.0
 42
0.4142135623730951
  0
SEQEND
  5
214
  8
LAYER0
  0
POLYLINE
  5
4E
  8
LAYER0
 66
     1
 10
0.0
 20
0.0
 30
0.0
 70
     1
  0
VERTEX
  5
190
  8
LAYER0
 10
127.1372424748146
 20
162.4807797458548
 30
0.0
 42
0.4142135623730951
  0
VERTEX
  5
191
  8
LAYER0
 10
124.5372424748143
 20
159.8807797458546
 30
0.0
 42
0.4142135623730951
  0
VERTEX
  5
192
  8
LAYER0
 10
127.1372424748146
 20
157.2807797458545
 30
0.0
 42
0.4142135623730951
  0
VERTEX
  5
193
  8
LAYER0
 10
129.7372424748145
 20
159.8807797458546
 30
0.0
 42
0.4142135623730951
  0
SEQEND
  5
215
  8
LAYER0
  0
POLYLINE
  5
4F
  8
LAYER0
 66
     1
 10
0.0
 20
0.0
 30
0.0
 70
     1
  0
VERTEX
  5
194
  8
LAYER0
 10
139.3629911174018
 20
61.55304615313651
 30
0.0
 42
0.4142135623730951
  0
VERTEX
  5
195
  8
LAYER0
 10
136.7629911174017
 20
58.95304615313648
 30
0.0
 42
0.4142135623730951
  0
VERTEX
  5
196
  8
LAYER0
 10
139.3629911174018
 20
56.35304615313645
 30
0.0
 42
0.4142135623730951
  0
VERTEX
  5
197
  8
LAYER0
 10
141.9629911174017
 20
58.95304615313648
 30
0.0
 42
0.4142135623730951
  0
SEQEND
  5
216
  8
LAYER0
  0
POLYLINE
  5
50
  8
LAYER0
 66
     1
 10
0.0
 20
0.0
 30
0.0
 70
     1
  0
VERTEX
  5
198
  8
LAYER0
 10
0.003099892361206
 20
12.6001167543684
 30
0.0
 42
0.4142135623730951
  0
VERTEX
  5
199
  8
LAYER0
 10
-2.596900107638817
 20
10.00011675436827
 30
0.0
 42
0.4142135623730951
  0
VERTEX
  5
19A
  8
LAYER0
 10
0.003099892361206
 20
7.400116754368357
 30
0.0
 42
0.4142135623730951
  0
VERTEX
  5
19B
  8
LAYER0
 10
2.603099892361115
 20
10.00011675436827
 30
0.0
 42
0.4142135623730951
  0
SEQEND
  5
217
  8
LAYER0
  0
POLYLINE
  5
51
  8
LAYER0
 66
     1
 10
0.0
 20
0.0
 30
0.0
 70
     1
  0
VERTEX
  5
19C
  8
LAYER0
 10
162.631834961171
 20
48.69763295462143
 30
0.0
 42
0.4142135623730951
  0
VERTEX
  5
19D
  8
LAYER0
 10
160.5318349611711
 20
46.59763295462142
 30
0.0
 42
0.4142135623730951
  0
VERTEX
  5
19E
  8
LAYER0
 10
162.631834961171
 20
44.49763295462139
 30
0.0
 42
0.4142135623730951
  0
VERTEX
  5
19F
  8
LAYER0
 10
164.7318349611714
 20
46.59763295462142
 30
0.0
 42
0.4142135623730951
  0
SEQEND
  5
218
  8
LAYER0
  0
POLYLINE
  5
52
  8
LAYER0
 66
     1
 10
0.0
 20
0.0
 30
0.0
 70
     1
  0
VERTEX
  5
1A0
  8
LAYER0
 10
7.002775738505022
 20
48.6960711416125
 30
0.0
 42
0.4142135623730951
  0
VERTEX
  5
1A1
  8
LAYER0
 10
4.902775738505113
 20
46.59607114161258
 30
0.0
 42
0.4142135623730951
  0
VERTEX
  5
1A2
  8
LAYER0
 10
7.002775738505022
 20
44.49607114161245
 30
0.0
 42
0.4142135623730951
  0
VERTEX
  5
1A3
  8
LAYER0
 10
9.102775738504874
 20
46.59607114161258
 30
0.0
 42
0.4142135623730951
  0
SEQEND
  5
219
  8
LAYER0
  0
POLYLINE
  5
53
  8
LAYER0
 66
     1
 10
0.0
 20
0.0
 30
0.0
 70
     1
  0
VERTEX
  5
1A4
  8
LAYER0
 10
7.003034560803314
 20
22.69607115212262
 30
0.0
 42
0.4142135623730951
  0
VERTEX
  5
1A5
  8
LAYER0
 10
4.903034560803405
 20
20.59607115212271
 30
0.0
 42
0.4142135623730951
  0
VERTEX
  5
1A6
  8
LAYER0
 10
7.003034560803314
 20
18.49607115212257
 30
0.0
 42
0.4142135623730951
  0
VERTEX
  5
1A7
  8
LAYER0
 10
9.103034560803223
 20
20.59607115212271
 30
0.0
 42
0.4142135623730951
  0
SEQEND
  5
21A
  8
LAYER0
  0
POLYLINE
  5
54
  8
LAYER0
 66
     1
 10
0.0
 20
0.0
 30
0.0
 70
     1
  0
VERTEX
  5
1A8
  8
LAYER0
 10
89.63033635219881
 20
198.1010490096797
 30
0.0
 42
0.4142135623730951
  0
VERTEX
  5
1A9
  8
LAYER0
 10
87.53033635219839
 20
196.0010490096797
 30
0.0
 42
0.4142135623730951
  0
VERTEX
  5
1AA
  8
LAYER0
 10
89.63033635219881
 20
193.9010490096796
 30
0.0
 42
0.4142135623730951
  0
VERTEX
  5
1AB
  8
LAYER0
 10
91.73033635219872
 20
196.0010490096797
 30
0.0
 42
0.4142135623730951
  0
SEQEND
  5
21B
  8
LAYER0
  0
POLYLINE
  5
55
  8
LAYER0
 66
     1
 10
0.0
 20
0.0
 30
0.0
 70
     1
  0
VERTEX
  5
1AC
  8
LAYER0
 10
84.63057728392141
 20
174.1009980295767
 30
0.0
 42
0.4142135623730951
  0
VERTEX
  5
1AD
  8
LAYER0
 10
82.53057728392139
 20
172.0009980295768
 30
0.0
 42
0.4142135623730951
  0
VERTEX
  5
1AE
  8
LAYER0
 10
84.63057728392141
 20
169.9009980295769
 30
0.0
 42
0.4142135623730951
  0
VERTEX
  5
1AF
  8
LAYER0
 10
86.73057728392132
 20
172.0009980295768
 30
0.0
 42
0.4142135623730951
  0
SEQEND
  5
21C
  8
LAYER0
  0
POLYLINE
  5
56
  8
LAYER0
 66
     1
 10
0.0
 20
0.0
 30
0.0
 70
     1
  0
VERTEX
  5
1B0
  8
LAYER0
 10
33.00303455712259
 20
22.69633207384708
 30
0.0
 42
0.4142135623730951
  0
VERTEX
  5
1B1
  8
LAYER0
 10
30.90303455712268
 20
20.59633207384707
 30
0.0
 42
0.4142135623730951
  0
VERTEX
  5
1B2
  8
LAYER0
 10
33.00303455712259
 20
18.49633207384705
 30
0.0
 42
0.4142135623730951
  0
VERTEX
  5
1B3
  8
LAYER0
 10
35.10303455712301
 20
20.59633207384718
 30
0.0
 42
0.4142135623730951
  0
SEQEND
  5
21D
  8
LAYER0
  0
POLYLINE
  5
57
  8
LAYER0
 66
     1
 10
0.0
 20
0.0
 30
0.0
 70
     1
  0
VERTEX
  5
1B4
  8
LAYER0
 10
162.6320958837909
 20
22.69763295755252
 30
0.0
 42
0.4142135623730951
  0
VERTEX
  5
1B5
  8
LAYER0
 10
160.532095883791
 20
20.59763295755238
 30
0.0
 42
0.4142135623730951
  0
VERTEX
  5
1B6
  8
LAYER0
 10
162.6320958837909
 20
18.49763295755247
 30
0.0
 42
0.4142135623730951
  0
VERTEX
  5
1B7
  8
LAYER0
 10
164.7320958837908
 20
20.59763295755238
 30
0.0
 42
0.4142135623730951
  0
SEQEND
  5
21E
  8
LAYER0
  0
POLYLINE
  5
58
  8
LAYER0
 66
     1
 10
0.0
 20
0.0
 30
0.0
 70
     1
  0
VERTEX
  5
1B8
  8
LAYER0
 10
33.00277573413217
 20
48.69633206279298
 30
0.0
 42
0.4142135623730951
  0
VERTEX
  5
1B9
  8
LAYER0
 10
30.90277573413232
 20
46.59633206279295
 30
0.0
 42
0.4142135623730951
  0
VERTEX
  5
1BA
  8
LAYER0
 10
33.00277573413217
 20
44.49633206279304
 30
0.0
 42
0.4142135623730951
  0
VERTEX
  5
1BB
  8
LAYER0
 10
35.10277573413208
 20
46.59633206279295
 30
0.0
 42
0.4142135623730951
  0
SEQEND
  5
21F
  8
LAYER0
  0
POLYLINE
  5
59
  8
LAYER0
 66
     1
 10
0.0
 20
0.0
 30
0.0
 70
     1
  0
VERTEX
  5
1BC
  8
LAYER0
 10
188.6320958813126
 20
22.69789387793343
 30
0.0
 42
0.4142135623730951
  0
VERTEX
  5
1BD
  8
LAYER0
 10
186.5320958813127
 20
20.59789387793353
 30
0.0
 42
0.4142135623730951
  0
VERTEX
  5
1BE
  8
LAYER0
 10
188.6320958813126
 20
18.4978938779334
 30
0.0
 42
0.4142135623730951
  0
VERTEX
  5
1BF
  8
LAYER0
 10
190.7320958813125
 20
20.59789387793353
 30
0.0
 42
0.4142135623730951
  0
SEQEND
  5
220
  8
LAYER0
  0
POLYLINE
  5
5A
  8
LAYER0
 66
     1
 10
0.0
 20
0.0
 30
0.0
 70
     1
  0
VERTEX
  5
1C0
  8
LAYER0
 10
11.63033635913229
 20
198.1002662477622
 30
0.0
 42
0.4142135623730951
  0
VERTEX
  5
1C1
  8
LAYER0
 10
9.530336359132377
 20
196.0002662477619
 30
0.0
 42
0.4142135623730951
  0
VERTEX
  5
1C2
  8
LAYER0
 10
11.63033635913229
 20
193.9002662477619
 30
0.0
 42
0.4142135623730951
  0
VERTEX
  5
1C3
  8
LAYER0
 10
13.7303363591322
 20
196.0002662477621
 30
0.0
 42
0.4142135623730951
  0
SEQEND
  5
221
  8
LAYER0
  0
POLYLINE
  5
5B
  8
LAYER0
 66
     1
 10
0.0
 20
0.0
 30
0.0
 70
     1
  0
VERTEX
  5
1C4
  8
LAYER0
 10
132.6690964657973
 20
86.93449558695637
 30
0.0
 42
0.4142135623730951
  0
VERTEX
  5
1C5
  8
LAYER0
 10
132.6690964657973
 20
84.10606846221016
 30
0.0
 42
0.4142135623730951
  0
VERTEX
  5
1C6
  8
LAYER0
 10
135.4975235905435
 20
84.10606846221019
 30
0.0
 42
0.4142135623730951
  0
VERTEX
  5
1C7
  8
LAYER0
 10
135.4975235905435
 20
86.93449558695632
 30
0.0
 42
0.4142135623730951
  0
SEQEND
  5
222
  8
LAYER0
  0
POLYLINE
  5
5C
  8
LAYER0
 66
     1
 10
0.0
 20
0.0
 30
0.0
 70
     1
  0
VERTEX
  5
1C8
  8
LAYER0
 10
99.43541614296828
 20
53.70014823059682
 30
0.0
 42
0.4142135623730951
  0
VERTEX
  5
1C9
  8
LAYER0
 10
99.43541614296828
 20
50.87172110585067
 30
0.0
 42
0.4142135623730951
  0
VERTEX
  5
1CA
  8
LAYER0
 10
102.2638432677146
 20
50.87172110585067
 30
0.0
 42
0.4142135623730951
  0
VERTEX
  5
1CB
  8
LAYER0
 10
102.2638432677146
 20
53.70014823059681
 30
0.0
 42
0.4142135623730951
  0
SEQEND
  5
223
  8
LAYER0
  0
POLYLINE
  5
5D
  8
LAYER0
 66
     1
 10
0.0
 20
0.0
 30
0.0
 70
     1
  0
VERTEX
  5
1CC
  8
LAYER0
 10
99.43474959305729
 20
120.1681861412
 30
0.0
 42
0.4142135623730951
  0
VERTEX
  5
1CD
  8
LAYER0
 10
99.43474959305729
 20
117.3397590164538
 30
0.0
 42
0.4142135623730951
  0
VERTEX
  5
1CE
  8
LAYER0
 10
102.2631767178033
 20
117.3397590164536
 30
0.0
 42
0.4142135623730951
  0
VERTEX
  5
1CF
  8
LAYER0
 10
102.2631767178033
 20
120.1681861411998
 30
0.0
 42
0.4142135623730951
  0
SEQEND
  5
224
  8
LAYER0
  0
POLYLINE
  5
5E
  8
LAYER0
 66
     1
 10
0.0
 20
0.0
 30
0.0
 70
     1
  0
VERTEX
  5
1D0
  8
LAYER0
 10
66.20106391231138
 20
85.93383342634338
 30
0.0
 42
0.4142135623730951
  0
VERTEX
  5
1D1
  8
LAYER0
 10
66.20106391231138
 20
83.10540630159711
 30
0.0
 42
0.4142135623730951
  0
VERTEX
  5
1D2
  8
LAYER0
 10
69.02949103705771
 20
83.10540630159716
 30
0.0
 42
0.4142135623730951
  0
VERTEX
  5
1D3
  8
LAYER0
 10
69.02949103705771
 20
85.9338334263434
 30
0.0
 42
0.4142135623730951
  0
SEQEND
  5
225
  8
LAYER0
  0
POLYLINE
  5
5F
  8
LAYER0
 66
     1
 10
0.0
 20
0.0
 30
0.0
 70
     1
  0
VERTEX
  5
1D4
  8
LAYER0
 10
12.79052729424302
 20
247.6020936976259
 30
0.0
 42
0.4142135623730951
  0
VERTEX
  5
1D5
  8
LAYER0
 10
9.690527294243111
 20
244.5020936976257
 30
0.0
 42
0.4142135623730951
  0
VERTEX
  5
1D6
  8
LAYER0
 10
12.79052729424302
 20
241.4020936976258
 30
0.0
 42
0.4142135623730951
  0
VERTEX
  5
1D7
  8
LAYER0
 10
15.89052729424287
 20
244.5020936976257
 30
0.0
 42
0.4142135623730951
  0
SEQEND
  5
226
  8
LAYER0
  0
POLYLINE
  5
60
  8
LAYER0
 66
     1
 10
0.0
 20
0.0
 30
0.0
 70
     1
  0
VERTEX
  5
1D8
  8
LAYER0
 10
12.79028053348969
 20
267.6020936973287
 30
0.0
 42
0.4142135623730951
  0
VERTEX
  5
1D9
  8
LAYER0
 10
9.690280533489783
 20
264.5020936973288
 30
0.0
 42
0.4142135623730951
  0
VERTEX
  5
1DA
  8
LAYER0
 10
12.79028053348969
 20
261.4020936973286
 30
0.0
 42
0.4142135623730951
  0
VERTEX
  5
1DB
  8
LAYER0
 10
15.8902805334896
 20
264.5020936973288
 30
0.0
 42
0.4142135623730951
  0
SEQEND
  5
227
  8
LAYER0
  0
POLYLINE
  5
61
  8
LAYER0
 66
     1
 10
0.0
 20
0.0
 30
0.0
 70
     1
  0
VERTEX
  5
1DC
  8
LAYER0
 10
12.7900337723658
 20
287.6020936966798
 30
0.0
 42
0.4142135623730951
  0
VERTEX
  5
1DD
  8
LAYER0
 10
9.690033772365894
 20
284.5020936966794
 30
0.0
 42
0.4142135623730951
  0
VERTEX
  5
1DE
  8
LAYER0
 10
12.7900337723658
 20
281.4020936966795
 30
0.0
 42
0.4142135623730951
  0
VERTEX
  5
1DF
  8
LAYER0
 10
15.89003377236571
 20
284.5020936966796
 30
0.0
 42
0.4142135623730951
  0
SEQEND
  5
228
  8
LAYER0
  0
POLYLINE
  5
62
  8
LAYER0
 66
     1
 10
0.0
 20
0.0
 30
0.0
 70
     1
  0
VERTEX
  5
1E0
  8
LAYER0
 10
12.7898427165714
 20
307.6021049035926
 30
0.0
 42
0.4142135623730951
  0
VERTEX
  5
1E1
  8
LAYER0
 10
9.689842716570979
 20
304.5021049035927
 30
0.0
 42
0.4142135623730951
  0
VERTEX
  5
1E2
  8
LAYER0
 10
12.7898427165714
 20
301.4021049035928
 30
0.0
 42
0.4142135623730951
  0
VERTEX
  5
1E3
  8
LAYER0
 10
15.88984271657131
 20
304.5021049035927
 30
0.0
 42
0.4142135623730951
  0
SEQEND
  5
229
  8
LAYER0
  0
POLYLINE
  5
63
  8
LAYER0
 66
     1
 10
0.0
 20
0.0
 30
0.0
 70
     1
  0
VERTEX
  5
1E4
  8
LAYER0
 10
72.7898417624246
 20
307.6020004917123
 30
0.0
 42
0.4142135623730951
  0
VERTEX
  5
1E5
  8
LAYER0
 10
69.68984176242469
 20
304.5020004917121
 30
0.0
 42
0.4142135623730951
  0
VERTEX
  5
1E6
  8
LAYER0
 10
72.7898417624246
 20
301.402000491712
 30
0.0
 42
0.4142135623730951
  0
VERTEX
  5
1E7
  8
LAYER0
 10
75.88984176242502
 20
304.5020004917121
 30
0.0
 42
0.4142135623730951
  0
SEQEND
  5
22A
  8
LAYER0
  0
POLYLINE
  5
64
  8
LAYER0
 66
     1
 10
0.0
 20
0.0
 30
0.0
 70
     1
  0
VERTEX
  5
1E8
  8
LAYER0
 10
72.79003281325998
 20
287.6019892794561
 30
0.0
 42
0.4142135623730951
  0
VERTEX
  5
1E9
  8
LAYER0
 10
69.69003281325962
 20
284.5019892794562
 30
0.0
 42
0.4142135623730951
  0
VERTEX
  5
1EA
  8
LAYER0
 10
72.79003281325998
 20
281.4019892794561
 30
0.0
 42
0.4142135623730951
  0
VERTEX
  5
1EB
  8
LAYER0
 10
75.8900328132599
 20
284.5019892794562
 30
0.0
 42
0.4142135623730951
  0
SEQEND
  5
22B
  8
LAYER0
  0
POLYLINE
  5
65
  8
LAYER0
 66
     1
 10
0.0
 20
0.0
 30
0.0
 70
     1
  0
VERTEX
  5
1EC
  8
LAYER0
 10
72.79027957636481
 20
267.6019892823304
 30
0.0
 42
0.4142135623730951
  0
VERTEX
  5
1ED
  8
LAYER0
 10
69.69027957636439
 20
264.5019892823302
 30
0.0
 42
0.4142135623730951
  0
VERTEX
  5
1EE
  8
LAYER0
 10
72.79027957636481
 20
261.4019892823302
 30
0.0
 42
0.4142135623730951
  0
VERTEX
  5
1EF
  8
LAYER0
 10
75.89027957636472
 20
264.5019892823302
 30
0.0
 42
0.4142135623730951
  0
SEQEND
  5
22C
  8
LAYER0
  0
POLYLINE
  5
66
  8
LAYER0
 66
     1
 10
0.0
 20
0.0
 30
0.0
 70
     1
  0
VERTEX
  5
1F0
  8
LAYER0
 10
72.79052633930809
 20
247.6019892847862
 30
0.0
 42
0.4142135623730951
  0
VERTEX
  5
1F1
  8
LAYER0
 10
69.69052633930818
 20
244.5019892847863
 30
0.0
 42
0.4142135623730951
  0
VERTEX
  5
1F2
  8
LAYER0
 10
72.79052633930809
 20
241.4019892847864
 30
0.0
 42
0.4142135623730951
  0
VERTEX
  5
1F3
  8
LAYER0
 10
75.89052633930851
 20
244.5019892847863
 30
0.0
 42
0.4142135623730951
  0
SEQEND
  5
22D
  8
LAYER0
  0
POLYLINE
  5
67
  8
LAYER0
 66
     1
 10
0.0
 20
0.0
 30
0.0
 70
     1
  0
VERTEX
  5
1F4
  8
LAYER0
 10
67.0349915341821
 20
72.00074123448564
 30
0.0
 42
0.4142135623730951
  0
VERTEX
  5
1F5
  8
LAYER0
 10
63.0349915341821
 20
68.00074123448564
 30
0.0
 42
0.4142135623730951
  0
VERTEX
  5
1F6
  8
LAYER0
 10
67.0349915341821
 20
64.00074123448564
 30
0.0
 42
0.4142135623730951
  0
VERTEX
  5
1F7
  8
LAYER0
 10
71.0349915341821
 20
68.00074123448564
 30
0.0
 42
0.4142135623730951
  0
SEQEND
  5
22E
  8
LAYER0
  0
POLYLINE
  5
68
  8
LAYER0
 66
     1
 10
0.0
 20
0.0
 30
0.0
 70
     1
  0
VERTEX
  5
1F8
  8
LAYER0
 10
134.6640500141577
 20
72.00141992473914
 30
0.0
 42
0.4142135623730951
  0
VERTEX
  5
1F9
  8
LAYER0
 10
130.6640500141577
 20
68.00141992473914
 30
0.0
 42
0.4142135623730951
  0
VERTEX
  5
1FA
  8
LAYER0
 10
134.6640500141577
 20
64.00141992473914
 30
0.0
 42
0.4142135623730951
  0
VERTEX
  5
1FB
  8
LAYER0
 10
138.6640500141577
 20
68.00141992473914
 30
0.0
 42
0.4142135623730951
  0
SEQEND
  5
22F
  8
LAYER0
  0
POLYLINE
  5
69
  8
LAYER0
 66
     1
 10
0.0
 20
0.0
 30
0.0
 70
     1
  0
VERTEX
  5
1FC
  8
LAYER0
 10
42.78984271636159
 20
307.1521049033785
 30
0.0
 42
0.4142135623730951
  0
VERTEX
  5
1FD
  8
LAYER0
 10
40.13984271636167
 20
304.5021049033785
 30
0.0
 42
0.4142135623730951
  0
VERTEX
  5
1FE
  8
LAYER0
 10
42.78984271636159
 20
301.8521049033785
 30
0.0
 42
0.4142135623730951
  0
VERTEX
  5
1FF
  8
LAYER0
 10
45.43984271636162
 20
304.5021049033785
 30
0.0
 42
0.4142135623730951
  0
SEQEND
  5
230
  8
LAYER0
  0
POLYLINE
  5
6A
  8
LAYER0
 66
     1
 10
0.0
 20
0.0
 30
0.0
 70
     1
  0
VERTEX
  5
200
  8
LAYER0
 10
97.81453203413452
 20
15.110776845593
 30
0.0
 42
0.4142135623730951
  0
VERTEX
  5
201
  8
LAYER0
 10
91.81453203413452
 20
9.110776845593007
 30
0.0
 42
0.4142135623730951
  0
VERTEX
  5
202
  8
LAYER0
 10
97.81453203413452
 20
3.110776845593005
 30
0.0
 42
0.4142135623730951
  0
VERTEX
  5
203
  8
LAYER0
 10
103.8145320341345
 20
9.110776845593007
 30
0.0
 42
0.4142135623730951
  0
SEQEND
  5
231
  8
LAYER0
  0
VIEWPORT
  5
134
 67
     1
  8
0
 10
128.5
 20
97.5
 30
0.0
 40
314.226
 41
222.18
 68
     1
 69
     1
1001
ACAD
1000
MVIEW
1002
{
1070
    16
1010
0.0
1020
0.0
1030
0.0
1010
0.0
1020
0.0
1030
1.0
1040
0.0
1040
222.18
1040
128.5
1040
97.5
1040
50.0
1040
0.0
1040
0.0
1070
     0
1070
   100
1070
     0
1070
     3
1070
     0
1070
     0
1070
     0
1070
     0
1040
0.0
1040
0.0
1040
0.0
1040
10.0
1040
10.0
1040
10.0
1040
10.0
1070
     0
1002
{
1002
}
1002
}
  0
ENDSEC
  0
EOF
