  0
SECTION
  2
HEADER
  9
$ACADVER
  1
AC1009
  9
$DWGCODEPAGE
  3
ansi_1252
  9
$INSBASE
 10
0.0
 20
0.0
 30
0.0
  9
$EXTMIN
 10
-4.999884128504959
 20
-0.0032494773049763
 30
0.0
  9
$EXTMAX
 10
150.0065824637005
 20
299.728597574191
 30
0.0
  9
$LIMMIN
 10
0.0
 20
0.0
  9
$LIMMAX
 10
12.0
 20
9.0
  9
$ORTHOMODE
 70
     0
  9
$REGENMODE
 70
     1
  9
$FILLMODE
 70
     1
  9
$QTEXTMODE
 70
     0
  9
$MIRRTEXT
 70
     0
  9
$DRAGMODE
 70
     2
  9
$LTSCALE
 40
1.0
  9
$OSMODE
 70
    37
  9
$ATTMODE
 70
     1
  9
$TEXTSIZE
 40
0.2
  9
$TRACEWID
 40
0.05
  9
$TEXTSTYLE
  7
STANDARD
  9
$CLAYER
  8
0
  9
$CELTYPE
  6
BYLAYER
  9
$CECOLOR
 62
   256
  9
$DIMSCALE
 40
1.0
  9
$DIMASZ
 40
2.5
  9
$DIMEXO
 40
0.625
  9
$DIMDLI
 40
5.0
  9
$DIMRND
 40
0.0
  9
$DIMDLE
 40
0.0
  9
$DIMEXE
 40
1.25
  9
$DIMTP
 40
0.0
  9
$DIMTM
 40
0.0
  9
$DIMTXT
 40
2.5
  9
$DIMCEN
 40
0.09
  9
$DIMTSZ
 40
0.0
  9
$DIMTOL
 70
     0
  9
$DIMLIM
 70
     0
  9
$DIMTIH
 70
     0
  9
$DIMTOH
 70
     1
  9
$DIMSE1
 70
     0
  9
$DIMSE2
 70
     0
  9
$DIMTAD
 70
     1
  9
$DIMZIN
 70
     8
  9
$DIMBLK
  1

  9
$DIMASO
 70
     1
  9
$DIMSHO
 70
     1
  9
$DIMPOST
  1

  9
$DIMAPOST
  1

  9
$DIMALT
 70
     0
  9
$DIMALTD
 70
     2
  9
$DIMALTF
 40
25.4
  9
$DIMLFAC
 40
1.0
  9
$DIMTOFL
 70
     0
  9
$DIMTVP
 40
0.0
  9
$DIMTIX
 70
     0
  9
$DIMSOXD
 70
     0
  9
$DIMSAH
 70
     0
  9
$DIMBLK1
  1

  9
$DIMBLK2
  1

  9
$DIMSTYLE
  2
STANDARD
  9
$DIMCLRD
 70
     0
  9
$DIMCLRE
 70
     0
  9
$DIMCLRT
 70
   256
  9
$DIMTFAC
 40
1.0
  9
$DIMGAP
 40
0.625
  9
$LUNITS
 70
     2
  9
$LUPREC
 70
     4
  9
$SKETCHINC
 40
0.1
  9
$FILLETRAD
 40
0.0
  9
$AUNITS
 70
     0
  9
$AUPREC
 70
     0
  9
$MENU
  1
.
  9
$ELEVATION
 40
0.0
  9
$PELEVATION
 40
0.0
  9
$THICKNESS
 40
0.0
  9
$LIMCHECK
 70
     0
  9
$CHAMFERA
 40
0.0
  9
$CHAMFERB
 40
0.0
  9
$SKPOLY
 70
     0
  9
$TDCREATE
 40
2461300.439805637
  9
$TDUPDATE
 40
2461300.439805752
  9
$TDINDWG
 40
0.0000000116
  9
$TDUSRTIMER
 40
0.0000000116
  9
$USRTIMER
 70
     1
  9
$ANGBASE
 50
0.0
  9
$ANGDIR
 70
     0
  9
$PDMODE
 70
     0
  9
$PDSIZE
 40
0.0
  9
$PLINEWID
 40
0.0
  9
$COORDS
 70
     1
  9
$SPLFRAME
 70
     0
  9
$SPLINETYPE
 70
     6
  9
$SPLINESEGS
 70
     8
  9
$ATTDIA
 70
     0
  9
$ATTREQ
 70
     1
  9
$HANDLING
 70
     1
  9
$HANDSEED
  5
20E
  9
$SURFTAB1
 70
     6
  9
$SURFTAB2
 70
     6
  9
$SURFTYPE
 70
     6
  9
$SURFU
 70
     6
  9
$SURFV
 70
     6
  9
$UCSNAME
  2

  9
$UCSORG
 10
0.0
 20
0.0
 30
0.0
  9
$UCSXDIR
 10
1.0
 20
0.0
 30
0.0
  9
$UCSYDIR
 10
0.0
 20
1.0
 30
0.0
  9
$PUCSNAME
  2

  9
$PUCSORG
 10
0.0
 20
0.0
 30
0.0
  9
$PUCSXDIR
 10
1.0
 20
0.0
 30
0.0
  9
$PUCSYDIR
 10
0.0
 20
1.0
 30
0.0
  9
$USERI1
 70
     0
  9
$USERI2
 70
     0
  9
$USERI3
 70
     0
  9
$USERI4
 70
     0
  9
$USERI5
 70
     0
  9
$USERR1
 40
0.0
  9
$USERR2
 40
0.0
  9
$USERR3
 40
0.0
  9
$USERR4
 40
0.0
  9
$USERR5
 40
0.0
  9
$WORLDVIEW
 70
     1
  9
$SHADEDGE
 70
     3
  9
$SHADEDIF
 70
    70
  9
$TILEMODE
 70
     1
  9
$MAXACTVP
 70
    64
  9
$PLIMCHECK
 70
     0
  9
$PEXTMIN
 10
0.0
 20
0.0
 30
0.0
  9
$PEXTMAX
 10
0.0
 20
0.0
 30
0.0
  9
$PLIMMIN
 10
-20.0
 20
-7.5
  9
$PLIMMAX
 10
277.0
 20
202.5
  9
$UNITMODE
 70
     0
  9
$VISRETAIN
 70
     1
  9
$PLINEGEN
 70
     0
  9
$PSLTSCALE
 70
     1
  0
ENDSEC
  0
SECTION
  2
TABLES
  0
TABLE
  2
VPORT
 70
     1
  0
VPORT
  2
*ACTIVE
 70
     0
 10
0.0
 20
0.0
 11
1.0
 21
1.0
 12
10.42990654205607
 22
4.5
 13
0.0
 23
0.0
 14
0.5
 24
0.5
 15
0.5
 25
0.5
 16
0.0
 26
0.0
 36
1.0
 17
0.0
 27
0.0
 37
0.0
 40
9.0
 41
1.972972972850329
 42
50.0
 43
0.0
 44
0.0
 50
0.0
 51
0.0
 71
     0
 72
   100
 73
     1
 74
     3
 75
     0
 76
     0
 77
     0
 78
     0
  0
ENDTAB
  0
TABLE
  2
LTYPE
 70
    51
  0
LTYPE
  2
CONTINUOUS
 70
     0
  3
Solid line
 72
    65
 73
     0
 40
0.0
  0
LTYPE
  2
ACAD_ISO10W100
 70
     0
  3
ISO dash dot __ . __ . __ . __ . __ . __ . __ . 
 72
    65
 73
     4
 40
18.0
 49
12.0
 49
-3.0
 49
0.0
 49
-3.0
  0
LTYPE
  2
ACAD_ISO13W100
 70
     0
  3
ISO double-dash double-dot __ __ . . __ __ . . _
 72
    65
 73
     8
 40
36.0
 49
12.0
 49
-3.0
 49
12.0
 49
-3.0
 49
0.0
 49
-3.0
 49
0.0
 49
-3.0
  0
LTYPE
  2
ACAD_ISO08W100
 70
     0
  3
ISO long-dash short-dash ____ __ ____ __ ____ _
 72
    65
 73
     4
 40
36.0
 49
24.0
 49
-3.0
 49
6.0
 49
-3.0
  0
LTYPE
  2
CENTER2
 70
     0
  3
Center (.5x) ___ _ ___ _ ___ _ ___ _ ___ _ ___
 72
    65
 73
     4
 40
28.575
 49
19.05
 49
-3.175
 49
3.175
 49
-3.175
  0
LTYPE
  2
CENTERX2
 70
     0
  3
Center (2x) ________  __  ________  __  _____
 72
    65
 73
     4
 40
101.6
 49
63.5
 49
-12.7
 49
12.7
 49
-12.7
  0
LTYPE
  2
DASHED2
 70
     0
  3
Dashed (.5x) _ _ _ _ _ _ _ _ _ _ _ _ _ _ _ _ _ 
 72
    65
 73
     2
 40
9.524999999999999
 49
6.35
 49
-3.175
  0
LTYPE
  2
ACAD_ISO07W100
 70
     0
  3
ISO dot . . . . . . . . . . . . . . . . . . . . 
 72
    65
 73
     2
 40
3.0
 49
0.0
 49
-3.0
  0
LTYPE
  2
DASHEDX2
 70
     0
  3
Dashed (2x) ____  ____  ____  ____  ____  ___
 72
    65
 73
     2
 40
38.09999999999999
 49
25.4
 49
-12.7
  0
LTYPE
  2
HIDDEN2
 70
     0
  3
Hidden (.5x) _ _ _ _ _ _ _ _ _ _ _ _ _ _ _ _ _ 
 72
    65
 73
     2
 40
4.762499999999999
 49
3.175
 49
-1.5875
  0
LTYPE
  2
BORDER2
 70
     0
  3
Border (.5x) __.__.__.__.__.__.__.__.__.__.__.
 72
    65
 73
     6
 40
22.225
 49
6.35
 49
-3.175
 49
6.35
 49
-3.175
 49
0.0
 49
-3.175
  0
LTYPE
  2
DASHDOT
 70
     0
  3
Dash dot __ . __ . __ . __ . __ . __ . __ . __
 72
    65
 73
     4
 40
25.4
 49
12.7
 49
-6.35
 49
0.0
 49
-6.35
  0
LTYPE
  2
HOT_WATER_SUPPLY
 70
     0
  3
Hot water supply ---- HW ---- HW ---- HW ----
 72
    65
 73
     3
 40
22.86
 49
12.7
 49
-5.08
 49
-5.08
  0
LTYPE
  2
ACAD_ISO14W100
 70
     0
  3
ISO dash triple-dot __ . . . __ . . . __ . . . _
 72
    65
 73
     8
 40
24.0
 49
12.0
 49
-3.0
 49
0.0
 49
-3.0
 49
0.0
 49
-3.0
 49
0.0
 49
-3.0
  0
LTYPE
  2
HIDDENX2
 70
     0
  3
Hidden (2x) ____ ____ ____ ____ ____ ____ ____ 
 72
    65
 73
     2
 40
19.05
 49
12.7
 49
-6.35
  0
LTYPE
  2
DIVIDEX2
 70
     0
  3
Divide (2x) ________  .  .  ________  .  .  _
 72
    65
 73
     6
 40
63.5
 49
25.4
 49
-12.7
 49
0.0
 49
-12.7
 49
0.0
 49
-12.7
  0
LTYPE
  2
ACAD_ISO12W100
 70
     0
  3
ISO dash double-dot __ . . __ . . __ . . __ . . 
 72
    65
 73
     6
 40
21.0
 49
12.0
 49
-3.0
 49
0.0
 49
-3.0
 49
0.0
 49
-3.0
  0
LTYPE
  2
ACAD_ISO02W100
 70
     0
  3
ISO dash __ __ __ __ __ __ __ __ __ __ __ __ __
 72
    65
 73
     2
 40
15.0
 49
12.0
 49
-3.0
  0
LTYPE
  2
DASHED
 70
     0
  3
Dashed __ __ __ __ __ __ __ __ __ __ __ __ __ _
 72
    65
 73
     2
 40
19.05
 49
12.7
 49
-6.35
  0
LTYPE
  2
BORDERX2
 70
     0
  3
Border (2x) ____  ____  .  ____  ____  .  ___
 72
    65
 73
     6
 40
88.89999999999999
 49
25.4
 49
-12.7
 49
25.4
 49
-12.7
 49
0.0
 49
-12.7
  0
LTYPE
  2
HIDDEN
 70
     0
  3
Hidden __ __ __ __ __ __ __ __ __ __ __ __ __ __
 72
    65
 73
     2
 40
9.524999999999999
 49
6.35
 49
-3.175
  0
LTYPE
  2
GAS_LINE
 70
     0
  3
Gas line ----GAS----GAS----GAS----GAS----GAS----GAS--
 72
    65
 73
     3
 40
24.13
 49
12.7
 49
-5.08
 49
-6.35
  0
LTYPE
  2
DIVIDE
 70
     0
  3
Divide ____ . . ____ . . ____ . . ____ . . ____
 72
    65
 73
     6
 40
31.75
 49
12.7
 49
-6.35
 49
0.0
 49
-6.35
 49
0.0
 49
-6.35
  0
LTYPE
  2
ACAD_ISO03W100
 70
     0
  3
ISO dash space __    __    __    __    __    __
 72
    65
 73
     2
 40
30.0
 49
12.0
 49
-18.0
  0
LTYPE
  2
ACAD_ISO15W100
 70
     0
  3
ISO double-dash triple-dot __ __ . . . __ __ . .
 72
    65
 73
    10
 40
39.0
 49
12.0
 49
-3.0
 49
12.0
 49
-3.0
 49
0.0
 49
-3.0
 49
0.0
 49
-3.0
 49
0.0
 49
-3.0
  0
LTYPE
  2
FENCELINE2
 70
     0
  3
Fenceline square ----[]-----[]----[]-----[]----[]---
 72
    65
 73
     4
 40
36.83
 49
6.35
 49
-2.54
 49
-2.54
 49
25.4
  0
LTYPE
  2
ACAD_ISO05W100
 70
     0
  3
ISO long-dash double-dot ____ .. ____ .. ____ . 
 72
    65
 73
     6
 40
33.0
 49
24.0
 49
-3.0
 49
0.0
 49
-3.0
 49
0.0
 49
-3.0
  0
LTYPE
  2
POINT1
 70
     0
  3
----/\-----/\---
 72
    65
 73
     2
 40
31.26232
 49
25.4
 49
-5.86232
  0
LTYPE
  2
DIVIDE2
 70
     0
  3
Divide (.5x) __..__..__..__..__..__..__..__.._
 72
    65
 73
     6
 40
15.875
 49
6.35
 49
-3.175
 49
0.0
 49
-3.175
 49
0.0
 49
-3.175
  0
LTYPE
  2
BATTING
 70
     0
  3
Batting SSSSSSSSSSSSSSSSSSSSSSSSSSSSSSSSSSSSSSSSSSSSSSS
 72
    65
 73
     4
 40
10.16254
 49
0.00254
 49
-2.54
 49
-5.08
 49
-2.54
  0
LTYPE
  2
DRAINAGE
 70
     0
  3
Drainage ---->---->---->----
 72
    65
 73
     2
 40
10.16
 49
5.08
 49
5.08
  0
LTYPE
  2
PHANTOM2
 70
     0
  3
Phantom (.5x) ___ _ _ ___ _ _ ___ _ _ ___ _ _
 72
    65
 73
     6
 40
31.75
 49
15.875
 49
-3.175
 49
3.175
 49
-3.175
 49
3.175
 49
-3.175
  0
LTYPE
  2
CENTER
 70
     0
  3
Center ____ _ ____ _ ____ _ ____ _ ____ _ ____
 72
    65
 73
     4
 40
50.8
 49
31.75
 49
-6.35
 49
6.35
 49
-6.35
  0
LTYPE
  2
FENCELINE1
 70
     0
  3
Fenceline circle ----0-----0----0-----0----0-----0--
 72
    65
 73
     4
 40
36.83
 49
6.35
 49
-2.54
 49
-2.54
 49
25.4
  0
LTYPE
  2
DOT2
 70
     0
  3
Dot (.5x) ........................................
 72
    65
 73
     2
 40
3.175
 49
0.0
 49
-3.175
  0
LTYPE
  2
TRACKS
 70
     0
  3
Tracks -|-|-|-|-|-|-|-|-|-|-|-|-|-|-|-|-|-|-|-|-|-|-|-|-
 72
    65
 73
     2
 40
7.62
 49
3.81
 49
3.81
  0
LTYPE
  2
BORDER
 70
     0
  3
Border __ __ . __ __ . __ __ . __ __ . __ __ .
 72
    65
 73
     6
 40
44.45
 49
12.7
 49
-6.35
 49
12.7
 49
-6.35
 49
0.0
 49
-6.35
  0
LTYPE
  2
DOT
 70
     0
  3
Dot . . . . . . . . . . . . . . . . . . . . . . . .
 72
    65
 73
     2
 40
6.35
 49
0.0
 49
-6.35
  0
LTYPE
  2
DRAINAGE2
 70
     0
  3
Drainage reversed----<----<----<----
 72
    65
 73
     2
 40
10.16
 49
5.08
 49
5.08
  0
LTYPE
  2
DOTX2
 70
     0
  3
Dot (2x) .  .  .  .  .  .  .  .  .  .  .  .  .  .
 72
    65
 73
     2
 40
12.7
 49
0.0
 49
-12.7
  0
LTYPE
  2
PLANT
 70
     0
  3
_/^ \_\^ \_
 72
    65
 73
     7
 40
21.94
 49
0.01
 49
-3.0
 49
-3.15
 49
-4.23
 49
-4.63
 49
-2.5
 49
-4.42
  0
LTYPE
  2
DASHDOTX2
 70
     0
  3
Dash dot (2x) ____  .  ____  .  ____  .  ___
 72
    65
 73
     4
 40
50.8
 49
25.4
 49
-12.7
 49
0.0
 49
-12.7
  0
LTYPE
  2
ACAD_ISO09W100
 70
     0
  3
ISO long-dash double-short-dash ____ __ __ ____
 72
    65
 73
     6
 40
45.0
 49
24.0
 49
-3.0
 49
6.0
 49
-3.0
 49
6.0
 49
-3.0
  0
LTYPE
  2
ZIGZAG
 70
     0
  3
Zig zag /\/\/\/\/\/\/\/\/\/\/\/\/\/\/\/\/\/\/\/\/\/\/\/
 72
    65
 73
     4
 40
20.32254
 49
0.00254
 49
-5.08
 49
-10.16
 49
-5.08
  0
LTYPE
  2
DASHDOT2
 70
     0
  3
Dash dot (.5x) _._._._._._._._._._._._._._._.
 72
    65
 73
     4
 40
12.7
 49
6.35
 49
-3.175
 49
0.0
 49
-3.175
  0
LTYPE
  2
ACAD_ISO04W100
 70
     0
  3
ISO long-dash dot ____ . ____ . ____ . ____ . _
 72
    65
 73
     4
 40
30.0
 49
24.0
 49
-3.0
 49
0.0
 49
-3.0
  0
LTYPE
  2
PHANTOM
 70
     0
  3
Phantom ______  __  __  ______  __  __  ______ 
 72
    65
 73
     6
 40
63.50000000000001
 49
31.75
 49
-6.35
 49
6.35
 49
-6.35
 49
6.35
 49
-6.35
  0
LTYPE
  2
ACAD_ISO06W100
 70
     0
  3
ISO long-dash triple-dot ____ ... ____ ... ____
 72
    65
 73
     8
 40
36.0
 49
24.0
 49
-3.0
 49
0.0
 49
-3.0
 49
0.0
 49
-3.0
 49
0.0
 49
-3.0
  0
LTYPE
  2
ACAD_ISO11W100
 70
     0
  3
ISO double-dash dot __ __ . __ __ . __ __ . __ _
 72
    65
 73
     6
 40
33.0
 49
12.0
 49
-3.0
 49
12.0
 49
-3.0
 49
0.0
 49
-3.0
  0
LTYPE
  2
POINT2
 70
     0
  3
----\/-----\/---
 72
    65
 73
     2
 40
31.26232
 49
25.4
 49
-5.86232
  0
LTYPE
  2
PHANTOMX2
 70
     0
  3
Phantom (2x) ____________    ____    ____   _
 72
    65
 73
     6
 40
127.0
 49
63.5
 49
-12.7
 49
12.7
 49
-12.7
 49
12.7
 49
-12.7
  0
ENDTAB
  0
TABLE
  2
LAYER
 70
     2
  0
LAYER
  2
0
 70
     0
 62
     7
  6
CONTINUOUS
  0
LAYER
  2
LAYER0
 70
     0
 62
     7
  6
CONTINUOUS
  0
ENDTAB
  0
TABLE
  2
STYLE
 70
     5
  0
STYLE
  2
STANDARD
 70
     0
 40
0.0
 41
1.0
 50
0.0
 71
     0
 42
0.2
  3
txt
  4

  0
STYLE
  2
QCADDIMTEXTSTYLE
 70
     0
 40
0.0
 41
1.0
 50
0.0
 71
     0
 42
0.2
  3
Academy Engraved LET Fonts.ttf
  4

  0
STYLE
  2
TEXTSTYLE0
 70
     0
 40
0.0
 41
1.0
 50
0.0
 71
     0
 42
0.2
  3
STANDARD
  4

  0
STYLE
  2
TEXTSTYLE1
 70
     0
 40
0.0
 41
1.0
 50
0.0
 71
     0
 42
0.2
  3
ltypeshp.shx
  4

  0
STYLE
  2
TEXTSTYLE2
 70
     0
 40
0.0
 41
1.0
 50
0.0
 71
     0
 42
0.2
  3
qcadshp.shx
  4

  0
ENDTAB
  0
TABLE
  2
VIEW
 70
     0
  0
ENDTAB
  0
TABLE
  2
UCS
 70
     0
  0
ENDTAB
  0
TABLE
  2
APPID
 70
     2
  0
APPID
  2
ACAD
 70
     0
  0
APPID
  2
QCAD
 70
     0
  0
ENDTAB
  0
TABLE
  2
DIMSTYLE
 70
     2
  0
DIMSTYLE
  2
STANDARD
 70
     0
  3

  4

  5

  6

  7

 40
1.0
 41
0.18
 42
0.0625
 43
0.38
 44
0.18
 45
0.0
 46
0.0
 47
0.0
 48
0.0
140
0.18
141
0.09
142
0.0
143
25.4
144
1.0
145
0.0
146
1.0
147
0.09
 71
     0
 72
     0
 73
     1
 74
     1
 75
     0
 76
     0
 77
     0
 78
     0
170
     0
171
     2
172
     0
173
     0
174
     0
175
     0
176
     0
177
     0
178
     0
  0
DIMSTYLE
  2
QCADDIMSTYLE
 70
     0
  3

  4

  5

  6

  7

 40
1.0
 41
2.5
 42
0.625
 43
5.0
 44
1.25
 45
0.0
 46
0.0
 47
0.0
 48
0.0
140
2.5
141
0.09
142
0.0
143
25.4
144
1.0
145
0.0
146
1.0
147
0.625
 71
     0
 72
     0
 73
     0
 74
     1
 75
     0
 76
     0
 77
     1
 78
     8
170
     0
171
     2
172
     0
173
     0
174
     0
175
     0
176
     0
177
     0
178
   256
  0
ENDTAB
  0
ENDSEC
  0
SECTION
  2
BLOCKS
  0
BLOCK
  8
0
  2
$MODEL_SPACE
 70
     0
 10
0.0
 20
0.0
 30
0.0
  3
$MODEL_SPACE
  1

  0
ENDBLK
  5
81
  8
0
  0
BLOCK
 67
     1
  8
0
  2
$PAPER_SPACE
 70
     0
 10
0.0
 20
0.0
 30
0.0
  3
$PAPER_SPACE
  1

  0
ENDBLK
  5
7D
 67
     1
  8
0
  0
ENDSEC
  0
SECTION
  2
ENTITIES
  0
POLYLINE
  5
3D
  8
LAYER0
 66
     1
 10
0.0
 20
0.0
 30
0.0
 70
     1
  0
VERTEX
  5
134
  8
LAYER0
 10
5.006111923430467
 20
277.2673595081832
 30
0.0
 42
0.4142135623730951
  0
VERTEX
  5
135
  8
LAYER0
 10
2.456111923430512
 20
274.717359508183
 30
0.0
 42
0.4142135623730951
  0
VERTEX
  5
136
  8
LAYER0
 10
5.006111923430467
 20
272.1673595081833
 30
0.0
 42
0.4142135623730951
  0
VERTEX
  5
137
  8
LAYER0
 10
7.556111923430649
 20
274.717359508183
 30
0.0
 42
0.4142135623730951
  0
SEQEND
  5
1E9
  8
LAYER0
  0
POLYLINE
  5
3E
  8
LAYER0
 66
     1
 10
0.0
 20
0.0
 30
0.0
 70
     1
  0
VERTEX
  5
138
  8
LAYER0
 10
140.0035249979518
 20
165.8321445683831
 30
0.0
 42
0.4142135623730951
  0
VERTEX
  5
139
  8
LAYER0
 10
137.4535249979516
 20
163.2821445683834
 30
0.0
 42
0.4142135623730951
  0
VERTEX
  5
13A
  8
LAYER0
 10
140.0035249979518
 20
160.7321445683832
 30
0.0
 42
0.4142135623730951
  0
VERTEX
  5
13B
  8
LAYER0
 10
142.5535249979517
 20
163.2821445683834
 30
0.0
 42
0.4142135623730951
  0
SEQEND
  5
1EA
  8
LAYER0
  0
POLYLINE
  5
3F
  8
LAYER0
 66
     1
 10
0.0
 20
0.0
 30
0.0
 70
     1
  0
VERTEX
  5
13C
  8
LAYER0
 10
140.0047594988099
 20
220.9187520207855
 30
0.0
 42
0.4142135623730951
  0
VERTEX
  5
13D
  8
LAYER0
 10
137.4547594988097
 20
218.3687520207853
 30
0.0
 42
0.4142135623730951
  0
VERTEX
  5
13E
  8
LAYER0
 10
140.0047594988099
 20
215.8187520207856
 30
0.0
 42
0.4142135623730951
  0
VERTEX
  5
13F
  8
LAYER0
 10
142.5547594988096
 20
218.3687520207853
 30
0.0
 42
0.4142135623730951
  0
SEQEND
  5
1EB
  8
LAYER0
  0
POLYLINE
  5
40
  8
LAYER0
 66
     1
 10
0.0
 20
0.0
 30
0.0
 70
     1
  0
VERTEX
  5
140
  8
LAYER0
 10
5.003525065325107
 20
165.8351699434064
 30
0.0
 42
0.4142135623730951
  0
VERTEX
  5
141
  8
LAYER0
 10
2.453525065325152
 20
163.2851699434067
 30
0.0
 42
0.4142135623730951
  0
VERTEX
  5
142
  8
LAYER0
 10
5.003525065325107
 20
160.7351699434065
 30
0.0
 42
0.4142135623730951
  0
VERTEX
  5
143
  8
LAYER0
 10
7.553525065325061
 20
163.2851699434067
 30
0.0
 42
0.4142135623730951
  0
SEQEND
  5
1EC
  8
LAYER0
  0
POLYLINE
  5
41
  8
LAYER0
 66
     1
 10
0.0
 20
0.0
 30
0.0
 70
     1
  0
VERTEX
  5
144
  8
LAYER0
 10
5.004849208324117
 20
220.9217773947247
 30
0.0
 42
0.4142135623730951
  0
VERTEX
  5
145
  8
LAYER0
 10
2.454849208324163
 20
218.3717773947245
 30
0.0
 42
0.4142135623730951
  0
VERTEX
  5
146
  8
LAYER0
 10
5.004849208324117
 20
215.8217773947248
 30
0.0
 42
0.4142135623730951
  0
VERTEX
  5
147
  8
LAYER0
 10
7.554849208324072
 20
218.3717773947245
 30
0.0
 42
0.4142135623730951
  0
SEQEND
  5
1ED
  8
LAYER0
  0
POLYLINE
  5
42
  8
LAYER0
 66
     1
 10
0.0
 20
0.0
 30
0.0
 70
     1
  0
VERTEX
  5
148
  8
LAYER0
 10
140.0060222144433
 20
277.2643341337679
 30
0.0
 42
0.4142135623730951
  0
VERTEX
  5
149
  8
LAYER0
 10
137.4560222144431
 20
274.7143341337672
 30
0.0
 42
0.4142135623730951
  0
VERTEX
  5
14A
  8
LAYER0
 10
140.0060222144433
 20
272.1643341337679
 30
0.0
 42
0.4142135623730951
  0
VERTEX
  5
14B
  8
LAYER0
 10
142.556022214443
 20
274.7143341337672
 30
0.0
 42
0.4142135623730951
  0
SEQEND
  5
1EE
  8
LAYER0
  0
POLYLINE
  5
43
  8
LAYER0
 66
     1
 10
0.0
 20
0.0
 30
0.0
 70
     1
  0
VERTEX
  5
14C
  8
LAYER0
 10
105.023289733428
 20
89.36705935871781
 30
0.0
 42
-0.4142135623730951
  0
VERTEX
  5
14D
  8
LAYER0
 10
109.523289733428
 20
84.86705935871781
 30
0.0
 42
-0.4142135623730951
  0
VERTEX
  5
14E
  8
LAYER0
 10
105.023289733428
 20
80.36705935871781
 30
0.0
 42
-0.4142135623730951
  0
VERTEX
  5
14F
  8
LAYER0
 10
100.523289733428
 20
84.86705935871781
 30
0.0
 42
-0.4142135623730951
  0
SEQEND
  5
1EF
  8
LAYER0
  0
POLYLINE
  5
44
  8
LAYER0
 66
     1
 10
0.0
 20
0.0
 30
0.0
 70
     1
  0
VERTEX
  5
150
  8
LAYER0
 10
82.51017836399171
 20
14.99809572038841
 30
0.0
 42
0.4142135623730951
  0
VERTEX
  5
151
  8
LAYER0
 10
77.51017836399171
 20
9.998095720388406
 30
0.0
 42
0.4142135623730951
  0
VERTEX
  5
152
  8
LAYER0
 10
82.51017836399171
 20
4.998095720388378
 30
0.0
 42
0.4142135623730951
  0
VERTEX
  5
153
  8
LAYER0
 10
87.51017836399171
 20
9.998095720388406
 30
0.0
 42
0.4142135623730951
  0
SEQEND
  5
1F0
  8
LAYER0
  0
POLYLINE
  5
45
  8
LAYER0
 66
     1
 10
0.0
 20
0.0
 30
0.0
 70
     1
  0
VERTEX
  5
154
  8
LAYER0
 10
105.0225277867625
 20
55.36705936776461
 30
0.0
 42
-0.4142135623730951
  0
VERTEX
  5
155
  8
LAYER0
 10
109.5225277867625
 20
50.86705936776461
 30
0.0
 42
-0.4142135623730951
  0
VERTEX
  5
156
  8
LAYER0
 10
105.0225277867625
 20
46.36705936776461
 30
0.0
 42
-0.4142135623730951
  0
VERTEX
  5
157
  8
LAYER0
 10
100.5225277867625
 20
50.86705936776461
 30
0.0
 42
-0.4142135623730951
  0
SEQEND
  5
1F1
  8
LAYER0
  0
POLYLINE
  5
46
  8
LAYER0
 66
     1
 10
0.0
 20
0.0
 30
0.0
 70
     1
  0
VERTEX
  5
158
  8
LAYER0
 10
62.51017836729091
 20
14.99773505642361
 30
0.0
 42
0.4142135623730951
  0
VERTEX
  5
159
  8
LAYER0
 10
57.51017836729091
 20
9.997735056423608
 30
0.0
 42
0.4142135623730951
  0
VERTEX
  5
15A
  8
LAYER0
 10
62.51017836729091
 20
4.997735056423593
 30
0.0
 42
0.4142135623730951
  0
VERTEX
  5
15B
  8
LAYER0
 10
67.5101783672909
 20
9.997735056423608
 30
0.0
 42
0.4142135623730951
  0
SEQEND
  5
1F2
  8
LAYER0
  0
POLYLINE
  5
47
  8
LAYER0
 66
     1
 10
0.0
 20
0.0
 30
0.0
 70
     1
  0
VERTEX
  5
15C
  8
LAYER0
 10
40.02252781959976
 20
55.3685160296575
 30
0.0
 42
-0.4142135623730951
  0
VERTEX
  5
15D
  8
LAYER0
 10
44.52252781959976
 20
50.8685160296575
 30
0.0
 42
-0.4142135623730951
  0
VERTEX
  5
15E
  8
LAYER0
 10
40.02252781959976
 20
46.3685160296575
 30
0.0
 42
-0.4142135623730951
  0
VERTEX
  5
15F
  8
LAYER0
 10
35.52252781959976
 20
50.8685160296575
 30
0.0
 42
-0.4142135623730951
  0
SEQEND
  5
1F3
  8
LAYER0
  0
POLYLINE
  5
48
  8
LAYER0
 66
     1
 10
0.0
 20
0.0
 30
0.0
 70
     1
  0
VERTEX
  5
160
  8
LAYER0
 10
105.0238723982737
 20
115.3670593523174
 30
0.0
 42
-0.4142135623730951
  0
VERTEX
  5
161
  8
LAYER0
 10
109.5238723982735
 20
110.8670593523174
 30
0.0
 42
-0.4142135623730951
  0
VERTEX
  5
162
  8
LAYER0
 10
105.0238723982737
 20
106.3670593523174
 30
0.0
 42
-0.4142135623730951
  0
VERTEX
  5
163
  8
LAYER0
 10
100.5238723982737
 20
110.8670593523174
 30
0.0
 42
-0.4142135623730951
  0
SEQEND
  5
1F4
  8
LAYER0
  0
POLYLINE
  5
49
  8
LAYER0
 66
     1
 10
0.0
 20
0.0
 30
0.0
 70
     1
  0
VERTEX
  5
164
  8
LAYER0
 10
105.0219451218871
 20
29.3670593742515
 30
0.0
 42
-0.4142135623730951
  0
VERTEX
  5
165
  8
LAYER0
 10
109.5219451218871
 20
24.8670593742515
 30
0.0
 42
-0.4142135623730951
  0
VERTEX
  5
166
  8
LAYER0
 10
105.0219451218871
 20
20.3670593742515
 30
0.0
 42
-0.4142135623730951
  0
VERTEX
  5
167
  8
LAYER0
 10
100.5219451218871
 20
24.8670593742515
 30
0.0
 42
-0.4142135623730951
  0
SEQEND
  5
1F5
  8
LAYER0
  0
POLYLINE
  5
4A
  8
LAYER0
 66
     1
 10
0.0
 20
0.0
 30
0.0
 70
     1
  0
VERTEX
  5
168
  8
LAYER0
 10
40.02194515451345
 20
29.368516036481
 30
0.0
 42
-0.4142135623730951
  0
VERTEX
  5
169
  8
LAYER0
 10
44.52194515451345
 20
24.868516036481
 30
0.0
 42
-0.4142135623730951
  0
VERTEX
  5
16A
  8
LAYER0
 10
40.02194515451345
 20
20.368516036481
 30
0.0
 42
-0.4142135623730951
  0
VERTEX
  5
16B
  8
LAYER0
 10
35.52194515451345
 20
24.868516036481
 30
0.0
 42
-0.4142135623730951
  0
SEQEND
  5
1F6
  8
LAYER0
  0
POLYLINE
  5
4B
  8
LAYER0
 66
     1
 10
0.0
 20
0.0
 30
0.0
 70
     1
  0
VERTEX
  5
16C
  8
LAYER0
 10
14.02252783266829
 20
55.36909869453551
 30
0.0
 42
-0.4142135623730951
  0
VERTEX
  5
16D
  8
LAYER0
 10
18.52252783266829
 20
50.86909869453551
 30
0.0
 42
-0.4142135623730951
  0
VERTEX
  5
16E
  8
LAYER0
 10
14.02252783266829
 20
46.36909869453551
 30
0.0
 42
-0.4142135623730951
  0
VERTEX
  5
16F
  8
LAYER0
 10
9.522527832668288
 20
50.86909869453551
 30
0.0
 42
-0.4142135623730951
  0
SEQEND
  5
1F7
  8
LAYER0
  0
POLYLINE
  5
4C
  8
LAYER0
 66
     1
 10
0.0
 20
0.0
 30
0.0
 70
     1
  0
VERTEX
  5
170
  8
LAYER0
 10
40.02328976589718
 20
89.3685160213147
 30
0.0
 42
-0.4142135623730951
  0
VERTEX
  5
171
  8
LAYER0
 10
44.52328976589718
 20
84.8685160213147
 30
0.0
 42
-0.4142135623730951
  0
VERTEX
  5
172
  8
LAYER0
 10
40.02328976589718
 20
80.3685160213147
 30
0.0
 42
-0.4142135623730951
  0
VERTEX
  5
173
  8
LAYER0
 10
35.52328976589718
 20
84.8685160213147
 30
0.0
 42
-0.4142135623730951
  0
SEQEND
  5
1F8
  8
LAYER0
  0
POLYLINE
  5
4D
  8
LAYER0
 66
     1
 10
0.0
 20
0.0
 30
0.0
 70
     1
  0
VERTEX
  5
174
  8
LAYER0
 10
14.02387244419185
 20
115.3690986790719
 30
0.0
 42
-0.4142135623730951
  0
VERTEX
  5
175
  8
LAYER0
 10
18.52387244419185
 20
110.8690986790719
 30
0.0
 42
-0.4142135623730951
  0
VERTEX
  5
176
  8
LAYER0
 10
14.02387244419185
 20
106.3690986790719
 30
0.0
 42
-0.4142135623730951
  0
VERTEX
  5
177
  8
LAYER0
 10
9.523872444191852
 20
110.8690986790719
 30
0.0
 42
-0.4142135623730951
  0
SEQEND
  5
1F9
  8
LAYER0
  0
POLYLINE
  5
4E
  8
LAYER0
 66
     1
 10
0.0
 20
0.0
 30
0.0
 70
     1
  0
VERTEX
  5
178
  8
LAYER0
 10
40.02387243100691
 20
115.3685160143954
 30
0.0
 42
-0.4142135623730951
  0
VERTEX
  5
179
  8
LAYER0
 10
44.52387243100691
 20
110.8685160143954
 30
0.0
 42
-0.4142135623730951
  0
VERTEX
  5
17A
  8
LAYER0
 10
40.02387243100691
 20
106.3685160143954
 30
0.0
 42
-0.4142135623730951
  0
VERTEX
  5
17B
  8
LAYER0
 10
35.52387243100691
 20
110.8685160143954
 30
0.0
 42
-0.4142135623730951
  0
SEQEND
  5
1FA
  8
LAYER0
  0
POLYLINE
  5
4F
  8
LAYER0
 66
     1
 10
0.0
 20
0.0
 30
0.0
 70
     1
  0
VERTEX
  5
17C
  8
LAYER0
 10
131.0238723851984
 20
115.3664766874252
 30
0.0
 42
-0.4142135623730951
  0
VERTEX
  5
17D
  8
LAYER0
 10
135.5238723851984
 20
110.8664766874252
 30
0.0
 42
-0.4142135623730951
  0
VERTEX
  5
17E
  8
LAYER0
 10
131.0238723851984
 20
106.3664766874252
 30
0.0
 42
-0.4142135623730951
  0
VERTEX
  5
17F
  8
LAYER0
 10
126.5238723851984
 20
110.8664766874252
 30
0.0
 42
-0.4142135623730951
  0
SEQEND
  5
1FB
  8
LAYER0
  0
POLYLINE
  5
50
  8
LAYER0
 66
     1
 10
0.0
 20
0.0
 30
0.0
 70
     1
  0
VERTEX
  5
180
  8
LAYER0
 10
131.0225277739868
 20
55.36647670231939
 30
0.0
 42
-0.4142135623730951
  0
VERTEX
  5
181
  8
LAYER0
 10
135.5225277739868
 20
50.86647670231939
 30
0.0
 42
-0.4142135623730951
  0
VERTEX
  5
182
  8
LAYER0
 10
131.0225277739868
 20
46.36647670231939
 30
0.0
 42
-0.4142135623730951
  0
VERTEX
  5
183
  8
LAYER0
 10
126.5225277739868
 20
50.86647670231939
 30
0.0
 42
-0.4142135623730951
  0
SEQEND
  5
1FC
  8
LAYER0
  0
POLYLINE
  5
51
  8
LAYER0
 66
     1
 10
0.0
 20
0.0
 30
0.0
 70
     1
  0
VERTEX
  5
184
  8
LAYER0
 10
145.5002166424764
 20
18.2173987291135
 30
0.0
 42
0.4142135623730951
  0
VERTEX
  5
185
  8
LAYER0
 10
142.9502166424762
 20
15.6673987291135
 30
0.0
 42
0.4142135623730951
  0
VERTEX
  5
186
  8
LAYER0
 10
145.5002166424764
 20
13.1173987291136
 30
0.0
 42
0.4142135623730951
  0
VERTEX
  5
187
  8
LAYER0
 10
148.0502166424766
 20
15.6673987291135
 30
0.0
 42
0.4142135623730951
  0
SEQEND
  5
1FD
  8
LAYER0
  0
POLYLINE
  5
52
  8
LAYER0
 66
     1
 10
0.0
 20
0.0
 30
0.0
 70
     1
  0
VERTEX
  5
188
  8
LAYER0
 10
145.5014379969169
 20
72.71739871657239
 30
0.0
 42
0.4142135623730951
  0
VERTEX
  5
189
  8
LAYER0
 10
142.9514379969168
 20
70.1673987165723
 30
0.0
 42
0.4142135623730951
  0
VERTEX
  5
18A
  8
LAYER0
 10
145.5014379969169
 20
67.61739871657251
 30
0.0
 42
0.4142135623730951
  0
VERTEX
  5
18B
  8
LAYER0
 10
148.0514379969167
 20
70.1673987165723
 30
0.0
 42
0.4142135623730951
  0
SEQEND
  5
1FE
  8
LAYER0
  0
POLYLINE
  5
53
  8
LAYER0
 66
     1
 10
0.0
 20
0.0
 30
0.0
 70
     1
  0
VERTEX
  5
18C
  8
LAYER0
 10
145.5026705581223
 20
122.2346179103518
 30
0.0
 42
0.4142135623730951
  0
VERTEX
  5
18D
  8
LAYER0
 10
142.9526705581221
 20
119.6846179103521
 30
0.0
 42
0.4142135623730951
  0
VERTEX
  5
18E
  8
LAYER0
 10
145.5026705581223
 20
117.1346179103519
 30
0.0
 42
0.4142135623730951
  0
VERTEX
  5
18F
  8
LAYER0
 10
148.052670558122
 20
119.6846179103521
 30
0.0
 42
0.4142135623730951
  0
SEQEND
  5
1FF
  8
LAYER0
  0
POLYLINE
  5
54
  8
LAYER0
 66
     1
 10
0.0
 20
0.0
 30
0.0
 70
     1
  0
VERTEX
  5
190
  8
LAYER0
 10
-0.4997832847938071
 20
18.2206706181255
 30
0.0
 42
0.4142135623730951
  0
VERTEX
  5
191
  8
LAYER0
 10
-3.049783284793989
 20
15.6706706181258
 30
0.0
 42
0.4142135623730951
  0
VERTEX
  5
192
  8
LAYER0
 10
-0.4997832847938071
 20
13.1206706181256
 30
0.0
 42
0.4142135623730951
  0
VERTEX
  5
193
  8
LAYER0
 10
2.050216715206147
 20
15.6706706181258
 30
0.0
 42
0.4142135623730951
  0
SEQEND
  5
200
  8
LAYER0
  0
POLYLINE
  5
55
  8
LAYER0
 66
     1
 10
0.0
 20
0.0
 30
0.0
 70
     1
  0
VERTEX
  5
194
  8
LAYER0
 10
-0.498561929815537
 20
72.7206706050715
 30
0.0
 42
0.4142135623730951
  0
VERTEX
  5
195
  8
LAYER0
 10
-3.048561929815492
 20
70.1706706050713
 30
0.0
 42
0.4142135623730951
  0
VERTEX
  5
196
  8
LAYER0
 10
-0.498561929815537
 20
67.6206706050716
 30
0.0
 42
0.4142135623730951
  0
VERTEX
  5
197
  8
LAYER0
 10
2.051438070184417
 20
70.1706706050713
 30
0.0
 42
0.4142135623730951
  0
SEQEND
  5
201
  8
LAYER0
  0
POLYLINE
  5
56
  8
LAYER0
 66
     1
 10
0.0
 20
0.0
 30
0.0
 70
     1
  0
VERTEX
  5
198
  8
LAYER0
 10
-0.4973293677963966
 20
122.2378897958928
 30
0.0
 42
0.4142135623730951
  0
VERTEX
  5
199
  8
LAYER0
 10
-3.047329367796351
 20
119.6878897958926
 30
0.0
 42
0.4142135623730951
  0
VERTEX
  5
19A
  8
LAYER0
 10
-0.4973293677963966
 20
117.1378897958929
 30
0.0
 42
0.4142135623730951
  0
VERTEX
  5
19B
  8
LAYER0
 10
2.052670632203558
 20
119.6878897958926
 30
0.0
 42
0.4142135623730951
  0
SEQEND
  5
202
  8
LAYER0
  0
POLYLINE
  5
57
  8
LAYER0
 66
     1
 10
0.0
 20
0.0
 30
0.0
 70
     1
  0
VERTEX
  5
19C
  8
LAYER0
 10
44.51119415825599
 20
45.99741050431119
 30
0.0
 42
0.4142135623730951
  0
VERTEX
  5
19D
  8
LAYER0
 10
42.51119415825599
 20
43.99741050431119
 30
0.0
 42
0.4142135623730951
  0
VERTEX
  5
19E
  8
LAYER0
 10
44.51119415825599
 20
41.99741050431119
 30
0.0
 42
0.4142135623730951
  0
VERTEX
  5
19F
  8
LAYER0
 10
46.51119415825599
 20
43.99741050431119
 30
0.0
 42
0.4142135623730951
  0
SEQEND
  5
203
  8
LAYER0
  0
POLYLINE
  5
58
  8
LAYER0
 66
     1
 10
0.0
 20
0.0
 30
0.0
 70
     1
  0
VERTEX
  5
1A0
  8
LAYER0
 10
100.5111941496292
 20
45.99842036388002
 30
0.0
 42
0.4142135623730951
  0
VERTEX
  5
1A1
  8
LAYER0
 10
98.5111941496292
 20
43.99842036388002
 30
0.0
 42
0.4142135623730951
  0
VERTEX
  5
1A2
  8
LAYER0
 10
100.5111941496292
 20
41.99842036388002
 30
0.0
 42
0.4142135623730951
  0
VERTEX
  5
1A3
  8
LAYER0
 10
102.5111941496292
 20
43.99842036388002
 30
0.0
 42
0.4142135623730951
  0
SEQEND
  5
204
  8
LAYER0
  0
POLYLINE
  5
59
  8
LAYER0
 66
     1
 10
0.0
 20
0.0
 30
0.0
 70
     1
  0
VERTEX
  5
1A4
  8
LAYER0
 10
44.5064256453644
 20
292.7274882716282
 30
0.0
  0
VERTEX
  5
1A5
  8
LAYER0
 10
53.50642564084603
 20
292.727286579934
 30
0.0
  0
VERTEX
  5
1A6
  8
LAYER0
 10
53.50658251216566
 20
299.727286578175
 30
0.0
  0
VERTEX
  5
1A7
  8
LAYER0
 10
91.5065824930806
 20
299.72643499102
 30
0.0
  0
VERTEX
  5
1A8
  8
LAYER0
 10
91.50642562176279
 20
292.7264349927781
 30
0.0
  0
VERTEX
  5
1A9
  8
LAYER0
 10
100.5064256172426
 20
292.726233301083
 30
0.0
  0
VERTEX
  5
1AA
  8
LAYER0
 10
100.5065824885604
 20
299.7262332993249
 30
0.0
  0
VERTEX
  5
1AB
  8
LAYER0
 10
150.0065824637005
 20
299.7251239950041
 30
0.0
  0
VERTEX
  5
1AC
  8
LAYER0
 10
150.0001119756088
 20
4.996638470498269
 30
0.0
  0
VERTEX
  5
1AD
  8
LAYER0
 10
149.9573216569169
 20
4.344008468173101
 30
0.0
  0
VERTEX
  5
1AE
  8
LAYER0
 10
149.8297121062222
 20
3.702547063353663
 30
0.0
  0
VERTEX
  5
1AF
  8
LAYER0
 10
149.6194667583167
 20
3.083229838523252
 30
0.0
  0
VERTEX
  5
1B0
  8
LAYER0
 10
149.3301829693954
 20
2.496653483105305
 30
0.0
  0
VERTEX
  5
1B1
  8
LAYER0
 10
148.9668104652918
 20
1.952854481171684
 30
0.0
  0
VERTEX
  5
1B2
  8
LAYER0
 10
148.5355666502963
 20
1.461137384413846
 30
0.0
  0
VERTEX
  5
1B3
  8
LAYER0
 10
148.0438302256442
 20
1.029915608688256
 30
0.0
  0
VERTEX
  5
1B4
  8
LAYER0
 10
147.5000149379031
 20
0.666567478133615
 30
0.0
  0
VERTEX
  5
1B5
  8
LAYER0
 10
146.913425617411
 20
0.3773099800041422
 30
0.0
  0
VERTEX
  5
1B6
  8
LAYER0
 10
146.2940989700818
 20
0.1670923902890848
 30
0.0
  0
VERTEX
  5
1B7
  8
LAYER0
 10
145.6526318465602
 20
0.0395115902324363
 30
0.0
  0
VERTEX
  5
1B8
  8
LAYER0
 10
144.9999999271785
 20
-0.0032494773049763
 30
0.0
  0
VERTEX
  5
1B9
  8
LAYER0
 10
0.0000000000001137
 20
-0.0000000000000142
 30
0.0
  0
VERTEX
  5
1BA
  8
LAYER0
 10
-0.6668405682520415
 20
0.044656940820218
 30
0.0
  0
VERTEX
  5
1BB
  8
LAYER0
 10
-1.321778178978889
 20
0.177800892610307
 30
0.0
  0
VERTEX
  5
1BC
  8
LAYER0
 10
-1.953124304976768
 20
0.3970556646056451
 30
0.0
  0
VERTEX
  5
1BD
  8
LAYER0
 10
-2.549611451078704
 20
0.698508265211089
 30
0.0
  0
VERTEX
  5
1BE
  8
LAYER0
 10
-3.100594242647162
 20
1.076778736301762
 30
0.0
  0
VERTEX
  5
1BF
  8
LAYER0
 10
-3.596239411228339
 20
1.525116168145118
 30
0.0
  0
VERTEX
  5
1C0
  8
LAYER0
 10
-4.027701286738989
 20
2.035519181403956
 30
0.0
  0
VERTEX
  5
1C1
  8
LAYER0
 10
-4.387279664169796
 20
2.598878725987774
 30
0.0
  0
VERTEX
  5
1C2
  8
LAYER0
 10
-4.668557227470842
 20
3.205140648262145
 30
0.0
  0
VERTEX
  5
1C3
  8
LAYER0
 10
-4.866514077959323
 20
3.84348512531254
 30
0.0
  0
VERTEX
  5
1C4
  8
LAYER0
 10
-4.977617323345726
 20
4.502519763942232
 30
0.0
  0
VERTEX
  5
1C5
  8
LAYER0
 10
-4.999884128504959
 20
5.170482918197862
 30
0.0
  0
VERTEX
  5
1C6
  8
LAYER0
 10
-4.999881854544469
 20
5.271952843559788
 30
0.0
  0
VERTEX
  5
1C7
  8
LAYER0
 10
-4.993417458455838
 20
299.728597574191
 30
0.0
  0
VERTEX
  5
1C8
  8
LAYER0
 10
44.50658251668403
 20
299.7274882698701
 30
0.0
  0
SEQEND
  5
205
  8
LAYER0
  0
POLYLINE
  5
5A
  8
LAYER0
 66
     1
 10
0.0
 20
0.0
 30
0.0
 70
     1
  0
VERTEX
  5
1C9
  8
LAYER0
 10
19.00444346995312
 20
198.6826311154142
 30
0.0
 42
0.4142135623730951
  0
VERTEX
  5
1CA
  8
LAYER0
 10
16.90444346995298
 20
196.5826311154143
 30
0.0
 42
0.4142135623730951
  0
VERTEX
  5
1CB
  8
LAYER0
 10
19.00444346995312
 20
194.4826311154145
 30
0.0
 42
0.4142135623730951
  0
VERTEX
  5
1CC
  8
LAYER0
 10
21.10444346995325
 20
196.5826311154143
 30
0.0
 42
0.4142135623730951
  0
SEQEND
  5
206
  8
LAYER0
  0
POLYLINE
  5
5B
  8
LAYER0
 66
     1
 10
0.0
 20
0.0
 30
0.0
 70
     1
  0
VERTEX
  5
1CD
  8
LAYER0
 10
19.00578807914633
 20
258.6826311050698
 30
0.0
 42
0.4142135623730951
  0
VERTEX
  5
1CE
  8
LAYER0
 10
16.90578807914619
 20
256.5826311050699
 30
0.0
 42
0.4142135623730951
  0
VERTEX
  5
1CF
  8
LAYER0
 10
19.00578807914633
 20
254.4826311050698
 30
0.0
 42
0.4142135623730951
  0
VERTEX
  5
1D0
  8
LAYER0
 10
21.10578807914624
 20
256.5826311050699
 30
0.0
 42
0.4142135623730951
  0
SEQEND
  5
207
  8
LAYER0
  0
POLYLINE
  5
5C
  8
LAYER0
 66
     1
 10
0.0
 20
0.0
 30
0.0
 70
     1
  0
VERTEX
  5
1D1
  8
LAYER0
 10
19.00175424357951
 20
78.68263115240869
 30
0.0
 42
0.4142135623730951
  0
VERTEX
  5
1D2
  8
LAYER0
 10
16.90175424357938
 20
76.5826311524087
 30
0.0
 42
0.4142135623730951
  0
VERTEX
  5
1D3
  8
LAYER0
 10
19.00175424357951
 20
74.48263115240862
 30
0.0
 42
0.4142135623730951
  0
VERTEX
  5
1D4
  8
LAYER0
 10
21.10175424357965
 20
76.5826311524087
 30
0.0
 42
0.4142135623730951
  0
SEQEND
  5
208
  8
LAYER0
  0
POLYLINE
  5
5D
  8
LAYER0
 66
     1
 10
0.0
 20
0.0
 30
0.0
 70
     1
  0
VERTEX
  5
1D5
  8
LAYER0
 10
19.00040963448271
 20
18.6826311626872
 30
0.0
 42
0.4142135623730951
  0
VERTEX
  5
1D6
  8
LAYER0
 10
16.90040963448257
 20
16.58263116268721
 30
0.0
 42
0.4142135623730951
  0
VERTEX
  5
1D7
  8
LAYER0
 10
19.00040963448271
 20
14.4826311626872
 30
0.0
 42
0.4142135623730951
  0
VERTEX
  5
1D8
  8
LAYER0
 10
21.10040963448262
 20
16.58263116268721
 30
0.0
 42
0.4142135623730951
  0
SEQEND
  5
209
  8
LAYER0
  0
POLYLINE
  5
5E
  8
LAYER0
 66
     1
 10
0.0
 20
0.0
 30
0.0
 70
     1
  0
VERTEX
  5
1D9
  8
LAYER0
 10
126.0044434135099
 20
198.6802332250969
 30
0.0
 42
0.4142135623730951
  0
VERTEX
  5
1DA
  8
LAYER0
 10
123.9044434135097
 20
196.5802332250968
 30
0.0
 42
0.4142135623730951
  0
VERTEX
  5
1DB
  8
LAYER0
 10
126.0044434135099
 20
194.480233225097
 30
0.0
 42
0.4142135623730951
  0
VERTEX
  5
1DC
  8
LAYER0
 10
128.10444341351
 20
196.5802332250968
 30
0.0
 42
0.4142135623730951
  0
SEQEND
  5
20A
  8
LAYER0
  0
POLYLINE
  5
5F
  8
LAYER0
 66
     1
 10
0.0
 20
0.0
 30
0.0
 70
     1
  0
VERTEX
  5
1DD
  8
LAYER0
 10
126.0057880258549
 20
258.6802332097878
 30
0.0
 42
0.4142135623730951
  0
VERTEX
  5
1DE
  8
LAYER0
 10
123.9057880258548
 20
256.5802332097877
 30
0.0
 42
0.4142135623730951
  0
VERTEX
  5
1DF
  8
LAYER0
 10
126.0057880258549
 20
254.4802332097878
 30
0.0
 42
0.4142135623730951
  0
VERTEX
  5
1E0
  8
LAYER0
 10
128.1057880258548
 20
256.5802332097877
 30
0.0
 42
0.4142135623730951
  0
SEQEND
  5
20B
  8
LAYER0
  0
POLYLINE
  5
60
  8
LAYER0
 66
     1
 10
0.0
 20
0.0
 30
0.0
 70
     1
  0
VERTEX
  5
1E1
  8
LAYER0
 10
126.0004095819298
 20
18.6802332717147
 30
0.0
 42
0.4142135623730951
  0
VERTEX
  5
1E2
  8
LAYER0
 10
123.9004095819299
 20
16.5802332717146
 30
0.0
 42
0.4142135623730951
  0
VERTEX
  5
1E3
  8
LAYER0
 10
126.0004095819298
 20
14.4802332717147
 30
0.0
 42
0.4142135623730951
  0
VERTEX
  5
1E4
  8
LAYER0
 10
128.1004095819297
 20
16.5802332717146
 30
0.0
 42
0.4142135623730951
  0
SEQEND
  5
20C
  8
LAYER0
  0
POLYLINE
  5
61
  8
LAYER0
 66
     1
 10
0.0
 20
0.0
 30
0.0
 70
     1
  0
VERTEX
  5
1E5
  8
LAYER0
 10
126.0017541928413
 20
78.6802332560372
 30
0.0
 42
0.4142135623730951
  0
VERTEX
  5
1E6
  8
LAYER0
 10
123.9017541928414
 20
76.5802332560372
 30
0.0
 42
0.4142135623730951
  0
VERTEX
  5
1E7
  8
LAYER0
 10
126.0017541928413
 20
74.48023325603721
 30
0.0
 42
0.4142135623730951
  0
VERTEX
  5
1E8
  8
LAYER0
 10
128.1017541928414
 20
76.5802332560372
 30
0.0
 42
0.4142135623730951
  0
SEQEND
  5
20D
  8
LAYER0
  0
VIEWPORT
  5
12B
 67
     1
  8
0
 10
128.5
 20
97.5
 30
0.0
 40
314.226
 41
222.18
 68
     1
 69
     1
1001
ACAD
1000
MVIEW
1002
{
1070
    16
1010
0.0
1020
0.0
1030
0.0
1010
0.0
1020
0.0
1030
1.0
1040
0.0
1040
222.18
1040
128.5
1040
97.5
1040
50.0
1040
0.0
1040
0.0
1070
     0
1070
   100
1070
     0
1070
     3
1070
     0
1070
     0
1070
     0
1070
     0
1040
0.0
1040
0.0
1040
0.0
1040
10.0
1040
10.0
1040
10.0
1040
10.0
1070
     0
1002
{
1002
}
1002
}
  0
ENDSEC
  0
EOF
