  0
SECTION
  2
HEADER
  9
$ACADVER
  1
AC1009
  9
$DWGCODEPAGE
  3
ansi_1252
  9
$INSBASE
 10
0.0
 20
0.0
 30
0.0
  9
$EXTMIN
 10
0.0000000000001137
 20
-0.0000000000003695
 30
0.0
  9
$EXTMAX
 10
150.0000000000001
 20
194.999999999999
 30
0.0
  9
$LIMMIN
 10
0.0
 20
0.0
  9
$LIMMAX
 10
12.0
 20
9.0
  9
$ORTHOMODE
 70
     0
  9
$REGENMODE
 70
     1
  9
$FILLMODE
 70
     1
  9
$QTEXTMODE
 70
     0
  9
$MIRRTEXT
 70
     0
  9
$DRAGMODE
 70
     2
  9
$LTSCALE
 40
1.0
  9
$OSMODE
 70
    37
  9
$ATTMODE
 70
     1
  9
$TEXTSIZE
 40
0.2
  9
$TRACEWID
 40
0.05
  9
$TEXTSTYLE
  7
STANDARD
  9
$CLAYER
  8
0
  9
$CELTYPE
  6
BYLAYER
  9
$CECOLOR
 62
   256
  9
$DIMSCALE
 40
1.0
  9
$DIMASZ
 40
2.5
  9
$DIMEXO
 40
0.625
  9
$DIMDLI
 40
5.0
  9
$DIMRND
 40
0.0
  9
$DIMDLE
 40
0.0
  9
$DIMEXE
 40
1.25
  9
$DIMTP
 40
0.0
  9
$DIMTM
 40
0.0
  9
$DIMTXT
 40
2.5
  9
$DIMCEN
 40
0.09
  9
$DIMTSZ
 40
0.0
  9
$DIMTOL
 70
     0
  9
$DIMLIM
 70
     0
  9
$DIMTIH
 70
     0
  9
$DIMTOH
 70
     1
  9
$DIMSE1
 70
     0
  9
$DIMSE2
 70
     0
  9
$DIMTAD
 70
     1
  9
$DIMZIN
 70
     8
  9
$DIMBLK
  1

  9
$DIMASO
 70
     1
  9
$DIMSHO
 70
     1
  9
$DIMPOST
  1

  9
$DIMAPOST
  1

  9
$DIMALT
 70
     0
  9
$DIMALTD
 70
     2
  9
$DIMALTF
 40
25.4
  9
$DIMLFAC
 40
1.0
  9
$DIMTOFL
 70
     0
  9
$DIMTVP
 40
0.0
  9
$DIMTIX
 70
     0
  9
$DIMSOXD
 70
     0
  9
$DIMSAH
 70
     0
  9
$DIMBLK1
  1

  9
$DIMBLK2
  1

  9
$DIMSTYLE
  2
STANDARD
  9
$DIMCLRD
 70
     0
  9
$DIMCLRE
 70
     0
  9
$DIMCLRT
 70
   256
  9
$DIMTFAC
 40
1.0
  9
$DIMGAP
 40
0.625
  9
$LUNITS
 70
     2
  9
$LUPREC
 70
     4
  9
$SKETCHINC
 40
0.1
  9
$FILLETRAD
 40
0.0
  9
$AUNITS
 70
     0
  9
$AUPREC
 70
     0
  9
$MENU
  1
.
  9
$ELEVATION
 40
0.0
  9
$PELEVATION
 40
0.0
  9
$THICKNESS
 40
0.0
  9
$LIMCHECK
 70
     0
  9
$CHAMFERA
 40
0.0
  9
$CHAMFERB
 40
0.0
  9
$SKPOLY
 70
     0
  9
$TDCREATE
 40
2461300.441253495
  9
$TDUPDATE
 40
2461300.4412536
  9
$TDINDWG
 40
0.0000000116
  9
$TDUSRTIMER
 40
0.0000000116
  9
$USRTIMER
 70
     1
  9
$ANGBASE
 50
0.0
  9
$ANGDIR
 70
     0
  9
$PDMODE
 70
     0
  9
$PDSIZE
 40
0.0
  9
$PLINEWID
 40
0.0
  9
$COORDS
 70
     1
  9
$SPLFRAME
 70
     0
  9
$SPLINETYPE
 70
     6
  9
$SPLINESEGS
 70
     8
  9
$ATTDIA
 70
     0
  9
$ATTREQ
 70
     1
  9
$HANDLING
 70
     1
  9
$HANDSEED
  5
211
  9
$SURFTAB1
 70
     6
  9
$SURFTAB2
 70
     6
  9
$SURFTYPE
 70
     6
  9
$SURFU
 70
     6
  9
$SURFV
 70
     6
  9
$UCSNAME
  2

  9
$UCSORG
 10
0.0
 20
0.0
 30
0.0
  9
$UCSXDIR
 10
1.0
 20
0.0
 30
0.0
  9
$UCSYDIR
 10
0.0
 20
1.0
 30
0.0
  9
$PUCSNAME
  2

  9
$PUCSORG
 10
0.0
 20
0.0
 30
0.0
  9
$PUCSXDIR
 10
1.0
 20
0.0
 30
0.0
  9
$PUCSYDIR
 10
0.0
 20
1.0
 30
0.0
  9
$USERI1
 70
     0
  9
$USERI2
 70
     0
  9
$USERI3
 70
     0
  9
$USERI4
 70
     0
  9
$USERI5
 70
     0
  9
$USERR1
 40
0.0
  9
$USERR2
 40
0.0
  9
$USERR3
 40
0.0
  9
$USERR4
 40
0.0
  9
$USERR5
 40
0.0
  9
$WORLDVIEW
 70
     1
  9
$SHADEDGE
 70
     3
  9
$SHADEDIF
 70
    70
  9
$TILEMODE
 70
     1
  9
$MAXACTVP
 70
    64
  9
$PLIMCHECK
 70
     0
  9
$PEXTMIN
 10
0.0
 20
0.0
 30
0.0
  9
$PEXTMAX
 10
0.0
 20
0.0
 30
0.0
  9
$PLIMMIN
 10
-20.0
 20
-7.5
  9
$PLIMMAX
 10
277.0
 20
202.5
  9
$UNITMODE
 70
     0
  9
$VISRETAIN
 70
     1
  9
$PLINEGEN
 70
     0
  9
$PSLTSCALE
 70
     1
  0
ENDSEC
  0
SECTION
  2
TABLES
  0
TABLE
  2
VPORT
 70
     1
  0
VPORT
  2
*ACTIVE
 70
     0
 10
0.0
 20
0.0
 11
1.0
 21
1.0
 12
10.42990654205607
 22
4.5
 13
0.0
 23
0.0
 14
0.5
 24
0.5
 15
0.5
 25
0.5
 16
0.0
 26
0.0
 36
1.0
 17
0.0
 27
0.0
 37
0.0
 40
9.0
 41
1.972972972850329
 42
50.0
 43
0.0
 44
0.0
 50
0.0
 51
0.0
 71
     0
 72
   100
 73
     1
 74
     3
 75
     0
 76
     0
 77
     0
 78
     0
  0
ENDTAB
  0
TABLE
  2
LTYPE
 70
    51
  0
LTYPE
  2
CONTINUOUS
 70
     0
  3
Solid line
 72
    65
 73
     0
 40
0.0
  0
LTYPE
  2
ACAD_ISO10W100
 70
     0
  3
ISO dash dot __ . __ . __ . __ . __ . __ . __ . 
 72
    65
 73
     4
 40
18.0
 49
12.0
 49
-3.0
 49
0.0
 49
-3.0
  0
LTYPE
  2
ACAD_ISO13W100
 70
     0
  3
ISO double-dash double-dot __ __ . . __ __ . . _
 72
    65
 73
     8
 40
36.0
 49
12.0
 49
-3.0
 49
12.0
 49
-3.0
 49
0.0
 49
-3.0
 49
0.0
 49
-3.0
  0
LTYPE
  2
ACAD_ISO08W100
 70
     0
  3
ISO long-dash short-dash ____ __ ____ __ ____ _
 72
    65
 73
     4
 40
36.0
 49
24.0
 49
-3.0
 49
6.0
 49
-3.0
  0
LTYPE
  2
CENTER2
 70
     0
  3
Center (.5x) ___ _ ___ _ ___ _ ___ _ ___ _ ___
 72
    65
 73
     4
 40
28.575
 49
19.05
 49
-3.175
 49
3.175
 49
-3.175
  0
LTYPE
  2
CENTERX2
 70
     0
  3
Center (2x) ________  __  ________  __  _____
 72
    65
 73
     4
 40
101.6
 49
63.5
 49
-12.7
 49
12.7
 49
-12.7
  0
LTYPE
  2
DASHED2
 70
     0
  3
Dashed (.5x) _ _ _ _ _ _ _ _ _ _ _ _ _ _ _ _ _ 
 72
    65
 73
     2
 40
9.524999999999999
 49
6.35
 49
-3.175
  0
LTYPE
  2
ACAD_ISO07W100
 70
     0
  3
ISO dot . . . . . . . . . . . . . . . . . . . . 
 72
    65
 73
     2
 40
3.0
 49
0.0
 49
-3.0
  0
LTYPE
  2
DASHEDX2
 70
     0
  3
Dashed (2x) ____  ____  ____  ____  ____  ___
 72
    65
 73
     2
 40
38.09999999999999
 49
25.4
 49
-12.7
  0
LTYPE
  2
HIDDEN2
 70
     0
  3
Hidden (.5x) _ _ _ _ _ _ _ _ _ _ _ _ _ _ _ _ _ 
 72
    65
 73
     2
 40
4.762499999999999
 49
3.175
 49
-1.5875
  0
LTYPE
  2
BORDER2
 70
     0
  3
Border (.5x) __.__.__.__.__.__.__.__.__.__.__.
 72
    65
 73
     6
 40
22.225
 49
6.35
 49
-3.175
 49
6.35
 49
-3.175
 49
0.0
 49
-3.175
  0
LTYPE
  2
DASHDOT
 70
     0
  3
Dash dot __ . __ . __ . __ . __ . __ . __ . __
 72
    65
 73
     4
 40
25.4
 49
12.7
 49
-6.35
 49
0.0
 49
-6.35
  0
LTYPE
  2
HOT_WATER_SUPPLY
 70
     0
  3
Hot water supply ---- HW ---- HW ---- HW ----
 72
    65
 73
     3
 40
22.86
 49
12.7
 49
-5.08
 49
-5.08
  0
LTYPE
  2
ACAD_ISO14W100
 70
     0
  3
ISO dash triple-dot __ . . . __ . . . __ . . . _
 72
    65
 73
     8
 40
24.0
 49
12.0
 49
-3.0
 49
0.0
 49
-3.0
 49
0.0
 49
-3.0
 49
0.0
 49
-3.0
  0
LTYPE
  2
HIDDENX2
 70
     0
  3
Hidden (2x) ____ ____ ____ ____ ____ ____ ____ 
 72
    65
 73
     2
 40
19.05
 49
12.7
 49
-6.35
  0
LTYPE
  2
DIVIDEX2
 70
     0
  3
Divide (2x) ________  .  .  ________  .  .  _
 72
    65
 73
     6
 40
63.5
 49
25.4
 49
-12.7
 49
0.0
 49
-12.7
 49
0.0
 49
-12.7
  0
LTYPE
  2
ACAD_ISO12W100
 70
     0
  3
ISO dash double-dot __ . . __ . . __ . . __ . . 
 72
    65
 73
     6
 40
21.0
 49
12.0
 49
-3.0
 49
0.0
 49
-3.0
 49
0.0
 49
-3.0
  0
LTYPE
  2
ACAD_ISO02W100
 70
     0
  3
ISO dash __ __ __ __ __ __ __ __ __ __ __ __ __
 72
    65
 73
     2
 40
15.0
 49
12.0
 49
-3.0
  0
LTYPE
  2
DASHED
 70
     0
  3
Dashed __ __ __ __ __ __ __ __ __ __ __ __ __ _
 72
    65
 73
     2
 40
19.05
 49
12.7
 49
-6.35
  0
LTYPE
  2
BORDERX2
 70
     0
  3
Border (2x) ____  ____  .  ____  ____  .  ___
 72
    65
 73
     6
 40
88.89999999999999
 49
25.4
 49
-12.7
 49
25.4
 49
-12.7
 49
0.0
 49
-12.7
  0
LTYPE
  2
HIDDEN
 70
     0
  3
Hidden __ __ __ __ __ __ __ __ __ __ __ __ __ __
 72
    65
 73
     2
 40
9.524999999999999
 49
6.35
 49
-3.175
  0
LTYPE
  2
GAS_LINE
 70
     0
  3
Gas line ----GAS----GAS----GAS----GAS----GAS----GAS--
 72
    65
 73
     3
 40
24.13
 49
12.7
 49
-5.08
 49
-6.35
  0
LTYPE
  2
DIVIDE
 70
     0
  3
Divide ____ . . ____ . . ____ . . ____ . . ____
 72
    65
 73
     6
 40
31.75
 49
12.7
 49
-6.35
 49
0.0
 49
-6.35
 49
0.0
 49
-6.35
  0
LTYPE
  2
ACAD_ISO03W100
 70
     0
  3
ISO dash space __    __    __    __    __    __
 72
    65
 73
     2
 40
30.0
 49
12.0
 49
-18.0
  0
LTYPE
  2
ACAD_ISO15W100
 70
     0
  3
ISO double-dash triple-dot __ __ . . . __ __ . .
 72
    65
 73
    10
 40
39.0
 49
12.0
 49
-3.0
 49
12.0
 49
-3.0
 49
0.0
 49
-3.0
 49
0.0
 49
-3.0
 49
0.0
 49
-3.0
  0
LTYPE
  2
FENCELINE2
 70
     0
  3
Fenceline square ----[]-----[]----[]-----[]----[]---
 72
    65
 73
     4
 40
36.83
 49
6.35
 49
-2.54
 49
-2.54
 49
25.4
  0
LTYPE
  2
ACAD_ISO05W100
 70
     0
  3
ISO long-dash double-dot ____ .. ____ .. ____ . 
 72
    65
 73
     6
 40
33.0
 49
24.0
 49
-3.0
 49
0.0
 49
-3.0
 49
0.0
 49
-3.0
  0
LTYPE
  2
POINT1
 70
     0
  3
----/\-----/\---
 72
    65
 73
     2
 40
31.26232
 49
25.4
 49
-5.86232
  0
LTYPE
  2
DIVIDE2
 70
     0
  3
Divide (.5x) __..__..__..__..__..__..__..__.._
 72
    65
 73
     6
 40
15.875
 49
6.35
 49
-3.175
 49
0.0
 49
-3.175
 49
0.0
 49
-3.175
  0
LTYPE
  2
BATTING
 70
     0
  3
Batting SSSSSSSSSSSSSSSSSSSSSSSSSSSSSSSSSSSSSSSSSSSSSSS
 72
    65
 73
     4
 40
10.16254
 49
0.00254
 49
-2.54
 49
-5.08
 49
-2.54
  0
LTYPE
  2
DRAINAGE
 70
     0
  3
Drainage ---->---->---->----
 72
    65
 73
     2
 40
10.16
 49
5.08
 49
5.08
  0
LTYPE
  2
PHANTOM2
 70
     0
  3
Phantom (.5x) ___ _ _ ___ _ _ ___ _ _ ___ _ _
 72
    65
 73
     6
 40
31.75
 49
15.875
 49
-3.175
 49
3.175
 49
-3.175
 49
3.175
 49
-3.175
  0
LTYPE
  2
CENTER
 70
     0
  3
Center ____ _ ____ _ ____ _ ____ _ ____ _ ____
 72
    65
 73
     4
 40
50.8
 49
31.75
 49
-6.35
 49
6.35
 49
-6.35
  0
LTYPE
  2
FENCELINE1
 70
     0
  3
Fenceline circle ----0-----0----0-----0----0-----0--
 72
    65
 73
     4
 40
36.83
 49
6.35
 49
-2.54
 49
-2.54
 49
25.4
  0
LTYPE
  2
DOT2
 70
     0
  3
Dot (.5x) ........................................
 72
    65
 73
     2
 40
3.175
 49
0.0
 49
-3.175
  0
LTYPE
  2
TRACKS
 70
     0
  3
Tracks -|-|-|-|-|-|-|-|-|-|-|-|-|-|-|-|-|-|-|-|-|-|-|-|-
 72
    65
 73
     2
 40
7.62
 49
3.81
 49
3.81
  0
LTYPE
  2
BORDER
 70
     0
  3
Border __ __ . __ __ . __ __ . __ __ . __ __ .
 72
    65
 73
     6
 40
44.45
 49
12.7
 49
-6.35
 49
12.7
 49
-6.35
 49
0.0
 49
-6.35
  0
LTYPE
  2
DOT
 70
     0
  3
Dot . . . . . . . . . . . . . . . . . . . . . . . .
 72
    65
 73
     2
 40
6.35
 49
0.0
 49
-6.35
  0
LTYPE
  2
DRAINAGE2
 70
     0
  3
Drainage reversed----<----<----<----
 72
    65
 73
     2
 40
10.16
 49
5.08
 49
5.08
  0
LTYPE
  2
DOTX2
 70
     0
  3
Dot (2x) .  .  .  .  .  .  .  .  .  .  .  .  .  .
 72
    65
 73
     2
 40
12.7
 49
0.0
 49
-12.7
  0
LTYPE
  2
PLANT
 70
     0
  3
_/^ \_\^ \_
 72
    65
 73
     7
 40
21.94
 49
0.01
 49
-3.0
 49
-3.15
 49
-4.23
 49
-4.63
 49
-2.5
 49
-4.42
  0
LTYPE
  2
DASHDOTX2
 70
     0
  3
Dash dot (2x) ____  .  ____  .  ____  .  ___
 72
    65
 73
     4
 40
50.8
 49
25.4
 49
-12.7
 49
0.0
 49
-12.7
  0
LTYPE
  2
ACAD_ISO09W100
 70
     0
  3
ISO long-dash double-short-dash ____ __ __ ____
 72
    65
 73
     6
 40
45.0
 49
24.0
 49
-3.0
 49
6.0
 49
-3.0
 49
6.0
 49
-3.0
  0
LTYPE
  2
ZIGZAG
 70
     0
  3
Zig zag /\/\/\/\/\/\/\/\/\/\/\/\/\/\/\/\/\/\/\/\/\/\/\/
 72
    65
 73
     4
 40
20.32254
 49
0.00254
 49
-5.08
 49
-10.16
 49
-5.08
  0
LTYPE
  2
DASHDOT2
 70
     0
  3
Dash dot (.5x) _._._._._._._._._._._._._._._.
 72
    65
 73
     4
 40
12.7
 49
6.35
 49
-3.175
 49
0.0
 49
-3.175
  0
LTYPE
  2
ACAD_ISO04W100
 70
     0
  3
ISO long-dash dot ____ . ____ . ____ . ____ . _
 72
    65
 73
     4
 40
30.0
 49
24.0
 49
-3.0
 49
0.0
 49
-3.0
  0
LTYPE
  2
PHANTOM
 70
     0
  3
Phantom ______  __  __  ______  __  __  ______ 
 72
    65
 73
     6
 40
63.50000000000001
 49
31.75
 49
-6.35
 49
6.35
 49
-6.35
 49
6.35
 49
-6.35
  0
LTYPE
  2
ACAD_ISO06W100
 70
     0
  3
ISO long-dash triple-dot ____ ... ____ ... ____
 72
    65
 73
     8
 40
36.0
 49
24.0
 49
-3.0
 49
0.0
 49
-3.0
 49
0.0
 49
-3.0
 49
0.0
 49
-3.0
  0
LTYPE
  2
ACAD_ISO11W100
 70
     0
  3
ISO double-dash dot __ __ . __ __ . __ __ . __ _
 72
    65
 73
     6
 40
33.0
 49
12.0
 49
-3.0
 49
12.0
 49
-3.0
 49
0.0
 49
-3.0
  0
LTYPE
  2
POINT2
 70
     0
  3
----\/-----\/---
 72
    65
 73
     2
 40
31.26232
 49
25.4
 49
-5.86232
  0
LTYPE
  2
PHANTOMX2
 70
     0
  3
Phantom (2x) ____________    ____    ____   _
 72
    65
 73
     6
 40
127.0
 49
63.5
 49
-12.7
 49
12.7
 49
-12.7
 49
12.7
 49
-12.7
  0
ENDTAB
  0
TABLE
  2
LAYER
 70
     2
  0
LAYER
  2
0
 70
     0
 62
     7
  6
CONTINUOUS
  0
LAYER
  2
LAYER0
 70
     0
 62
     7
  6
CONTINUOUS
  0
ENDTAB
  0
TABLE
  2
STYLE
 70
     5
  0
STYLE
  2
STANDARD
 70
     0
 40
0.0
 41
1.0
 50
0.0
 71
     0
 42
0.2
  3
txt
  4

  0
STYLE
  2
QCADDIMTEXTSTYLE
 70
     0
 40
0.0
 41
1.0
 50
0.0
 71
     0
 42
0.2
  3
Academy Engraved LET Fonts.ttf
  4

  0
STYLE
  2
TEXTSTYLE0
 70
     0
 40
0.0
 41
1.0
 50
0.0
 71
     0
 42
0.2
  3
STANDARD
  4

  0
STYLE
  2
TEXTSTYLE1
 70
     0
 40
0.0
 41
1.0
 50
0.0
 71
     0
 42
0.2
  3
ltypeshp.shx
  4

  0
STYLE
  2
TEXTSTYLE2
 70
     0
 40
0.0
 41
1.0
 50
0.0
 71
     0
 42
0.2
  3
qcadshp.shx
  4

  0
ENDTAB
  0
TABLE
  2
VIEW
 70
     0
  0
ENDTAB
  0
TABLE
  2
UCS
 70
     0
  0
ENDTAB
  0
TABLE
  2
APPID
 70
     2
  0
APPID
  2
ACAD
 70
     0
  0
APPID
  2
QCAD
 70
     0
  0
ENDTAB
  0
TABLE
  2
DIMSTYLE
 70
     2
  0
DIMSTYLE
  2
STANDARD
 70
     0
  3

  4

  5

  6

  7

 40
1.0
 41
0.18
 42
0.0625
 43
0.38
 44
0.18
 45
0.0
 46
0.0
 47
0.0
 48
0.0
140
0.18
141
0.09
142
0.0
143
25.4
144
1.0
145
0.0
146
1.0
147
0.09
 71
     0
 72
     0
 73
     1
 74
     1
 75
     0
 76
     0
 77
     0
 78
     0
170
     0
171
     2
172
     0
173
     0
174
     0
175
     0
176
     0
177
     0
178
     0
  0
DIMSTYLE
  2
QCADDIMSTYLE
 70
     0
  3

  4

  5

  6

  7

 40
1.0
 41
2.5
 42
0.625
 43
5.0
 44
1.25
 45
0.0
 46
0.0
 47
0.0
 48
0.0
140
2.5
141
0.09
142
0.0
143
25.4
144
1.0
145
0.0
146
1.0
147
0.625
 71
     0
 72
     0
 73
     0
 74
     1
 75
     0
 76
     0
 77
     1
 78
     8
170
     0
171
     2
172
     0
173
     0
174
     0
175
     0
176
     0
177
     0
178
   256
  0
ENDTAB
  0
ENDSEC
  0
SECTION
  2
BLOCKS
  0
BLOCK
  8
0
  2
$MODEL_SPACE
 70
     0
 10
0.0
 20
0.0
 30
0.0
  3
$MODEL_SPACE
  1

  0
ENDBLK
  5
87
  8
0
  0
BLOCK
 67
     1
  8
0
  2
$PAPER_SPACE
 70
     0
 10
0.0
 20
0.0
 30
0.0
  3
$PAPER_SPACE
  1

  0
ENDBLK
  5
83
 67
     1
  8
0
  0
ENDSEC
  0
SECTION
  2
ENTITIES
  0
POLYLINE
  5
3D
  8
LAYER0
 66
     1
 10
0.0
 20
0.0
 30
0.0
 70
     1
  0
VERTEX
  5
13A
  8
LAYER0
 10
0.0000000000001137
 20
0.0000000000000284
 30
0.0
  0
VERTEX
  5
13B
  8
LAYER0
 10
149.9999999999999
 20
-0.0000000000003695
 30
0.0
  0
VERTEX
  5
13C
  8
LAYER0
 10
150.0000000000001
 20
194.999999999999
 30
0.0
  0
VERTEX
  5
13D
  8
LAYER0
 10
0.0000000000001137
 20
194.999999999999
 30
0.0
  0
SEQEND
  5
1E6
  8
LAYER0
  0
POLYLINE
  5
3E
  8
LAYER0
 66
     1
 10
0.0
 20
0.0
 30
0.0
 70
     1
  0
VERTEX
  5
13E
  8
LAYER0
 10
117.6284295429149
 20
112.6589162135165
 30
0.0
 42
0.4142135623730984
  0
VERTEX
  5
13F
  8
LAYER0
 10
115.4784295429148
 20
114.8089162135165
 30
0.0
 42
0.4142135623731031
  0
VERTEX
  5
140
  8
LAYER0
 10
113.3284295429149
 20
112.6589162135165
 30
0.0
 42
0.4142135623730984
  0
VERTEX
  5
141
  8
LAYER0
 10
115.4784295429148
 20
110.5089162135166
 30
0.0
 42
0.4142135623731031
  0
SEQEND
  5
1E7
  8
LAYER0
  0
POLYLINE
  5
3F
  8
LAYER0
 66
     1
 10
0.0
 20
0.0
 30
0.0
 70
     1
  0
VERTEX
  5
142
  8
LAYER0
 10
143.6284295415893
 20
152.0589162101927
 30
0.0
 42
0.4142135623730966
  0
VERTEX
  5
143
  8
LAYER0
 10
141.4784295415894
 20
154.2089162101926
 30
0.0
 42
0.4142135623731013
  0
VERTEX
  5
144
  8
LAYER0
 10
139.3284295415893
 20
152.0589162101927
 30
0.0
 42
0.4142135623730966
  0
VERTEX
  5
145
  8
LAYER0
 10
141.4784295415894
 20
149.9089162101926
 30
0.0
 42
0.4142135623731013
  0
SEQEND
  5
1E8
  8
LAYER0
  0
POLYLINE
  5
40
  8
LAYER0
 66
     1
 10
0.0
 20
0.0
 30
0.0
 70
     1
  0
VERTEX
  5
146
  8
LAYER0
 10
8.478429541953233
 20
154.2089162112266
 30
0.0
 42
0.4142135623730924
  0
VERTEX
  5
147
  8
LAYER0
 10
6.328429541953142
 20
152.0589162112264
 30
0.0
 42
0.4142135623730924
  0
VERTEX
  5
148
  8
LAYER0
 10
8.478429541953233
 20
149.9089162112265
 30
0.0
 42
0.4142135623730924
  0
VERTEX
  5
149
  8
LAYER0
 10
10.62842954195332
 20
152.0589162112264
 30
0.0
 42
0.4142135623730924
  0
SEQEND
  5
1E9
  8
LAYER0
  0
POLYLINE
  5
41
  8
LAYER0
 66
     1
 10
0.0
 20
0.0
 30
0.0
 70
     1
  0
VERTEX
  5
14A
  8
LAYER0
 10
95.14981738890253
 20
152.7903414766949
 30
0.0
 42
0.4142135623730982
  0
VERTEX
  5
14B
  8
LAYER0
 10
92.49981738890244
 20
155.4403414766948
 30
0.0
 42
0.4142135623730982
  0
VERTEX
  5
14C
  8
LAYER0
 10
89.84981738890258
 20
152.7903414766949
 30
0.0
 42
0.4142135623730982
  0
VERTEX
  5
14D
  8
LAYER0
 10
92.49981738890244
 20
150.1403414766948
 30
0.0
 42
0.4142135623730982
  0
SEQEND
  5
1EA
  8
LAYER0
  0
POLYLINE
  5
42
  8
LAYER0
 66
     1
 10
0.0
 20
0.0
 30
0.0
 70
     1
  0
VERTEX
  5
14E
  8
LAYER0
 10
36.62842954157679
 20
152.0589162095592
 30
0.0
 42
0.4142135623730924
  0
VERTEX
  5
14F
  8
LAYER0
 10
34.4784295415767
 20
154.2089162095589
 30
0.0
 42
0.4142135623730924
  0
VERTEX
  5
150
  8
LAYER0
 10
32.32842954157661
 20
152.0589162095592
 30
0.0
 42
0.4142135623730924
  0
VERTEX
  5
151
  8
LAYER0
 10
34.4784295415767
 20
149.9089162095592
 30
0.0
 42
0.4142135623730924
  0
SEQEND
  5
1EB
  8
LAYER0
  0
POLYLINE
  5
43
  8
LAYER0
 66
     1
 10
0.0
 20
0.0
 30
0.0
 70
     1
  0
VERTEX
  5
152
  8
LAYER0
 10
117.6284295420927
 20
178.0589162113053
 30
0.0
 42
0.4142135623730984
  0
VERTEX
  5
153
  8
LAYER0
 10
115.4784295420926
 20
180.2089162113051
 30
0.0
 42
0.4142135623731031
  0
VERTEX
  5
154
  8
LAYER0
 10
113.3284295420926
 20
178.0589162113053
 30
0.0
 42
0.4142135623730984
  0
VERTEX
  5
155
  8
LAYER0
 10
115.4784295420926
 20
175.9089162113052
 30
0.0
 42
0.4142135623731031
  0
SEQEND
  5
1EC
  8
LAYER0
  0
POLYLINE
  5
44
  8
LAYER0
 66
     1
 10
0.0
 20
0.0
 30
0.0
 70
     1
  0
VERTEX
  5
156
  8
LAYER0
 10
34.99981738869076
 20
58.59998621165212
 30
0.0
 42
0.4142135623730951
  0
VERTEX
  5
157
  8
LAYER0
 10
31.39981738869085
 20
54.99998621165201
 30
0.0
 42
0.4142135623730951
  0
VERTEX
  5
158
  8
LAYER0
 10
34.99981738869076
 20
51.39998621165213
 30
0.0
 42
0.4142135623730951
  0
VERTEX
  5
159
  8
LAYER0
 10
38.59981738869089
 20
54.99998621165201
 30
0.0
 42
0.4142135623730951
  0
SEQEND
  5
1ED
  8
LAYER0
  0
POLYLINE
  5
45
  8
LAYER0
 66
     1
 10
0.0
 20
0.0
 30
0.0
 70
     1
  0
VERTEX
  5
15A
  8
LAYER0
 10
114.9998173886689
 20
58.59998621133244
 30
0.0
 42
0.4142135623730951
  0
VERTEX
  5
15B
  8
LAYER0
 10
111.3998173886688
 20
54.99998621133233
 30
0.0
 42
0.4142135623730951
  0
VERTEX
  5
15C
  8
LAYER0
 10
114.9998173886689
 20
51.39998621133242
 30
0.0
 42
0.4142135623730951
  0
VERTEX
  5
15D
  8
LAYER0
 10
118.5998173886688
 20
54.99998621133233
 30
0.0
 42
0.4142135623730951
  0
SEQEND
  5
1EE
  8
LAYER0
  0
POLYLINE
  5
46
  8
LAYER0
 66
     1
 10
0.0
 20
0.0
 30
0.0
 70
     1
  0
VERTEX
  5
15E
  8
LAYER0
 10
114.9998173885609
 20
24.59998621103892
 30
0.0
 42
0.4142135623730951
  0
VERTEX
  5
15F
  8
LAYER0
 10
111.3998173885608
 20
20.99998621103902
 30
0.0
 42
0.4142135623730951
  0
VERTEX
  5
160
  8
LAYER0
 10
114.9998173885609
 20
17.39998621103913
 30
0.0
 42
0.4142135623730951
  0
VERTEX
  5
161
  8
LAYER0
 10
118.5998173885608
 20
20.99998621103902
 30
0.0
 42
0.4142135623730951
  0
SEQEND
  5
1EF
  8
LAYER0
  0
POLYLINE
  5
47
  8
LAYER0
 66
     1
 10
0.0
 20
0.0
 30
0.0
 70
     1
  0
VERTEX
  5
162
  8
LAYER0
 10
124.999817388734
 20
65.59998621151874
 30
0.0
 42
0.4142135623730951
  0
VERTEX
  5
163
  8
LAYER0
 10
121.399817388734
 20
61.99998621151872
 30
0.0
 42
0.4142135623730951
  0
VERTEX
  5
164
  8
LAYER0
 10
124.999817388734
 20
58.39998621151864
 30
0.0
 42
0.4142135623730951
  0
VERTEX
  5
165
  8
LAYER0
 10
128.5998173887341
 20
61.99998621151872
 30
0.0
 42
0.4142135623730951
  0
SEQEND
  5
1F0
  8
LAYER0
  0
POLYLINE
  5
48
  8
LAYER0
 66
     1
 10
0.0
 20
0.0
 30
0.0
 70
     1
  0
VERTEX
  5
166
  8
LAYER0
 10
24.99981738865893
 20
15.59998621137152
 30
0.0
 42
0.4142135623730951
  0
VERTEX
  5
167
  8
LAYER0
 10
21.39981738865902
 20
11.99998621137144
 30
0.0
 42
0.4142135623730951
  0
VERTEX
  5
168
  8
LAYER0
 10
24.99981738865893
 20
8.399986211371527
 30
0.0
 42
0.4142135623730951
  0
VERTEX
  5
169
  8
LAYER0
 10
28.59981738865883
 20
11.99998621137144
 30
0.0
 42
0.4142135623730951
  0
SEQEND
  5
1F1
  8
LAYER0
  0
POLYLINE
  5
49
  8
LAYER0
 66
     1
 10
0.0
 20
0.0
 30
0.0
 70
     1
  0
VERTEX
  5
16A
  8
LAYER0
 10
124.9998173887319
 20
15.59998621158462
 30
0.0
 42
0.4142135623730951
  0
VERTEX
  5
16B
  8
LAYER0
 10
121.399817388732
 20
11.99998621158474
 30
0.0
 42
0.4142135623730951
  0
VERTEX
  5
16C
  8
LAYER0
 10
124.9998173887319
 20
8.399986211584832
 30
0.0
 42
0.4142135623730951
  0
VERTEX
  5
16D
  8
LAYER0
 10
128.5998173887318
 20
11.99998621158474
 30
0.0
 42
0.4142135623730951
  0
SEQEND
  5
1F2
  8
LAYER0
  0
POLYLINE
  5
4A
  8
LAYER0
 66
     1
 10
0.0
 20
0.0
 30
0.0
 70
     1
  0
VERTEX
  5
16E
  8
LAYER0
 10
24.99981738854751
 20
65.5999862109407
 30
0.0
 42
0.4142135623730951
  0
VERTEX
  5
16F
  8
LAYER0
 10
21.3998173885476
 20
61.99998621094082
 30
0.0
 42
0.4142135623730951
  0
VERTEX
  5
170
  8
LAYER0
 10
24.99981738854751
 20
58.39998621094063
 30
0.0
 42
0.4142135623730951
  0
VERTEX
  5
171
  8
LAYER0
 10
28.59981738854788
 20
61.99998621094082
 30
0.0
 42
0.4142135623730951
  0
SEQEND
  5
1F3
  8
LAYER0
  0
POLYLINE
  5
4B
  8
LAYER0
 66
     1
 10
0.0
 20
0.0
 30
0.0
 70
     1
  0
VERTEX
  5
172
  8
LAYER0
 10
34.99981738860458
 20
24.59998621123583
 30
0.0
 42
0.4142135623730951
  0
VERTEX
  5
173
  8
LAYER0
 10
31.39981738860445
 20
20.99998621123572
 30
0.0
 42
0.4142135623730951
  0
VERTEX
  5
174
  8
LAYER0
 10
34.99981738860458
 20
17.39998621123584
 30
0.0
 42
0.4142135623730951
  0
VERTEX
  5
175
  8
LAYER0
 10
38.59981738860472
 20
20.99998621123572
 30
0.0
 42
0.4142135623730951
  0
SEQEND
  5
1F4
  8
LAYER0
  0
POLYLINE
  5
4C
  8
LAYER0
 66
     1
 10
0.0
 20
0.0
 30
0.0
 70
     1
  0
VERTEX
  5
176
  8
LAYER0
 10
109.9998173886189
 20
37.32092843804344
 30
0.0
 42
0.4142135623730951
  0
VERTEX
  5
177
  8
LAYER0
 10
107.3498173886188
 20
34.67092843804332
 30
0.0
 42
0.4142135623730951
  0
VERTEX
  5
178
  8
LAYER0
 10
109.9998173886189
 20
32.02092843804323
 30
0.0
 42
0.4142135623730951
  0
VERTEX
  5
179
  8
LAYER0
 10
112.649817388619
 20
34.67092843804332
 30
0.0
 42
0.4142135623730951
  0
SEQEND
  5
1F5
  8
LAYER0
  0
POLYLINE
  5
4D
  8
LAYER0
 66
     1
 10
0.0
 20
0.0
 30
0.0
 70
     1
  0
VERTEX
  5
17A
  8
LAYER0
 10
39.99981738874055
 20
37.32092843842383
 30
0.0
 42
0.4142135623730951
  0
VERTEX
  5
17B
  8
LAYER0
 10
37.34981738874069
 20
34.67092843842372
 30
0.0
 42
0.4142135623730951
  0
VERTEX
  5
17C
  8
LAYER0
 10
39.99981738874055
 20
32.02092843842362
 30
0.0
 42
0.4142135623730951
  0
VERTEX
  5
17D
  8
LAYER0
 10
42.64981738874042
 20
34.67092843842372
 30
0.0
 42
0.4142135623730951
  0
SEQEND
  5
1F6
  8
LAYER0
  0
POLYLINE
  5
4E
  8
LAYER0
 66
     1
 10
0.0
 20
0.0
 30
0.0
 70
     1
  0
VERTEX
  5
17E
  8
LAYER0
 10
60.14981738895983
 20
152.7903414770718
 30
0.0
 42
0.4142135623730982
  0
VERTEX
  5
17F
  8
LAYER0
 10
57.49981738895951
 20
155.4403414770717
 30
0.0
 42
0.4142135623730982
  0
VERTEX
  5
180
  8
LAYER0
 10
54.84981738895988
 20
152.7903414770718
 30
0.0
 42
0.4142135623730982
  0
VERTEX
  5
181
  8
LAYER0
 10
57.49981738895974
 20
150.1403414770718
 30
0.0
 42
0.4142135623730982
  0
SEQEND
  5
1F7
  8
LAYER0
  0
POLYLINE
  5
4F
  8
LAYER0
 66
     1
 10
0.0
 20
0.0
 30
0.0
 70
     1
  0
VERTEX
  5
182
  8
LAYER0
 10
104.9998173885177
 20
102.1514922565637
 30
0.0
 42
0.4142135623731014
  0
VERTEX
  5
183
  8
LAYER0
 10
107.6498173885178
 20
104.8014922565634
 30
0.0
 42
0.4142135623730976
  0
VERTEX
  5
184
  8
LAYER0
 10
104.9998173885177
 20
107.4514922565635
 30
0.0
 42
0.4142135623730982
  0
VERTEX
  5
185
  8
LAYER0
 10
102.3498173885176
 20
104.8014922565633
 30
0.0
 42
0.4142135623730982
  0
SEQEND
  5
1F8
  8
LAYER0
  0
POLYLINE
  5
50
  8
LAYER0
 66
     1
 10
0.0
 20
0.0
 30
0.0
 70
     1
  0
VERTEX
  5
186
  8
LAYER0
 10
102.3498173889599
 20
22.33995404492092
 30
0.0
 42
0.4142135623730982
  0
VERTEX
  5
187
  8
LAYER0
 10
104.9998173889599
 20
19.68995404492063
 30
0.0
 42
0.4142135623731014
  0
VERTEX
  5
188
  8
LAYER0
 10
107.6498173889598
 20
22.33995404492072
 30
0.0
 42
0.4142135623730976
  0
VERTEX
  5
189
  8
LAYER0
 10
104.9998173889599
 20
24.98995404492064
 30
0.0
 42
0.4142135623730605
  0
SEQEND
  5
1F9
  8
LAYER0
  0
POLYLINE
  5
51
  8
LAYER0
 66
     1
 10
0.0
 20
0.0
 30
0.0
 70
     1
  0
VERTEX
  5
18A
  8
LAYER0
 10
44.99981738878398
 20
107.4514922574239
 30
0.0
 42
0.4142135623730982
  0
VERTEX
  5
18B
  8
LAYER0
 10
42.34981738878389
 20
104.8014922574237
 30
0.0
 42
0.4142135623730982
  0
VERTEX
  5
18C
  8
LAYER0
 10
44.99981738878398
 20
102.1514922574237
 30
0.0
 42
0.4142135623730982
  0
VERTEX
  5
18D
  8
LAYER0
 10
47.64981738878407
 20
104.8014922574237
 30
0.0
 42
0.4142135623730982
  0
SEQEND
  5
1FA
  8
LAYER0
  0
POLYLINE
  5
52
  8
LAYER0
 66
     1
 10
0.0
 20
0.0
 30
0.0
 70
     1
  0
VERTEX
  5
18E
  8
LAYER0
 10
47.64981738897825
 20
22.33995404512692
 30
0.0
 42
0.4142135623730982
  0
VERTEX
  5
18F
  8
LAYER0
 10
44.99981738897839
 20
24.98995404512684
 30
0.0
 42
0.4142135623730982
  0
VERTEX
  5
190
  8
LAYER0
 10
42.34981738897852
 20
22.33995404512692
 30
0.0
 42
0.4142135623730982
  0
VERTEX
  5
191
  8
LAYER0
 10
44.99981738897839
 20
19.68995404512683
 30
0.0
 42
0.4142135623730982
  0
SEQEND
  5
1FB
  8
LAYER0
  0
POLYLINE
  5
53
  8
LAYER0
 66
     1
 10
0.0
 20
0.0
 30
0.0
 70
     1
  0
VERTEX
  5
192
  8
LAYER0
 10
60.14981738891959
 20
128.7903414768454
 30
0.0
 42
0.4142135623730982
  0
VERTEX
  5
193
  8
LAYER0
 10
57.49981738891972
 20
131.4403414768466
 30
0.0
 42
0.4142135623730982
  0
VERTEX
  5
194
  8
LAYER0
 10
54.84981738891963
 20
128.7903414768467
 30
0.0
 42
0.4142135623730982
  0
VERTEX
  5
195
  8
LAYER0
 10
57.49981738891972
 20
126.1403414768467
 30
0.0
 42
0.4142135623728218
  0
SEQEND
  5
1FC
  8
LAYER0
  0
POLYLINE
  5
54
  8
LAYER0
 66
     1
 10
0.0
 20
0.0
 30
0.0
 70
     1
  0
VERTEX
  5
196
  8
LAYER0
 10
95.14981738873587
 20
128.7903414761037
 30
0.0
 42
0.4142135623730982
  0
VERTEX
  5
197
  8
LAYER0
 10
92.49981738873578
 20
131.4403414761038
 30
0.0
 42
0.414213562372847
  0
VERTEX
  5
198
  8
LAYER0
 10
89.84981738873569
 20
128.7903414761048
 30
0.0
 42
0.4142135623730982
  0
VERTEX
  5
199
  8
LAYER0
 10
92.49981738873578
 20
126.1403414761039
 30
0.0
 42
0.4142135623730982
  0
SEQEND
  5
1FD
  8
LAYER0
  0
POLYLINE
  5
55
  8
LAYER0
 66
     1
 10
0.0
 20
0.0
 30
0.0
 70
     1
  0
VERTEX
  5
19A
  8
LAYER0
 10
109.9998173883758
 20
17.32092843727233
 30
0.0
 42
0.4142135623730951
  0
VERTEX
  5
19B
  8
LAYER0
 10
107.349817388376
 20
14.67092843727224
 30
0.0
 42
0.4142135623730951
  0
VERTEX
  5
19C
  8
LAYER0
 10
109.9998173883758
 20
12.02092843727243
 30
0.0
 42
0.4142135623730951
  0
VERTEX
  5
19D
  8
LAYER0
 10
112.6498173883759
 20
14.67092843727224
 30
0.0
 42
0.4142135623730951
  0
SEQEND
  5
1FE
  8
LAYER0
  0
POLYLINE
  5
56
  8
LAYER0
 66
     1
 10
0.0
 20
0.0
 30
0.0
 70
     1
  0
VERTEX
  5
19E
  8
LAYER0
 10
39.9998173882999
 20
17.32092843720662
 30
0.0
 42
0.4142135623730951
  0
VERTEX
  5
19F
  8
LAYER0
 10
37.34981738829981
 20
14.67092843720653
 30
0.0
 42
0.4142135623730951
  0
VERTEX
  5
1A0
  8
LAYER0
 10
39.9998173882999
 20
12.02092843720644
 30
0.0
 42
0.4142135623730951
  0
VERTEX
  5
1A1
  8
LAYER0
 10
42.64981738829977
 20
14.67092843720653
 30
0.0
 42
0.4142135623730951
  0
SEQEND
  5
1FF
  8
LAYER0
  0
POLYLINE
  5
57
  8
LAYER0
 66
     1
 10
0.0
 20
0.0
 30
0.0
 70
     1
  0
VERTEX
  5
1A2
  8
LAYER0
 10
21.48912346540612
 20
31.19998621137103
 30
0.0
 42
0.4142135623730661
  0
VERTEX
  5
1A3
  8
LAYER0
 10
19.28912346540631
 20
28.99998621137104
 30
0.0
 42
0.4142135623730875
  0
VERTEX
  5
1A4
  8
LAYER0
 10
21.48912346540612
 20
26.79998621137094
 30
0.0
 42
0.4142135623730661
  0
VERTEX
  5
1A5
  8
LAYER0
 10
23.68912346540594
 20
28.99998621137104
 30
0.0
 42
0.4142135623730875
  0
SEQEND
  5
200
  8
LAYER0
  0
POLYLINE
  5
58
  8
LAYER0
 66
     1
 10
0.0
 20
0.0
 30
0.0
 70
     1
  0
VERTEX
  5
1A6
  8
LAYER0
 10
130.710511311962
 20
28.99998621137573
 30
0.0
 42
0.4142135623730778
  0
VERTEX
  5
1A7
  8
LAYER0
 10
128.5105113119619
 20
31.19998621137583
 30
0.0
 42
0.4142135623730792
  0
VERTEX
  5
1A8
  8
LAYER0
 10
126.3105113119619
 20
28.99998621137573
 30
0.0
 42
0.4142135623730778
  0
VERTEX
  5
1A9
  8
LAYER0
 10
128.5105113119619
 20
26.79998621137574
 30
0.0
 42
0.4142135623730792
  0
SEQEND
  5
201
  8
LAYER0
  0
POLYLINE
  5
59
  8
LAYER0
 66
     1
 10
0.0
 20
0.0
 30
0.0
 70
     1
  0
VERTEX
  5
1AA
  8
LAYER0
 10
10.62842954176597
 20
178.0589162098368
 30
0.0
 42
0.4142135623731055
  0
VERTEX
  5
1AB
  8
LAYER0
 10
8.478429541765877
 20
180.2089162098366
 30
0.0
 42
0.4142135623731055
  0
VERTEX
  5
1AC
  8
LAYER0
 10
6.328429541765786
 20
178.0589162098368
 30
0.0
 42
0.4142135623731055
  0
VERTEX
  5
1AD
  8
LAYER0
 10
8.478429541765877
 20
175.9089162098366
 30
0.0
 42
0.4142135623731055
  0
SEQEND
  5
202
  8
LAYER0
  0
POLYLINE
  5
5A
  8
LAYER0
 66
     1
 10
0.0
 20
0.0
 30
0.0
 70
     1
  0
VERTEX
  5
1AE
  8
LAYER0
 10
117.6284295422539
 20
152.0589162124215
 30
0.0
 42
0.4142135623730984
  0
VERTEX
  5
1AF
  8
LAYER0
 10
115.4784295422538
 20
154.2089162124213
 30
0.0
 42
0.4142135623731031
  0
VERTEX
  5
1B0
  8
LAYER0
 10
113.3284295422537
 20
152.0589162124215
 30
0.0
 42
0.4142135623730984
  0
VERTEX
  5
1B1
  8
LAYER0
 10
115.4784295422538
 20
149.9089162124214
 30
0.0
 42
0.4142135623731031
  0
SEQEND
  5
203
  8
LAYER0
  0
POLYLINE
  5
5B
  8
LAYER0
 66
     1
 10
0.0
 20
0.0
 30
0.0
 70
     1
  0
VERTEX
  5
1B2
  8
LAYER0
 10
113.3284295418497
 20
86.6589162105281
 30
0.0
 42
0.4142135623730984
  0
VERTEX
  5
1B3
  8
LAYER0
 10
115.4784295418498
 20
84.50891621052801
 30
0.0
 42
0.4142135623731031
  0
VERTEX
  5
1B4
  8
LAYER0
 10
117.6284295418496
 20
86.6589162105281
 30
0.0
 42
0.4142135623730984
  0
VERTEX
  5
1B5
  8
LAYER0
 10
115.4784295418498
 20
88.80891621052803
 30
0.0
 42
0.4142135623731031
  0
SEQEND
  5
204
  8
LAYER0
  0
POLYLINE
  5
5C
  8
LAYER0
 66
     1
 10
0.0
 20
0.0
 30
0.0
 70
     1
  0
VERTEX
  5
1B6
  8
LAYER0
 10
8.478429542121035
 20
114.8089162120853
 30
0.0
 42
0.4142135623731055
  0
VERTEX
  5
1B7
  8
LAYER0
 10
6.328429542120944
 20
112.6589162120851
 30
0.0
 42
0.4142135623731055
  0
VERTEX
  5
1B8
  8
LAYER0
 10
8.478429542121035
 20
110.5089162120852
 30
0.0
 42
0.4142135623731055
  0
VERTEX
  5
1B9
  8
LAYER0
 10
10.62842954212113
 20
112.6589162120851
 30
0.0
 42
0.4142135623731055
  0
SEQEND
  5
205
  8
LAYER0
  0
POLYLINE
  5
5D
  8
LAYER0
 66
     1
 10
0.0
 20
0.0
 30
0.0
 70
     1
  0
VERTEX
  5
1BA
  8
LAYER0
 10
36.62842954228802
 20
178.0589162127121
 30
0.0
 42
0.4142135623731055
  0
VERTEX
  5
1BB
  8
LAYER0
 10
34.47842954228793
 20
180.2089162127122
 30
0.0
 42
0.4142135623731055
  0
VERTEX
  5
1BC
  8
LAYER0
 10
32.32842954228784
 20
178.0589162127121
 30
0.0
 42
0.4142135623731055
  0
VERTEX
  5
1BD
  8
LAYER0
 10
34.47842954228793
 20
175.9089162127122
 30
0.0
 42
0.4142135623731055
  0
SEQEND
  5
206
  8
LAYER0
  0
POLYLINE
  5
5E
  8
LAYER0
 66
     1
 10
0.0
 20
0.0
 30
0.0
 70
     1
  0
VERTEX
  5
1BE
  8
LAYER0
 10
34.47842954191094
 20
88.8089162098318
 30
0.0
 42
0.4142135623730924
  0
VERTEX
  5
1BF
  8
LAYER0
 10
32.32842954191131
 20
86.65891620983194
 30
0.0
 42
0.4142135623730924
  0
VERTEX
  5
1C0
  8
LAYER0
 10
34.47842954191094
 20
84.50891620983185
 30
0.0
 42
0.4142135623730924
  0
VERTEX
  5
1C1
  8
LAYER0
 10
36.62842954191103
 20
86.65891620983194
 30
0.0
 42
0.4142135623730924
  0
SEQEND
  5
207
  8
LAYER0
  0
POLYLINE
  5
5F
  8
LAYER0
 66
     1
 10
0.0
 20
0.0
 30
0.0
 70
     1
  0
VERTEX
  5
1C2
  8
LAYER0
 10
143.6284295440749
 20
178.0589162151424
 30
0.0
 42
0.4142135623730966
  0
VERTEX
  5
1C3
  8
LAYER0
 10
141.4784295440749
 20
180.2089162151423
 30
0.0
 42
0.4142135623731013
  0
VERTEX
  5
1C4
  8
LAYER0
 10
139.328429544075
 20
178.0589162151424
 30
0.0
 42
0.4142135623730966
  0
VERTEX
  5
1C5
  8
LAYER0
 10
141.4784295440749
 20
175.9089162151423
 30
0.0
 42
0.4142135623731013
  0
SEQEND
  5
208
  8
LAYER0
  0
POLYLINE
  5
60
  8
LAYER0
 66
     1
 10
0.0
 20
0.0
 30
0.0
 70
     1
  0
VERTEX
  5
1C6
  8
LAYER0
 10
143.6284295419485
 20
86.65891621131283
 30
0.0
 42
0.4142135623730966
  0
VERTEX
  5
1C7
  8
LAYER0
 10
141.4784295419487
 20
88.80891621131292
 30
0.0
 42
0.4142135623731013
  0
VERTEX
  5
1C8
  8
LAYER0
 10
139.3284295419486
 20
86.65891621131124
 30
0.0
 42
0.4142135623726476
  0
VERTEX
  5
1C9
  8
LAYER0
 10
141.4784295419487
 20
84.50891621131291
 30
0.0
 42
0.4142135623731013
  0
SEQEND
  5
209
  8
LAYER0
  0
POLYLINE
  5
61
  8
LAYER0
 66
     1
 10
0.0
 20
0.0
 30
0.0
 70
     1
  0
VERTEX
  5
1CA
  8
LAYER0
 10
143.6284295424744
 20
112.6589162124237
 30
0.0
 42
0.4142135623730966
  0
VERTEX
  5
1CB
  8
LAYER0
 10
141.4784295424745
 20
114.8089162124236
 30
0.0
 42
0.4142135623731013
  0
VERTEX
  5
1CC
  8
LAYER0
 10
139.3284295424745
 20
112.6589162124237
 30
0.0
 42
0.4142135623730966
  0
VERTEX
  5
1CD
  8
LAYER0
 10
141.4784295424745
 20
110.5089162124239
 30
0.0
 42
0.4142135623731013
  0
SEQEND
  5
20A
  8
LAYER0
  0
POLYLINE
  5
62
  8
LAYER0
 66
     1
 10
0.0
 20
0.0
 30
0.0
 70
     1
  0
VERTEX
  5
1CE
  8
LAYER0
 10
34.4784295420119
 20
114.8089162113178
 30
0.0
 42
0.4142135623730924
  0
VERTEX
  5
1CF
  8
LAYER0
 10
32.32842954201203
 20
112.6589162113176
 30
0.0
 42
0.4142135623730924
  0
VERTEX
  5
1D0
  8
LAYER0
 10
34.4784295420119
 20
110.5089162113176
 30
0.0
 42
0.4142135623730924
  0
VERTEX
  5
1D1
  8
LAYER0
 10
36.62842954201199
 20
112.6589162113176
 30
0.0
 42
0.4142135623730924
  0
SEQEND
  5
20B
  8
LAYER0
  0
POLYLINE
  5
63
  8
LAYER0
 66
     1
 10
0.0
 20
0.0
 30
0.0
 70
     1
  0
VERTEX
  5
1D2
  8
LAYER0
 10
8.478429541925038
 20
88.80891621005782
 30
0.0
 42
0.4142135623730924
  0
VERTEX
  5
1D3
  8
LAYER0
 10
6.328429541924947
 20
86.65891621005773
 30
0.0
 42
0.4142135623730924
  0
VERTEX
  5
1D4
  8
LAYER0
 10
8.478429541925038
 20
84.5089162100578
 30
0.0
 42
0.4142135623730924
  0
VERTEX
  5
1D5
  8
LAYER0
 10
10.6284295419249
 20
86.65891621005773
 30
0.0
 42
0.4142135623730924
  0
SEQEND
  5
20C
  8
LAYER0
  0
POLYLINE
  5
64
  8
LAYER0
 66
     1
 10
0.0
 20
0.0
 30
0.0
 70
     1
  0
VERTEX
  5
1D6
  8
LAYER0
 10
34.99981738845202
 20
6.940563942877333
 30
0.0
 42
0.4142135623730951
  0
VERTEX
  5
1D7
  8
LAYER0
 10
32.34981738845215
 20
4.290563942877327
 30
0.0
 42
0.4142135623730951
  0
VERTEX
  5
1D8
  8
LAYER0
 10
34.99981738845202
 20
1.640563942877321
 30
0.0
 42
0.4142135623730951
  0
VERTEX
  5
1D9
  8
LAYER0
 10
37.64981738845211
 20
4.290563942877327
 30
0.0
 42
0.4142135623730951
  0
SEQEND
  5
20D
  8
LAYER0
  0
POLYLINE
  5
65
  8
LAYER0
 66
     1
 10
0.0
 20
0.0
 30
0.0
 70
     1
  0
VERTEX
  5
1DA
  8
LAYER0
 10
114.9998173887572
 20
6.940563943076739
 30
0.0
 42
0.4142135623730951
  0
VERTEX
  5
1DB
  8
LAYER0
 10
112.3498173887573
 20
4.290563943076734
 30
0.0
 42
0.4142135623730951
  0
VERTEX
  5
1DC
  8
LAYER0
 10
114.9998173887572
 20
1.640563943076728
 30
0.0
 42
0.4142135623730951
  0
VERTEX
  5
1DD
  8
LAYER0
 10
117.6498173887572
 20
4.290563943076734
 30
0.0
 42
0.4142135623730951
  0
SEQEND
  5
20E
  8
LAYER0
  0
POLYLINE
  5
66
  8
LAYER0
 66
     1
 10
0.0
 20
0.0
 30
0.0
 70
     1
  0
VERTEX
  5
1DE
  8
LAYER0
 10
114.9998173887572
 20
31.94056394307674
 30
0.0
 42
0.4142135623730951
  0
VERTEX
  5
1DF
  8
LAYER0
 10
112.3498173887573
 20
29.29056394307673
 30
0.0
 42
0.4142135623730951
  0
VERTEX
  5
1E0
  8
LAYER0
 10
114.9998173887572
 20
26.64056394307673
 30
0.0
 42
0.4142135623730951
  0
VERTEX
  5
1E1
  8
LAYER0
 10
117.6498173887572
 20
29.29056394307673
 30
0.0
 42
0.4142135623730951
  0
SEQEND
  5
20F
  8
LAYER0
  0
POLYLINE
  5
67
  8
LAYER0
 66
     1
 10
0.0
 20
0.0
 30
0.0
 70
     1
  0
VERTEX
  5
1E2
  8
LAYER0
 10
34.99981738845202
 20
31.94056394287733
 30
0.0
 42
0.4142135623730951
  0
VERTEX
  5
1E3
  8
LAYER0
 10
32.34981738845215
 20
29.29056394287733
 30
0.0
 42
0.4142135623730951
  0
VERTEX
  5
1E4
  8
LAYER0
 10
34.99981738845202
 20
26.64056394287732
 30
0.0
 42
0.4142135623730951
  0
VERTEX
  5
1E5
  8
LAYER0
 10
37.64981738845211
 20
29.29056394287733
 30
0.0
 42
0.4142135623730951
  0
SEQEND
  5
210
  8
LAYER0
  0
VIEWPORT
  5
131
 67
     1
  8
0
 10
128.5
 20
97.5
 30
0.0
 40
314.226
 41
222.18
 68
     1
 69
     1
1001
ACAD
1000
MVIEW
1002
{
1070
    16
1010
0.0
1020
0.0
1030
0.0
1010
0.0
1020
0.0
1030
1.0
1040
0.0
1040
222.18
1040
128.5
1040
97.5
1040
50.0
1040
0.0
1040
0.0
1070
     0
1070
   100
1070
     0
1070
     3
1070
     0
1070
     0
1070
     0
1070
     0
1040
0.0
1040
0.0
1040
0.0
1040
10.0
1040
10.0
1040
10.0
1040
10.0
1070
     0
1002
{
1002
}
1002
}
  0
ENDSEC
  0
EOF
